SplineFontDB: 3.2
FontName: UniSansSemiBold
FullName: Uni Sans SemiBold
FamilyName: Uni Sans SemiBold
Weight: Demi
Copyright: Copyright (c) 2014 by (c) 2009 Designed by Svetoslav Simov (c) Fontfabric, Inc. All rights reserved.
Version: 001.029
ItalicAngle: 0
UnderlinePosition: -100
UnderlineWidth: 50
Ascent: 756
Descent: 244
InvalidEm: 0
sfntRevision: 0x0001076d
LayerCount: 2
Layer: 0 1 "Back" 1
Layer: 1 1 "Fore" 0
XUID: [1021 266 980596578 8442363]
StyleMap: 0x0040
FSType: 8
OS2Version: 3
OS2_WeightWidthSlopeOnly: 0
OS2_UseTypoMetrics: 0
CreationTime: 1398769087
ModificationTime: 1717538314
PfmFamily: 81
TTFWeight: 600
TTFWidth: 5
LineGap: 200
VLineGap: 0
Panose: 0 0 5 0 0 0 0 0 0 0
OS2TypoAscent: 756
OS2TypoAOffset: 0
OS2TypoDescent: -244
OS2TypoDOffset: 0
OS2TypoLinegap: 200
OS2WinAscent: 918
OS2WinAOffset: 0
OS2WinDescent: 244
OS2WinDOffset: 0
HheadAscent: 756
HheadAOffset: 0
HheadDescent: -244
HheadDOffset: 0
OS2SubXSize: 650
OS2SubYSize: 600
OS2SubXOff: 0
OS2SubYOff: 75
OS2SupXSize: 650
OS2SupYSize: 600
OS2SupXOff: 0
OS2SupYOff: 350
OS2StrikeYSize: 50
OS2StrikeYPos: 310
OS2CapHeight: 708
OS2XHeight: 518
OS2Vendor: 'FBRC'
OS2CodePages: 20000087.00000000
OS2UnicodeRanges: a00002ef.4000204a.00000000.00000000
Lookup: 1 0 0 "'aalt' Access All Alternates lookup 0" { "'aalt' Access All Alternates lookup 0 subtable"  } ['aalt' ('DFLT' <'dflt' > 'cyrl' <'BGR ' 'dflt' > 'grek' <'dflt' > 'latn' <'AZE ' 'CAT ' 'CRT ' 'KAZ ' 'MOL ' 'ROM ' 'TAT ' 'TRK ' 'dflt' > ) ]
Lookup: 1 0 0 "'locl' Localized Forms in Cyrillic lookup 1" { "'locl' Localized Forms in Cyrillic lookup 1 subtable"  } ['locl' ('cyrl' <'BGR ' > ) ]
Lookup: 1 0 0 "'locl' Localized Forms in Latin lookup 2" { "'locl' Localized Forms in Latin lookup 2 subtable"  } ['locl' ('latn' <'AZE ' > ) ]
Lookup: 1 0 0 "'locl' Localized Forms in Latin lookup 3" { "'locl' Localized Forms in Latin lookup 3 subtable"  } ['locl' ('latn' <'TRK ' > ) ]

StartChar: .notdef
Encoding: 65536 -1 0
Width: 588
GlyphClass: 1
Flags: W
LayerCount: 2
Fore
SplineSet
542 0 m 1,0,-1
 24 0 l 1,1,-1
 24 700 l 1,2,-1
 542 700 l 1,3,-1
 542 0 l 1,0,-1
395 594 m 1,4,-1
 172 594 l 1,5,-1
 284 430 l 1,6,-1
 395 594 l 1,4,-1
237 351 m 1,7,8
 227 366 227 366 217.5 379.5 c 128,-1,9
 208 393 208 393 196.5 410.5 c 128,-1,10
 185 428 185 428 169.5 451.5 c 128,-1,11
 154 475 154 475 131 510 c 1,12,-1
 131 194 l 1,13,-1
 237 351 l 1,7,8
435 510 m 1,14,15
 412 475 412 475 396.5 451.5 c 128,-1,16
 381 428 381 428 369.5 410.5 c 128,-1,17
 358 393 358 393 348.5 379.5 c 128,-1,18
 339 366 339 366 329 351 c 1,19,-1
 435 194 l 1,20,-1
 435 510 l 1,14,15
395 107 m 1,21,22
 389 114 389 114 382.5 123.5 c 128,-1,23
 376 133 376 133 364 150.5 c 128,-1,24
 352 168 352 168 333 196.5 c 128,-1,25
 314 225 314 225 284 271 c 1,26,-1
 172 107 l 1,27,-1
 395 107 l 1,21,22
EndSplineSet
EndChar

StartChar: A
Encoding: 65 65 1
Width: 630
GlyphClass: 2
Flags: W
LayerCount: 2
Fore
SplineSet
631 0 m 1,0,-1
 510 0 l 1,1,-1
 441 184 l 1,2,-1
 187 184 l 1,3,-1
 123 0 l 1,4,-1
 -1 0 l 1,5,-1
 254 708 l 1,6,-1
 375 708 l 1,7,-1
 631 0 l 1,0,-1
312 591 m 1,8,-1
 283 477 l 1,9,-1
 226 300 l 1,10,-1
 401 300 l 1,11,-1
 343 479 l 1,12,-1
 316 591 l 1,13,-1
 312 591 l 1,8,-1
EndSplineSet
Substitution2: "Single Substitution lookup 27 subtable" ordfeminine
Substitution2: "'aalt' Access All Alternates lookup 0 subtable" ordfeminine
Position2: "'cpsp' Capital Spacing in Latin lookup 3 subtable" dx=5 dy=0 dh=10 dv=0
Position2: "'cpsp' Capital Spacing in Cyrillic lookup 2 subtable" dx=5 dy=0 dh=10 dv=0
Position2: "'cpsp' Capital Spacing in Greek lookup 1 subtable" dx=5 dy=0 dh=10 dv=0
Position2: "'cpsp' Capital Spacing lookup 0 subtable" dx=5 dy=0 dh=10 dv=0
EndChar

StartChar: Aacute
Encoding: 193 193 2
Width: 630
GlyphClass: 2
Flags: W
LayerCount: 2
Fore
SplineSet
356 756 m 1,0,-1
 242 756 l 1,1,-1
 333 907 l 1,2,-1
 474 907 l 1,3,-1
 356 756 l 1,0,-1
631 0 m 1,4,-1
 510 0 l 1,5,-1
 441 184 l 1,6,-1
 187 184 l 1,7,-1
 123 0 l 1,8,-1
 -1 0 l 1,9,-1
 254 708 l 1,10,-1
 375 708 l 1,11,-1
 631 0 l 1,4,-1
312 591 m 1,12,-1
 283 477 l 1,13,-1
 226 300 l 1,14,-1
 401 300 l 1,15,-1
 343 479 l 1,16,-1
 316 591 l 1,17,-1
 312 591 l 1,12,-1
EndSplineSet
Position2: "'cpsp' Capital Spacing in Latin lookup 3 subtable" dx=5 dy=0 dh=10 dv=0
Position2: "'cpsp' Capital Spacing in Cyrillic lookup 2 subtable" dx=5 dy=0 dh=10 dv=0
Position2: "'cpsp' Capital Spacing in Greek lookup 1 subtable" dx=5 dy=0 dh=10 dv=0
Position2: "'cpsp' Capital Spacing lookup 0 subtable" dx=5 dy=0 dh=10 dv=0
EndChar

StartChar: Abreve
Encoding: 258 258 3
Width: 630
GlyphClass: 2
Flags: W
LayerCount: 2
Fore
SplineSet
468 907 m 1,0,1
 468 834 468 834 427.5 793.5 c 128,-1,2
 387 753 387 753 315 753 c 256,3,4
 243 753 243 753 203 793.5 c 128,-1,5
 163 834 163 834 163 907 c 1,6,-1
 261 907 l 1,7,8
 261 880 261 880 275 864.5 c 128,-1,9
 289 849 289 849 315 849 c 256,10,11
 341 849 341 849 356 864.5 c 128,-1,12
 371 880 371 880 371 907 c 1,13,-1
 468 907 l 1,0,1
631 0 m 1,14,-1
 510 0 l 1,15,-1
 441 184 l 1,16,-1
 187 184 l 1,17,-1
 123 0 l 1,18,-1
 -1 0 l 1,19,-1
 254 708 l 1,20,-1
 375 708 l 1,21,-1
 631 0 l 1,14,-1
312 591 m 1,22,-1
 283 477 l 1,23,-1
 226 300 l 1,24,-1
 401 300 l 1,25,-1
 343 479 l 1,26,-1
 316 591 l 1,27,-1
 312 591 l 1,22,-1
EndSplineSet
Position2: "'cpsp' Capital Spacing in Latin lookup 3 subtable" dx=5 dy=0 dh=10 dv=0
Position2: "'cpsp' Capital Spacing in Cyrillic lookup 2 subtable" dx=5 dy=0 dh=10 dv=0
Position2: "'cpsp' Capital Spacing in Greek lookup 1 subtable" dx=5 dy=0 dh=10 dv=0
Position2: "'cpsp' Capital Spacing lookup 0 subtable" dx=5 dy=0 dh=10 dv=0
EndChar

StartChar: Acircumflex
Encoding: 194 194 4
Width: 630
GlyphClass: 2
Flags: W
LayerCount: 2
Fore
SplineSet
492 756 m 1,0,-1
 367 756 l 1,1,-1
 313 816 l 1,2,-1
 262 756 l 1,3,-1
 135 756 l 1,4,-1
 273 907 l 1,5,-1
 354 907 l 1,6,-1
 492 756 l 1,0,-1
631 0 m 1,7,-1
 510 0 l 1,8,-1
 441 184 l 1,9,-1
 187 184 l 1,10,-1
 123 0 l 1,11,-1
 -1 0 l 1,12,-1
 254 708 l 1,13,-1
 375 708 l 1,14,-1
 631 0 l 1,7,-1
312 591 m 1,15,-1
 283 477 l 1,16,-1
 226 300 l 1,17,-1
 401 300 l 1,18,-1
 343 479 l 1,19,-1
 316 591 l 1,20,-1
 312 591 l 1,15,-1
EndSplineSet
Position2: "'cpsp' Capital Spacing in Latin lookup 3 subtable" dx=5 dy=0 dh=10 dv=0
Position2: "'cpsp' Capital Spacing in Cyrillic lookup 2 subtable" dx=5 dy=0 dh=10 dv=0
Position2: "'cpsp' Capital Spacing in Greek lookup 1 subtable" dx=5 dy=0 dh=10 dv=0
Position2: "'cpsp' Capital Spacing lookup 0 subtable" dx=5 dy=0 dh=10 dv=0
EndChar

StartChar: Adieresis
Encoding: 196 196 5
Width: 630
GlyphClass: 2
Flags: W
LayerCount: 2
Fore
SplineSet
138 831 m 0,0,1
 138 860 138 860 157 879 c 128,-1,2
 176 898 176 898 204 898 c 256,3,4
 232 898 232 898 251 879 c 128,-1,5
 270 860 270 860 270 831 c 0,6,7
 270 803 270 803 251 784 c 128,-1,8
 232 765 232 765 204 765 c 256,9,10
 176 765 176 765 157 784 c 128,-1,11
 138 803 138 803 138 831 c 0,0,1
359 831 m 0,12,13
 359 860 359 860 377.5 879 c 128,-1,14
 396 898 396 898 425 898 c 256,15,16
 454 898 454 898 473 879 c 128,-1,17
 492 860 492 860 492 831 c 0,18,19
 492 803 492 803 473 784 c 128,-1,20
 454 765 454 765 425 765 c 256,21,22
 396 765 396 765 377.5 784 c 128,-1,23
 359 803 359 803 359 831 c 0,12,13
631 0 m 1,24,-1
 510 0 l 1,25,-1
 441 184 l 1,26,-1
 187 184 l 1,27,-1
 123 0 l 1,28,-1
 -1 0 l 1,29,-1
 254 708 l 1,30,-1
 375 708 l 1,31,-1
 631 0 l 1,24,-1
312 591 m 1,32,-1
 283 477 l 1,33,-1
 226 300 l 1,34,-1
 401 300 l 1,35,-1
 343 479 l 1,36,-1
 316 591 l 1,37,-1
 312 591 l 1,32,-1
EndSplineSet
Position2: "'cpsp' Capital Spacing in Latin lookup 3 subtable" dx=5 dy=0 dh=10 dv=0
Position2: "'cpsp' Capital Spacing in Cyrillic lookup 2 subtable" dx=5 dy=0 dh=10 dv=0
Position2: "'cpsp' Capital Spacing in Greek lookup 1 subtable" dx=5 dy=0 dh=10 dv=0
Position2: "'cpsp' Capital Spacing lookup 0 subtable" dx=5 dy=0 dh=10 dv=0
EndChar

StartChar: Agrave
Encoding: 192 192 6
Width: 630
GlyphClass: 2
Flags: W
LayerCount: 2
Fore
SplineSet
284 756 m 1,0,-1
 166 907 l 1,1,-1
 307 907 l 1,2,-1
 398 756 l 1,3,-1
 284 756 l 1,0,-1
631 0 m 1,4,-1
 510 0 l 1,5,-1
 441 184 l 1,6,-1
 187 184 l 1,7,-1
 123 0 l 1,8,-1
 -1 0 l 1,9,-1
 254 708 l 1,10,-1
 375 708 l 1,11,-1
 631 0 l 1,4,-1
312 591 m 1,12,-1
 283 477 l 1,13,-1
 226 300 l 1,14,-1
 401 300 l 1,15,-1
 343 479 l 1,16,-1
 316 591 l 1,17,-1
 312 591 l 1,12,-1
EndSplineSet
Position2: "'cpsp' Capital Spacing in Latin lookup 3 subtable" dx=5 dy=0 dh=10 dv=0
Position2: "'cpsp' Capital Spacing in Cyrillic lookup 2 subtable" dx=5 dy=0 dh=10 dv=0
Position2: "'cpsp' Capital Spacing in Greek lookup 1 subtable" dx=5 dy=0 dh=10 dv=0
Position2: "'cpsp' Capital Spacing lookup 0 subtable" dx=5 dy=0 dh=10 dv=0
EndChar

StartChar: Amacron
Encoding: 256 256 7
Width: 630
GlyphClass: 2
Flags: W
LayerCount: 2
Fore
SplineSet
168 892 m 1,0,-1
 461 892 l 1,1,-1
 461 791 l 1,2,-1
 168 791 l 1,3,-1
 168 892 l 1,0,-1
631 0 m 1,4,-1
 510 0 l 1,5,-1
 441 184 l 1,6,-1
 187 184 l 1,7,-1
 123 0 l 1,8,-1
 -1 0 l 1,9,-1
 254 708 l 1,10,-1
 375 708 l 1,11,-1
 631 0 l 1,4,-1
312 591 m 1,12,-1
 283 477 l 1,13,-1
 226 300 l 1,14,-1
 401 300 l 1,15,-1
 343 479 l 1,16,-1
 316 591 l 1,17,-1
 312 591 l 1,12,-1
EndSplineSet
Position2: "'cpsp' Capital Spacing in Latin lookup 3 subtable" dx=5 dy=0 dh=10 dv=0
Position2: "'cpsp' Capital Spacing in Cyrillic lookup 2 subtable" dx=5 dy=0 dh=10 dv=0
Position2: "'cpsp' Capital Spacing in Greek lookup 1 subtable" dx=5 dy=0 dh=10 dv=0
Position2: "'cpsp' Capital Spacing lookup 0 subtable" dx=5 dy=0 dh=10 dv=0
EndChar

StartChar: Aogonek
Encoding: 260 260 8
Width: 628
GlyphClass: 2
Flags: W
LayerCount: 2
Fore
SplineSet
677 -195 m 1,0,1
 651 -218 651 -218 621 -231 c 128,-1,2
 591 -244 591 -244 562 -244 c 0,3,4
 516 -244 516 -244 490 -219.5 c 128,-1,5
 464 -195 464 -195 464 -147 c 0,6,7
 464 -108 464 -108 485.5 -69 c 128,-1,8
 507 -30 507 -30 541 0 c 1,9,-1
 509 0 l 1,10,-1
 440 184 l 1,11,-1
 186 184 l 1,12,-1
 122 0 l 1,13,-1
 -2 0 l 1,14,-1
 253 708 l 1,15,-1
 374 708 l 1,16,-1
 630 0 l 1,17,18
 598 -24 598 -24 583 -53.5 c 128,-1,19
 568 -83 568 -83 569.5 -105 c 128,-1,20
 571 -127 571 -127 589 -135.5 c 128,-1,21
 607 -144 607 -144 642 -126 c 1,22,-1
 677 -195 l 1,0,1
342 479 m 1,23,-1
 320 591 l 1,24,-1
 306 591 l 1,25,-1
 282 477 l 1,26,-1
 225 300 l 1,27,-1
 400 300 l 1,28,-1
 342 479 l 1,23,-1
EndSplineSet
Position2: "'cpsp' Capital Spacing in Latin lookup 3 subtable" dx=5 dy=0 dh=10 dv=0
Position2: "'cpsp' Capital Spacing in Cyrillic lookup 2 subtable" dx=5 dy=0 dh=10 dv=0
Position2: "'cpsp' Capital Spacing in Greek lookup 1 subtable" dx=5 dy=0 dh=10 dv=0
Position2: "'cpsp' Capital Spacing lookup 0 subtable" dx=5 dy=0 dh=10 dv=0
EndChar

StartChar: Aring
Encoding: 197 197 9
Width: 630
GlyphClass: 2
Flags: W
LayerCount: 2
Fore
SplineSet
510 0 m 1,0,-1
 441 184 l 1,1,-1
 187 184 l 1,2,-1
 123 0 l 1,3,-1
 -1 0 l 1,4,-1
 254 707 l 1,5,6
 229 721 229 721 215.5 746.5 c 128,-1,7
 202 772 202 772 202 805 c 0,8,9
 202 856 202 856 233.5 887 c 128,-1,10
 265 918 265 918 316 918 c 256,11,12
 367 918 367 918 397 886.5 c 128,-1,13
 427 855 427 855 427 804 c 0,14,15
 427 770 427 770 413.5 745 c 128,-1,16
 400 720 400 720 376 706 c 1,17,-1
 631 0 l 1,18,-1
 510 0 l 1,0,-1
315 847 m 0,19,20
 295 847 295 847 283 835.5 c 128,-1,21
 271 824 271 824 271 804 c 0,22,23
 271 785 271 785 283 773.5 c 128,-1,24
 295 762 295 762 315 762 c 0,25,26
 334 762 334 762 345.5 773.5 c 128,-1,27
 357 785 357 785 357 804 c 0,28,29
 357 824 357 824 345.5 835.5 c 128,-1,30
 334 847 334 847 315 847 c 0,19,20
343 479 m 1,31,-1
 316 591 l 1,32,-1
 312 591 l 1,33,-1
 283 477 l 1,34,-1
 226 300 l 1,35,-1
 401 300 l 1,36,-1
 343 479 l 1,31,-1
EndSplineSet
Position2: "'cpsp' Capital Spacing in Latin lookup 3 subtable" dx=5 dy=0 dh=10 dv=0
Position2: "'cpsp' Capital Spacing in Cyrillic lookup 2 subtable" dx=5 dy=0 dh=10 dv=0
Position2: "'cpsp' Capital Spacing in Greek lookup 1 subtable" dx=5 dy=0 dh=10 dv=0
Position2: "'cpsp' Capital Spacing lookup 0 subtable" dx=5 dy=0 dh=10 dv=0
EndChar

StartChar: Atilde
Encoding: 195 195 10
Width: 630
GlyphClass: 2
Flags: W
LayerCount: 2
Fore
SplineSet
160 798 m 1,0,1
 171 852 171 852 196.5 879.5 c 128,-1,2
 222 907 222 907 257 907 c 0,3,4
 279 907 279 907 295.5 900.5 c 128,-1,5
 312 894 312 894 325 886 c 128,-1,6
 338 878 338 878 348 871.5 c 128,-1,7
 358 865 358 865 368 865 c 0,8,9
 389 865 389 865 397 893 c 1,10,-1
 472 869 l 1,11,12
 461 815 461 815 437.5 789 c 128,-1,13
 414 763 414 763 380 763 c 0,14,15
 356 763 356 763 339 769 c 128,-1,16
 322 775 322 775 308.5 782.5 c 128,-1,17
 295 790 295 790 284.5 796.5 c 128,-1,18
 274 803 274 803 264 803 c 0,19,20
 256 803 256 803 248 796.5 c 128,-1,21
 240 790 240 790 234 771 c 1,22,-1
 160 798 l 1,0,1
631 0 m 1,23,-1
 510 0 l 1,24,-1
 441 184 l 1,25,-1
 187 184 l 1,26,-1
 123 0 l 1,27,-1
 -1 0 l 1,28,-1
 254 708 l 1,29,-1
 375 708 l 1,30,-1
 631 0 l 1,23,-1
312 591 m 1,31,-1
 283 477 l 1,32,-1
 226 300 l 1,33,-1
 401 300 l 1,34,-1
 343 479 l 1,35,-1
 316 591 l 1,36,-1
 312 591 l 1,31,-1
EndSplineSet
Position2: "'cpsp' Capital Spacing in Latin lookup 3 subtable" dx=5 dy=0 dh=10 dv=0
Position2: "'cpsp' Capital Spacing in Cyrillic lookup 2 subtable" dx=5 dy=0 dh=10 dv=0
Position2: "'cpsp' Capital Spacing in Greek lookup 1 subtable" dx=5 dy=0 dh=10 dv=0
Position2: "'cpsp' Capital Spacing lookup 0 subtable" dx=5 dy=0 dh=10 dv=0
EndChar

StartChar: AE
Encoding: 198 198 11
Width: 820
GlyphClass: 2
Flags: W
LayerCount: 2
Fore
SplineSet
504 592 m 1,0,-1
 504 411 l 1,1,-1
 752 411 l 1,2,-1
 752 296 l 1,3,-1
 504 296 l 1,4,-1
 504 114 l 1,5,-1
 779 114 l 1,6,-1
 779 0 l 1,7,-1
 391 0 l 1,8,-1
 391 215 l 1,9,-1
 227 215 l 1,10,-1
 120 0 l 1,11,-1
 -12 0 l 1,12,-1
 365 708 l 1,13,-1
 779 708 l 1,14,-1
 779 592 l 1,15,-1
 504 592 l 1,0,-1
391 459 m 1,16,-1
 398 569 l 1,17,-1
 392 569 l 1,18,-1
 355 472 l 1,19,-1
 277 324 l 1,20,-1
 391 324 l 1,21,-1
 391 459 l 1,16,-1
EndSplineSet
Position2: "'cpsp' Capital Spacing in Latin lookup 3 subtable" dx=5 dy=0 dh=10 dv=0
Position2: "'cpsp' Capital Spacing in Cyrillic lookup 2 subtable" dx=5 dy=0 dh=10 dv=0
Position2: "'cpsp' Capital Spacing in Greek lookup 1 subtable" dx=5 dy=0 dh=10 dv=0
Position2: "'cpsp' Capital Spacing lookup 0 subtable" dx=5 dy=0 dh=10 dv=0
EndChar

StartChar: B
Encoding: 66 66 12
Width: 624
GlyphClass: 2
Flags: W
LayerCount: 2
Fore
SplineSet
558 513 m 0,0,1
 558 477 558 477 543 439.5 c 128,-1,2
 528 402 528 402 493 379 c 1,3,4
 522 367 522 367 540.5 349 c 128,-1,5
 559 331 559 331 570 309 c 128,-1,6
 581 287 581 287 585.5 262.5 c 128,-1,7
 590 238 590 238 590 211 c 0,8,9
 589 152 589 152 569.5 112 c 128,-1,10
 550 72 550 72 517 47 c 128,-1,11
 484 22 484 22 439 11 c 128,-1,12
 394 0 394 0 342 0 c 2,13,-1
 67 0 l 1,14,-1
 67 708 l 1,15,-1
 343 708 l 2,16,17
 387 708 387 708 426 696 c 128,-1,18
 465 684 465 684 494.5 659.5 c 128,-1,19
 524 635 524 635 541 598.5 c 128,-1,20
 558 562 558 562 558 513 c 0,0,1
343 426 m 2,21,22
 387 426 387 426 415.5 447 c 128,-1,23
 444 468 444 468 444 517 c 0,24,25
 444 558 444 558 414.5 577.5 c 128,-1,26
 385 597 385 597 343 597 c 2,27,-1
 183 597 l 1,28,-1
 183 426 l 1,29,-1
 343 426 l 2,21,22
343 111 m 2,30,31
 400 109 400 109 437 133 c 128,-1,32
 474 157 474 157 474 215 c 256,33,34
 474 273 474 273 438.5 298 c 128,-1,35
 403 323 403 323 343 322 c 2,36,-1
 183 322 l 1,37,-1
 183 111 l 1,38,-1
 343 111 l 2,30,31
EndSplineSet
Position2: "'cpsp' Capital Spacing in Latin lookup 3 subtable" dx=5 dy=0 dh=10 dv=0
Position2: "'cpsp' Capital Spacing in Cyrillic lookup 2 subtable" dx=5 dy=0 dh=10 dv=0
Position2: "'cpsp' Capital Spacing in Greek lookup 1 subtable" dx=5 dy=0 dh=10 dv=0
Position2: "'cpsp' Capital Spacing lookup 0 subtable" dx=5 dy=0 dh=10 dv=0
EndChar

StartChar: C
Encoding: 67 67 13
Width: 601
GlyphClass: 2
Flags: W
LayerCount: 2
Fore
SplineSet
48 490 m 2,0,1
 48 547 48 547 71.5 589.5 c 128,-1,2
 95 632 95 632 133.5 660.5 c 128,-1,3
 172 689 172 689 221 703.5 c 128,-1,4
 270 718 270 718 322 718 c 0,5,6
 361 718 361 718 399 708 c 128,-1,7
 437 698 437 698 471.5 678 c 128,-1,8
 506 658 506 658 535 627.5 c 128,-1,9
 564 597 564 597 583 556 c 1,10,-1
 480 505 l 1,11,12
 454 553 454 553 410 577.5 c 128,-1,13
 366 602 366 602 319 602 c 0,14,15
 290 602 290 602 262 595 c 128,-1,16
 234 588 234 588 212 574 c 128,-1,17
 190 560 190 560 176.5 539 c 128,-1,18
 163 518 163 518 163 490 c 2,19,-1
 163 218 l 2,20,21
 163 190 163 190 176.5 169 c 128,-1,22
 190 148 190 148 212 134 c 128,-1,23
 234 120 234 120 262 113 c 128,-1,24
 290 106 290 106 319 106 c 0,25,26
 367 106 367 106 411 130 c 128,-1,27
 455 154 455 154 480 202 c 1,28,-1
 583 154 l 1,29,30
 563 113 563 113 534 82 c 128,-1,31
 505 51 505 51 470.5 30.5 c 128,-1,32
 436 10 436 10 397 0 c 128,-1,33
 358 -10 358 -10 319 -10 c 0,34,35
 268 -10 268 -10 219.5 4 c 128,-1,36
 171 18 171 18 133 46.5 c 128,-1,37
 95 75 95 75 71.5 118 c 128,-1,38
 48 161 48 161 48 218 c 2,39,-1
 48 490 l 2,0,1
EndSplineSet
Position2: "'cpsp' Capital Spacing in Latin lookup 3 subtable" dx=5 dy=0 dh=10 dv=0
Position2: "'cpsp' Capital Spacing in Cyrillic lookup 2 subtable" dx=5 dy=0 dh=10 dv=0
Position2: "'cpsp' Capital Spacing in Greek lookup 1 subtable" dx=5 dy=0 dh=10 dv=0
Position2: "'cpsp' Capital Spacing lookup 0 subtable" dx=5 dy=0 dh=10 dv=0
EndChar

StartChar: Cacute
Encoding: 262 262 14
Width: 601
GlyphClass: 2
Flags: W
LayerCount: 2
Fore
SplineSet
363 756 m 1,0,-1
 249 756 l 1,1,-1
 340 907 l 1,2,-1
 481 907 l 1,3,-1
 363 756 l 1,0,-1
48 490 m 2,4,5
 48 547 48 547 71.5 589.5 c 128,-1,6
 95 632 95 632 133.5 660.5 c 128,-1,7
 172 689 172 689 221 703.5 c 128,-1,8
 270 718 270 718 322 718 c 0,9,10
 361 718 361 718 399 708 c 128,-1,11
 437 698 437 698 471.5 678 c 128,-1,12
 506 658 506 658 535 627.5 c 128,-1,13
 564 597 564 597 583 556 c 1,14,-1
 480 505 l 1,15,16
 454 553 454 553 410 577.5 c 128,-1,17
 366 602 366 602 319 602 c 0,18,19
 290 602 290 602 262 595 c 128,-1,20
 234 588 234 588 212 574 c 128,-1,21
 190 560 190 560 176.5 539 c 128,-1,22
 163 518 163 518 163 490 c 2,23,-1
 163 218 l 2,24,25
 163 190 163 190 176.5 169 c 128,-1,26
 190 148 190 148 212 134 c 128,-1,27
 234 120 234 120 262 113 c 128,-1,28
 290 106 290 106 319 106 c 0,29,30
 367 106 367 106 411 130 c 128,-1,31
 455 154 455 154 480 202 c 1,32,-1
 583 154 l 1,33,34
 563 113 563 113 534 82 c 128,-1,35
 505 51 505 51 470.5 30.5 c 128,-1,36
 436 10 436 10 397 0 c 128,-1,37
 358 -10 358 -10 319 -10 c 0,38,39
 268 -10 268 -10 219.5 4 c 128,-1,40
 171 18 171 18 133 46.5 c 128,-1,41
 95 75 95 75 71.5 118 c 128,-1,42
 48 161 48 161 48 218 c 2,43,-1
 48 490 l 2,4,5
EndSplineSet
Position2: "'cpsp' Capital Spacing in Latin lookup 3 subtable" dx=5 dy=0 dh=10 dv=0
Position2: "'cpsp' Capital Spacing in Cyrillic lookup 2 subtable" dx=5 dy=0 dh=10 dv=0
Position2: "'cpsp' Capital Spacing in Greek lookup 1 subtable" dx=5 dy=0 dh=10 dv=0
Position2: "'cpsp' Capital Spacing lookup 0 subtable" dx=5 dy=0 dh=10 dv=0
EndChar

StartChar: Ccaron
Encoding: 268 268 15
Width: 601
GlyphClass: 2
Flags: W
LayerCount: 2
Fore
SplineSet
270 907 m 1,0,-1
 321 851 l 1,1,-1
 375 907 l 1,2,-1
 500 907 l 1,3,-1
 362 756 l 1,4,-1
 281 756 l 1,5,-1
 143 907 l 1,6,-1
 270 907 l 1,0,-1
48 490 m 2,7,8
 48 547 48 547 71.5 589.5 c 128,-1,9
 95 632 95 632 133.5 660.5 c 128,-1,10
 172 689 172 689 221 703.5 c 128,-1,11
 270 718 270 718 322 718 c 0,12,13
 361 718 361 718 399 708 c 128,-1,14
 437 698 437 698 471.5 678 c 128,-1,15
 506 658 506 658 535 627.5 c 128,-1,16
 564 597 564 597 583 556 c 1,17,-1
 480 505 l 1,18,19
 454 553 454 553 410 577.5 c 128,-1,20
 366 602 366 602 319 602 c 0,21,22
 290 602 290 602 262 595 c 128,-1,23
 234 588 234 588 212 574 c 128,-1,24
 190 560 190 560 176.5 539 c 128,-1,25
 163 518 163 518 163 490 c 2,26,-1
 163 218 l 2,27,28
 163 190 163 190 176.5 169 c 128,-1,29
 190 148 190 148 212 134 c 128,-1,30
 234 120 234 120 262 113 c 128,-1,31
 290 106 290 106 319 106 c 0,32,33
 367 106 367 106 411 130 c 128,-1,34
 455 154 455 154 480 202 c 1,35,-1
 583 154 l 1,36,37
 563 113 563 113 534 82 c 128,-1,38
 505 51 505 51 470.5 30.5 c 128,-1,39
 436 10 436 10 397 0 c 128,-1,40
 358 -10 358 -10 319 -10 c 0,41,42
 268 -10 268 -10 219.5 4 c 128,-1,43
 171 18 171 18 133 46.5 c 128,-1,44
 95 75 95 75 71.5 118 c 128,-1,45
 48 161 48 161 48 218 c 2,46,-1
 48 490 l 2,7,8
EndSplineSet
Position2: "'cpsp' Capital Spacing in Latin lookup 3 subtable" dx=5 dy=0 dh=10 dv=0
Position2: "'cpsp' Capital Spacing in Cyrillic lookup 2 subtable" dx=5 dy=0 dh=10 dv=0
Position2: "'cpsp' Capital Spacing in Greek lookup 1 subtable" dx=5 dy=0 dh=10 dv=0
Position2: "'cpsp' Capital Spacing lookup 0 subtable" dx=5 dy=0 dh=10 dv=0
EndChar

StartChar: Ccedilla
Encoding: 199 199 16
Width: 601
GlyphClass: 2
Flags: W
LayerCount: 2
Fore
SplineSet
319 106 m 0,0,1
 367 106 367 106 411 130 c 128,-1,2
 455 154 455 154 480 202 c 1,3,-1
 583 154 l 1,4,5
 551 86 551 86 494 46 c 128,-1,6
 437 6 437 6 373 -5 c 1,7,-1
 351 -53 l 1,8,9
 400 -70 400 -70 414.5 -104.5 c 128,-1,10
 429 -139 429 -139 415 -179 c 0,11,12
 402 -215 402 -215 369.5 -229.5 c 128,-1,13
 337 -244 337 -244 296 -244 c 0,14,15
 274 -244 274 -244 247 -237 c 128,-1,16
 220 -230 220 -230 188 -211 c 1,17,-1
 213 -144 l 1,18,19
 241 -161 241 -161 263 -163.5 c 128,-1,20
 285 -166 285 -166 298.5 -160 c 128,-1,21
 312 -154 312 -154 316 -142.5 c 128,-1,22
 320 -131 320 -131 313.5 -120 c 128,-1,23
 307 -109 307 -109 289 -101 c 128,-1,24
 271 -93 271 -93 239 -94 c 1,25,-1
 277 -8 l 1,26,27
 232 -2 232 -2 190.5 14.5 c 128,-1,28
 149 31 149 31 117.5 59.5 c 128,-1,29
 86 88 86 88 67 127.5 c 128,-1,30
 48 167 48 167 48 218 c 2,31,-1
 48 490 l 2,32,33
 48 547 48 547 71.5 589.5 c 128,-1,34
 95 632 95 632 133.5 660.5 c 128,-1,35
 172 689 172 689 221 703.5 c 128,-1,36
 270 718 270 718 322 718 c 0,37,38
 361 718 361 718 399 708 c 128,-1,39
 437 698 437 698 471.5 678 c 128,-1,40
 506 658 506 658 535 627.5 c 128,-1,41
 564 597 564 597 583 556 c 1,42,-1
 480 505 l 1,43,44
 454 553 454 553 410 577.5 c 128,-1,45
 366 602 366 602 319 602 c 0,46,47
 290 602 290 602 262 595 c 128,-1,48
 234 588 234 588 212 574 c 128,-1,49
 190 560 190 560 176.5 539 c 128,-1,50
 163 518 163 518 163 490 c 2,51,-1
 163 218 l 2,52,53
 163 190 163 190 176.5 169 c 128,-1,54
 190 148 190 148 212 134 c 128,-1,55
 234 120 234 120 262 113 c 128,-1,56
 290 106 290 106 319 106 c 0,0,1
EndSplineSet
Position2: "'cpsp' Capital Spacing in Latin lookup 3 subtable" dx=5 dy=0 dh=10 dv=0
Position2: "'cpsp' Capital Spacing in Cyrillic lookup 2 subtable" dx=5 dy=0 dh=10 dv=0
Position2: "'cpsp' Capital Spacing in Greek lookup 1 subtable" dx=5 dy=0 dh=10 dv=0
Position2: "'cpsp' Capital Spacing lookup 0 subtable" dx=5 dy=0 dh=10 dv=0
EndChar

StartChar: Cdotaccent
Encoding: 266 266 17
Width: 601
GlyphClass: 2
Flags: W
LayerCount: 2
Fore
SplineSet
246 831 m 256,0,1
 246 863 246 863 268 884.5 c 128,-1,2
 290 906 290 906 322 906 c 256,3,4
 354 906 354 906 375.5 884.5 c 128,-1,5
 397 863 397 863 397 831 c 256,6,7
 397 799 397 799 375.5 777 c 128,-1,8
 354 755 354 755 322 755 c 256,9,10
 290 755 290 755 268 777 c 128,-1,11
 246 799 246 799 246 831 c 256,0,1
48 490 m 2,12,13
 48 547 48 547 71.5 589.5 c 128,-1,14
 95 632 95 632 133.5 660.5 c 128,-1,15
 172 689 172 689 221 703.5 c 128,-1,16
 270 718 270 718 322 718 c 0,17,18
 361 718 361 718 399 708 c 128,-1,19
 437 698 437 698 471.5 678 c 128,-1,20
 506 658 506 658 535 627.5 c 128,-1,21
 564 597 564 597 583 556 c 1,22,-1
 480 505 l 1,23,24
 454 553 454 553 410 577.5 c 128,-1,25
 366 602 366 602 319 602 c 0,26,27
 290 602 290 602 262 595 c 128,-1,28
 234 588 234 588 212 574 c 128,-1,29
 190 560 190 560 176.5 539 c 128,-1,30
 163 518 163 518 163 490 c 2,31,-1
 163 218 l 2,32,33
 163 190 163 190 176.5 169 c 128,-1,34
 190 148 190 148 212 134 c 128,-1,35
 234 120 234 120 262 113 c 128,-1,36
 290 106 290 106 319 106 c 0,37,38
 367 106 367 106 411 130 c 128,-1,39
 455 154 455 154 480 202 c 1,40,-1
 583 154 l 1,41,42
 563 113 563 113 534 82 c 128,-1,43
 505 51 505 51 470.5 30.5 c 128,-1,44
 436 10 436 10 397 0 c 128,-1,45
 358 -10 358 -10 319 -10 c 0,46,47
 268 -10 268 -10 219.5 4 c 128,-1,48
 171 18 171 18 133 46.5 c 128,-1,49
 95 75 95 75 71.5 118 c 128,-1,50
 48 161 48 161 48 218 c 2,51,-1
 48 490 l 2,12,13
EndSplineSet
Position2: "'cpsp' Capital Spacing in Latin lookup 3 subtable" dx=5 dy=0 dh=10 dv=0
Position2: "'cpsp' Capital Spacing in Cyrillic lookup 2 subtable" dx=5 dy=0 dh=10 dv=0
Position2: "'cpsp' Capital Spacing in Greek lookup 1 subtable" dx=5 dy=0 dh=10 dv=0
Position2: "'cpsp' Capital Spacing lookup 0 subtable" dx=5 dy=0 dh=10 dv=0
EndChar

StartChar: D
Encoding: 68 68 18
Width: 635
GlyphClass: 2
Flags: W
LayerCount: 2
Fore
SplineSet
321 708 m 2,0,1
 373 708 373 708 420.5 695 c 128,-1,2
 468 682 468 682 505 654.5 c 128,-1,3
 542 627 542 627 564 585 c 128,-1,4
 586 543 586 543 586 485 c 2,5,-1
 586 219 l 2,6,7
 586 161 586 161 564 119.5 c 128,-1,8
 542 78 542 78 505 51.5 c 128,-1,9
 468 25 468 25 420.5 12.5 c 128,-1,10
 373 0 373 0 321 0 c 2,11,-1
 67 0 l 1,12,-1
 67 708 l 1,13,-1
 321 708 l 2,0,1
321 116 m 2,14,15
 351 116 351 116 378 121.5 c 128,-1,16
 405 127 405 127 425.5 139.5 c 128,-1,17
 446 152 446 152 458 171.5 c 128,-1,18
 470 191 470 191 470 219 c 2,19,-1
 470 485 l 2,20,21
 470 513 470 513 458 533.5 c 128,-1,22
 446 554 446 554 425.5 567 c 128,-1,23
 405 580 405 580 378 586 c 128,-1,24
 351 592 351 592 321 592 c 2,25,-1
 182 592 l 1,26,-1
 182 116 l 1,27,-1
 321 116 l 2,14,15
EndSplineSet
Position2: "'cpsp' Capital Spacing in Latin lookup 3 subtable" dx=5 dy=0 dh=10 dv=0
Position2: "'cpsp' Capital Spacing in Cyrillic lookup 2 subtable" dx=5 dy=0 dh=10 dv=0
Position2: "'cpsp' Capital Spacing in Greek lookup 1 subtable" dx=5 dy=0 dh=10 dv=0
Position2: "'cpsp' Capital Spacing lookup 0 subtable" dx=5 dy=0 dh=10 dv=0
EndChar

StartChar: Eth
Encoding: 208 208 19
Width: 641
GlyphClass: 2
Flags: W
LayerCount: 2
Fore
SplineSet
73 708 m 1,0,-1
 339 708 l 2,1,2
 390 708 390 708 436 695.5 c 128,-1,3
 482 683 482 683 516.5 656 c 128,-1,4
 551 629 551 629 571.5 587.5 c 128,-1,5
 592 546 592 546 592 488 c 2,6,-1
 592 219 l 2,7,8
 592 161 592 161 571.5 119.5 c 128,-1,9
 551 78 551 78 516.5 51.5 c 128,-1,10
 482 25 482 25 436 12.5 c 128,-1,11
 390 0 390 0 339 0 c 2,12,-1
 73 0 l 1,13,-1
 73 302 l 1,14,-1
 16 302 l 1,15,-1
 16 397 l 1,16,-1
 73 397 l 1,17,-1
 73 708 l 1,0,-1
339 116 m 2,18,19
 369 116 369 116 394 121.5 c 128,-1,20
 419 127 419 127 437.5 139.5 c 128,-1,21
 456 152 456 152 466.5 171.5 c 128,-1,22
 477 191 477 191 477 219 c 2,23,-1
 477 488 l 2,24,25
 477 516 477 516 466.5 536 c 128,-1,26
 456 556 456 556 437.5 568.5 c 128,-1,27
 419 581 419 581 394 586.5 c 128,-1,28
 369 592 369 592 339 592 c 2,29,-1
 189 592 l 1,30,-1
 189 397 l 1,31,-1
 303 397 l 1,32,-1
 303 302 l 1,33,-1
 189 302 l 1,34,-1
 189 116 l 1,35,-1
 339 116 l 2,18,19
EndSplineSet
Position2: "'cpsp' Capital Spacing in Latin lookup 3 subtable" dx=5 dy=0 dh=10 dv=0
Position2: "'cpsp' Capital Spacing in Cyrillic lookup 2 subtable" dx=5 dy=0 dh=10 dv=0
Position2: "'cpsp' Capital Spacing in Greek lookup 1 subtable" dx=5 dy=0 dh=10 dv=0
Position2: "'cpsp' Capital Spacing lookup 0 subtable" dx=5 dy=0 dh=10 dv=0
EndChar

StartChar: Dcaron
Encoding: 270 270 20
Width: 635
GlyphClass: 2
Flags: W
LayerCount: 2
Fore
SplineSet
249 907 m 1,0,-1
 300 851 l 1,1,-1
 354 907 l 1,2,-1
 479 907 l 1,3,-1
 341 756 l 1,4,-1
 260 756 l 1,5,-1
 122 907 l 1,6,-1
 249 907 l 1,0,-1
321 708 m 2,7,8
 373 708 373 708 420.5 695 c 128,-1,9
 468 682 468 682 505 654.5 c 128,-1,10
 542 627 542 627 564 585 c 128,-1,11
 586 543 586 543 586 485 c 2,12,-1
 586 219 l 2,13,14
 586 161 586 161 564 119.5 c 128,-1,15
 542 78 542 78 505 51.5 c 128,-1,16
 468 25 468 25 420.5 12.5 c 128,-1,17
 373 0 373 0 321 0 c 2,18,-1
 67 0 l 1,19,-1
 67 708 l 1,20,-1
 321 708 l 2,7,8
321 116 m 2,21,22
 351 116 351 116 378 121.5 c 128,-1,23
 405 127 405 127 425.5 139.5 c 128,-1,24
 446 152 446 152 458 171.5 c 128,-1,25
 470 191 470 191 470 219 c 2,26,-1
 470 485 l 2,27,28
 470 513 470 513 458 533.5 c 128,-1,29
 446 554 446 554 425.5 567 c 128,-1,30
 405 580 405 580 378 586 c 128,-1,31
 351 592 351 592 321 592 c 2,32,-1
 182 592 l 1,33,-1
 182 116 l 1,34,-1
 321 116 l 2,21,22
EndSplineSet
Position2: "'cpsp' Capital Spacing in Latin lookup 3 subtable" dx=5 dy=0 dh=10 dv=0
Position2: "'cpsp' Capital Spacing in Cyrillic lookup 2 subtable" dx=5 dy=0 dh=10 dv=0
Position2: "'cpsp' Capital Spacing in Greek lookup 1 subtable" dx=5 dy=0 dh=10 dv=0
Position2: "'cpsp' Capital Spacing lookup 0 subtable" dx=5 dy=0 dh=10 dv=0
EndChar

StartChar: Dcroat
Encoding: 272 272 21
Width: 641
GlyphClass: 2
Flags: W
LayerCount: 2
Fore
SplineSet
73 708 m 1,0,-1
 339 708 l 2,1,2
 390 708 390 708 436 695.5 c 128,-1,3
 482 683 482 683 516.5 656 c 128,-1,4
 551 629 551 629 571.5 587.5 c 128,-1,5
 592 546 592 546 592 488 c 2,6,-1
 592 219 l 2,7,8
 592 161 592 161 571.5 119.5 c 128,-1,9
 551 78 551 78 516.5 51.5 c 128,-1,10
 482 25 482 25 436 12.5 c 128,-1,11
 390 0 390 0 339 0 c 2,12,-1
 73 0 l 1,13,-1
 73 302 l 1,14,-1
 16 302 l 1,15,-1
 16 397 l 1,16,-1
 73 397 l 1,17,-1
 73 708 l 1,0,-1
339 116 m 2,18,19
 369 116 369 116 394 121.5 c 128,-1,20
 419 127 419 127 437.5 139.5 c 128,-1,21
 456 152 456 152 466.5 171.5 c 128,-1,22
 477 191 477 191 477 219 c 2,23,-1
 477 488 l 2,24,25
 477 516 477 516 466.5 536 c 128,-1,26
 456 556 456 556 437.5 568.5 c 128,-1,27
 419 581 419 581 394 586.5 c 128,-1,28
 369 592 369 592 339 592 c 2,29,-1
 189 592 l 1,30,-1
 189 397 l 1,31,-1
 303 397 l 1,32,-1
 303 302 l 1,33,-1
 189 302 l 1,34,-1
 189 116 l 1,35,-1
 339 116 l 2,18,19
EndSplineSet
Position2: "'cpsp' Capital Spacing in Latin lookup 3 subtable" dx=5 dy=0 dh=10 dv=0
Position2: "'cpsp' Capital Spacing in Cyrillic lookup 2 subtable" dx=5 dy=0 dh=10 dv=0
Position2: "'cpsp' Capital Spacing in Greek lookup 1 subtable" dx=5 dy=0 dh=10 dv=0
Position2: "'cpsp' Capital Spacing lookup 0 subtable" dx=5 dy=0 dh=10 dv=0
EndChar

StartChar: E
Encoding: 69 69 22
Width: 576
GlyphClass: 2
Flags: W
LayerCount: 2
Fore
SplineSet
183 412 m 1,0,-1
 506 412 l 1,1,-1
 506 296 l 1,2,-1
 183 296 l 1,3,-1
 183 116 l 1,4,-1
 534 116 l 1,5,-1
 534 0 l 1,6,-1
 67 0 l 1,7,-1
 67 709 l 1,8,-1
 534 709 l 1,9,-1
 534 593 l 1,10,-1
 183 593 l 1,11,-1
 183 412 l 1,0,-1
EndSplineSet
Position2: "'cpsp' Capital Spacing in Latin lookup 3 subtable" dx=5 dy=0 dh=10 dv=0
Position2: "'cpsp' Capital Spacing in Cyrillic lookup 2 subtable" dx=5 dy=0 dh=10 dv=0
Position2: "'cpsp' Capital Spacing in Greek lookup 1 subtable" dx=5 dy=0 dh=10 dv=0
Position2: "'cpsp' Capital Spacing lookup 0 subtable" dx=5 dy=0 dh=10 dv=0
EndChar

StartChar: Eacute
Encoding: 201 201 23
Width: 576
GlyphClass: 2
Flags: W
LayerCount: 2
Fore
SplineSet
352 756 m 1,0,-1
 238 756 l 1,1,-1
 329 907 l 1,2,-1
 470 907 l 1,3,-1
 352 756 l 1,0,-1
183 412 m 1,4,-1
 506 412 l 1,5,-1
 506 296 l 1,6,-1
 183 296 l 1,7,-1
 183 116 l 1,8,-1
 534 116 l 1,9,-1
 534 0 l 1,10,-1
 67 0 l 1,11,-1
 67 709 l 1,12,-1
 534 709 l 1,13,-1
 534 593 l 1,14,-1
 183 593 l 1,15,-1
 183 412 l 1,4,-1
EndSplineSet
Position2: "'cpsp' Capital Spacing in Latin lookup 3 subtable" dx=5 dy=0 dh=10 dv=0
Position2: "'cpsp' Capital Spacing in Cyrillic lookup 2 subtable" dx=5 dy=0 dh=10 dv=0
Position2: "'cpsp' Capital Spacing in Greek lookup 1 subtable" dx=5 dy=0 dh=10 dv=0
Position2: "'cpsp' Capital Spacing lookup 0 subtable" dx=5 dy=0 dh=10 dv=0
EndChar

StartChar: Ecaron
Encoding: 282 282 24
Width: 576
GlyphClass: 2
Flags: W
LayerCount: 2
Fore
SplineSet
259 907 m 1,0,-1
 310 851 l 1,1,-1
 364 907 l 1,2,-1
 489 907 l 1,3,-1
 351 756 l 1,4,-1
 270 756 l 1,5,-1
 132 907 l 1,6,-1
 259 907 l 1,0,-1
183 412 m 1,7,-1
 506 412 l 1,8,-1
 506 296 l 1,9,-1
 183 296 l 1,10,-1
 183 116 l 1,11,-1
 534 116 l 1,12,-1
 534 0 l 1,13,-1
 67 0 l 1,14,-1
 67 709 l 1,15,-1
 534 709 l 1,16,-1
 534 593 l 1,17,-1
 183 593 l 1,18,-1
 183 412 l 1,7,-1
EndSplineSet
Position2: "'cpsp' Capital Spacing in Latin lookup 3 subtable" dx=5 dy=0 dh=10 dv=0
Position2: "'cpsp' Capital Spacing in Cyrillic lookup 2 subtable" dx=5 dy=0 dh=10 dv=0
Position2: "'cpsp' Capital Spacing in Greek lookup 1 subtable" dx=5 dy=0 dh=10 dv=0
Position2: "'cpsp' Capital Spacing lookup 0 subtable" dx=5 dy=0 dh=10 dv=0
EndChar

StartChar: Ecircumflex
Encoding: 202 202 25
Width: 576
GlyphClass: 2
Flags: W
LayerCount: 2
Fore
SplineSet
488 756 m 1,0,-1
 363 756 l 1,1,-1
 309 816 l 1,2,-1
 258 756 l 1,3,-1
 131 756 l 1,4,-1
 269 907 l 1,5,-1
 350 907 l 1,6,-1
 488 756 l 1,0,-1
183 412 m 1,7,-1
 506 412 l 1,8,-1
 506 296 l 1,9,-1
 183 296 l 1,10,-1
 183 116 l 1,11,-1
 534 116 l 1,12,-1
 534 0 l 1,13,-1
 67 0 l 1,14,-1
 67 709 l 1,15,-1
 534 709 l 1,16,-1
 534 593 l 1,17,-1
 183 593 l 1,18,-1
 183 412 l 1,7,-1
EndSplineSet
Position2: "'cpsp' Capital Spacing in Latin lookup 3 subtable" dx=5 dy=0 dh=10 dv=0
Position2: "'cpsp' Capital Spacing in Cyrillic lookup 2 subtable" dx=5 dy=0 dh=10 dv=0
Position2: "'cpsp' Capital Spacing in Greek lookup 1 subtable" dx=5 dy=0 dh=10 dv=0
Position2: "'cpsp' Capital Spacing lookup 0 subtable" dx=5 dy=0 dh=10 dv=0
EndChar

StartChar: Edieresis
Encoding: 203 203 26
Width: 576
GlyphClass: 2
Flags: W
LayerCount: 2
Fore
SplineSet
134 831 m 0,0,1
 134 860 134 860 153 879 c 128,-1,2
 172 898 172 898 200 898 c 256,3,4
 228 898 228 898 247 879 c 128,-1,5
 266 860 266 860 266 831 c 0,6,7
 266 803 266 803 247 784 c 128,-1,8
 228 765 228 765 200 765 c 256,9,10
 172 765 172 765 153 784 c 128,-1,11
 134 803 134 803 134 831 c 0,0,1
355 831 m 0,12,13
 355 860 355 860 373.5 879 c 128,-1,14
 392 898 392 898 421 898 c 256,15,16
 450 898 450 898 469 879 c 128,-1,17
 488 860 488 860 488 831 c 0,18,19
 488 803 488 803 469 784 c 128,-1,20
 450 765 450 765 421 765 c 256,21,22
 392 765 392 765 373.5 784 c 128,-1,23
 355 803 355 803 355 831 c 0,12,13
183 412 m 1,24,-1
 506 412 l 1,25,-1
 506 296 l 1,26,-1
 183 296 l 1,27,-1
 183 116 l 1,28,-1
 534 116 l 1,29,-1
 534 0 l 1,30,-1
 67 0 l 1,31,-1
 67 709 l 1,32,-1
 534 709 l 1,33,-1
 534 593 l 1,34,-1
 183 593 l 1,35,-1
 183 412 l 1,24,-1
EndSplineSet
Position2: "'cpsp' Capital Spacing in Latin lookup 3 subtable" dx=5 dy=0 dh=10 dv=0
Position2: "'cpsp' Capital Spacing in Cyrillic lookup 2 subtable" dx=5 dy=0 dh=10 dv=0
Position2: "'cpsp' Capital Spacing in Greek lookup 1 subtable" dx=5 dy=0 dh=10 dv=0
Position2: "'cpsp' Capital Spacing lookup 0 subtable" dx=5 dy=0 dh=10 dv=0
EndChar

StartChar: Edotaccent
Encoding: 278 278 27
Width: 576
GlyphClass: 2
Flags: W
LayerCount: 2
Fore
SplineSet
235 831 m 256,0,1
 235 863 235 863 257 884.5 c 128,-1,2
 279 906 279 906 311 906 c 256,3,4
 343 906 343 906 364.5 884.5 c 128,-1,5
 386 863 386 863 386 831 c 256,6,7
 386 799 386 799 364.5 777 c 128,-1,8
 343 755 343 755 311 755 c 256,9,10
 279 755 279 755 257 777 c 128,-1,11
 235 799 235 799 235 831 c 256,0,1
183 412 m 1,12,-1
 506 412 l 1,13,-1
 506 296 l 1,14,-1
 183 296 l 1,15,-1
 183 116 l 1,16,-1
 534 116 l 1,17,-1
 534 0 l 1,18,-1
 67 0 l 1,19,-1
 67 709 l 1,20,-1
 534 709 l 1,21,-1
 534 593 l 1,22,-1
 183 593 l 1,23,-1
 183 412 l 1,12,-1
EndSplineSet
Position2: "'cpsp' Capital Spacing in Latin lookup 3 subtable" dx=5 dy=0 dh=10 dv=0
Position2: "'cpsp' Capital Spacing in Cyrillic lookup 2 subtable" dx=5 dy=0 dh=10 dv=0
Position2: "'cpsp' Capital Spacing in Greek lookup 1 subtable" dx=5 dy=0 dh=10 dv=0
Position2: "'cpsp' Capital Spacing lookup 0 subtable" dx=5 dy=0 dh=10 dv=0
EndChar

StartChar: Egrave
Encoding: 200 200 28
Width: 576
GlyphClass: 2
Flags: W
LayerCount: 2
Fore
SplineSet
280 756 m 1,0,-1
 162 907 l 1,1,-1
 303 907 l 1,2,-1
 394 756 l 1,3,-1
 280 756 l 1,0,-1
183 412 m 1,4,-1
 506 412 l 1,5,-1
 506 296 l 1,6,-1
 183 296 l 1,7,-1
 183 116 l 1,8,-1
 534 116 l 1,9,-1
 534 0 l 1,10,-1
 67 0 l 1,11,-1
 67 709 l 1,12,-1
 534 709 l 1,13,-1
 534 593 l 1,14,-1
 183 593 l 1,15,-1
 183 412 l 1,4,-1
EndSplineSet
Position2: "'cpsp' Capital Spacing in Latin lookup 3 subtable" dx=5 dy=0 dh=10 dv=0
Position2: "'cpsp' Capital Spacing in Cyrillic lookup 2 subtable" dx=5 dy=0 dh=10 dv=0
Position2: "'cpsp' Capital Spacing in Greek lookup 1 subtable" dx=5 dy=0 dh=10 dv=0
Position2: "'cpsp' Capital Spacing lookup 0 subtable" dx=5 dy=0 dh=10 dv=0
EndChar

StartChar: Emacron
Encoding: 274 274 29
Width: 576
GlyphClass: 2
Flags: W
LayerCount: 2
Fore
SplineSet
164 892 m 1,0,-1
 457 892 l 1,1,-1
 457 791 l 1,2,-1
 164 791 l 1,3,-1
 164 892 l 1,0,-1
183 412 m 1,4,-1
 506 412 l 1,5,-1
 506 296 l 1,6,-1
 183 296 l 1,7,-1
 183 116 l 1,8,-1
 534 116 l 1,9,-1
 534 0 l 1,10,-1
 67 0 l 1,11,-1
 67 709 l 1,12,-1
 534 709 l 1,13,-1
 534 593 l 1,14,-1
 183 593 l 1,15,-1
 183 412 l 1,4,-1
EndSplineSet
Position2: "'cpsp' Capital Spacing in Latin lookup 3 subtable" dx=5 dy=0 dh=10 dv=0
Position2: "'cpsp' Capital Spacing in Cyrillic lookup 2 subtable" dx=5 dy=0 dh=10 dv=0
Position2: "'cpsp' Capital Spacing in Greek lookup 1 subtable" dx=5 dy=0 dh=10 dv=0
Position2: "'cpsp' Capital Spacing lookup 0 subtable" dx=5 dy=0 dh=10 dv=0
EndChar

StartChar: Eogonek
Encoding: 280 280 30
Width: 575
GlyphClass: 2
Flags: W
LayerCount: 2
Fore
SplineSet
574 -195 m 1,0,1
 548 -218 548 -218 521 -231 c 128,-1,2
 494 -244 494 -244 465 -244 c 0,3,4
 419 -244 419 -244 393 -219.5 c 128,-1,5
 367 -195 367 -195 367 -147 c 0,6,7
 367 -108 367 -108 388.5 -69 c 128,-1,8
 410 -30 410 -30 444 0 c 1,9,-1
 66 0 l 1,10,-1
 66 709 l 1,11,-1
 533 709 l 1,12,-1
 533 593 l 1,13,-1
 182 593 l 1,14,-1
 182 412 l 1,15,-1
 505 412 l 1,16,-1
 505 296 l 1,17,-1
 182 296 l 1,18,-1
 182 116 l 1,19,-1
 533 116 l 1,20,-1
 533 0 l 1,21,22
 501 -24 501 -24 485.5 -53.5 c 128,-1,23
 470 -83 470 -83 471 -104.5 c 128,-1,24
 472 -126 472 -126 488 -134 c 128,-1,25
 504 -142 504 -142 535 -124 c 1,26,-1
 574 -195 l 1,0,1
EndSplineSet
Position2: "'cpsp' Capital Spacing in Latin lookup 3 subtable" dx=5 dy=0 dh=10 dv=0
Position2: "'cpsp' Capital Spacing in Cyrillic lookup 2 subtable" dx=5 dy=0 dh=10 dv=0
Position2: "'cpsp' Capital Spacing in Greek lookup 1 subtable" dx=5 dy=0 dh=10 dv=0
Position2: "'cpsp' Capital Spacing lookup 0 subtable" dx=5 dy=0 dh=10 dv=0
EndChar

StartChar: F
Encoding: 70 70 31
Width: 562
GlyphClass: 2
Flags: W
LayerCount: 2
Fore
SplineSet
183 393 m 1,0,-1
 490 393 l 1,1,-1
 490 277 l 1,2,-1
 183 277 l 1,3,-1
 183 0 l 1,4,-1
 67 0 l 1,5,-1
 67 708 l 1,6,-1
 533 708 l 1,7,-1
 533 592 l 1,8,-1
 183 592 l 1,9,-1
 183 393 l 1,0,-1
EndSplineSet
Position2: "'cpsp' Capital Spacing in Latin lookup 3 subtable" dx=5 dy=0 dh=10 dv=0
Position2: "'cpsp' Capital Spacing in Cyrillic lookup 2 subtable" dx=5 dy=0 dh=10 dv=0
Position2: "'cpsp' Capital Spacing in Greek lookup 1 subtable" dx=5 dy=0 dh=10 dv=0
Position2: "'cpsp' Capital Spacing lookup 0 subtable" dx=5 dy=0 dh=10 dv=0
EndChar

StartChar: G
Encoding: 71 71 32
Width: 632
GlyphClass: 2
Flags: W
LayerCount: 2
Fore
SplineSet
48 491 m 2,0,1
 48 548 48 548 71.5 590.5 c 128,-1,2
 95 633 95 633 133 661.5 c 128,-1,3
 171 690 171 690 220 704 c 128,-1,4
 269 718 269 718 320 718 c 0,5,6
 359 718 359 718 396.5 709 c 128,-1,7
 434 700 434 700 468 681.5 c 128,-1,8
 502 663 502 663 530 633.5 c 128,-1,9
 558 604 558 604 578 563 c 1,10,-1
 474 513 l 1,11,12
 451 560 451 560 407.5 581 c 128,-1,13
 364 602 364 602 318 602 c 0,14,15
 289 602 289 602 261 595 c 128,-1,16
 233 588 233 588 211.5 574 c 128,-1,17
 190 560 190 560 176.5 539 c 128,-1,18
 163 518 163 518 163 490 c 2,19,-1
 163 220 l 2,20,21
 163 191 163 191 176.5 169.5 c 128,-1,22
 190 148 190 148 212 134 c 128,-1,23
 234 120 234 120 262.5 113 c 128,-1,24
 291 106 291 106 320 106 c 0,25,26
 350 106 350 106 378.5 113 c 128,-1,27
 407 120 407 120 429.5 134 c 128,-1,28
 452 148 452 148 465.5 169.5 c 128,-1,29
 479 191 479 191 479 220 c 2,30,-1
 479 276 l 1,31,-1
 280 276 l 1,32,-1
 280 387 l 1,33,-1
 594 387 l 1,34,-1
 594 220 l 2,35,36
 594 162 594 162 570.5 118.5 c 128,-1,37
 547 75 547 75 508.5 46.5 c 128,-1,38
 470 18 470 18 421 4 c 128,-1,39
 372 -10 372 -10 320 -10 c 0,40,41
 269 -10 269 -10 220 4 c 128,-1,42
 171 18 171 18 132.5 46.5 c 128,-1,43
 94 75 94 75 71 118.5 c 128,-1,44
 48 162 48 162 48 220 c 2,45,-1
 48 491 l 2,0,1
EndSplineSet
Position2: "'cpsp' Capital Spacing in Latin lookup 3 subtable" dx=5 dy=0 dh=10 dv=0
Position2: "'cpsp' Capital Spacing in Cyrillic lookup 2 subtable" dx=5 dy=0 dh=10 dv=0
Position2: "'cpsp' Capital Spacing in Greek lookup 1 subtable" dx=5 dy=0 dh=10 dv=0
Position2: "'cpsp' Capital Spacing lookup 0 subtable" dx=5 dy=0 dh=10 dv=0
EndChar

StartChar: Gbreve
Encoding: 286 286 33
Width: 632
GlyphClass: 2
Flags: W
LayerCount: 2
Fore
SplineSet
473 907 m 1,0,1
 473 834 473 834 432.5 793.5 c 128,-1,2
 392 753 392 753 320 753 c 256,3,4
 248 753 248 753 208 793.5 c 128,-1,5
 168 834 168 834 168 907 c 1,6,-1
 266 907 l 1,7,8
 266 880 266 880 280 864.5 c 128,-1,9
 294 849 294 849 320 849 c 256,10,11
 346 849 346 849 361 864.5 c 128,-1,12
 376 880 376 880 376 907 c 1,13,-1
 473 907 l 1,0,1
48 491 m 2,14,15
 48 548 48 548 71.5 590.5 c 128,-1,16
 95 633 95 633 133 661.5 c 128,-1,17
 171 690 171 690 220 704 c 128,-1,18
 269 718 269 718 320 718 c 0,19,20
 359 718 359 718 396.5 709 c 128,-1,21
 434 700 434 700 468 681.5 c 128,-1,22
 502 663 502 663 530 633.5 c 128,-1,23
 558 604 558 604 578 563 c 1,24,-1
 474 513 l 1,25,26
 451 560 451 560 407.5 581 c 128,-1,27
 364 602 364 602 318 602 c 0,28,29
 289 602 289 602 261 595 c 128,-1,30
 233 588 233 588 211.5 574 c 128,-1,31
 190 560 190 560 176.5 539 c 128,-1,32
 163 518 163 518 163 490 c 2,33,-1
 163 220 l 2,34,35
 163 191 163 191 176.5 169.5 c 128,-1,36
 190 148 190 148 212 134 c 128,-1,37
 234 120 234 120 262.5 113 c 128,-1,38
 291 106 291 106 320 106 c 0,39,40
 350 106 350 106 378.5 113 c 128,-1,41
 407 120 407 120 429.5 134 c 128,-1,42
 452 148 452 148 465.5 169.5 c 128,-1,43
 479 191 479 191 479 220 c 2,44,-1
 479 276 l 1,45,-1
 280 276 l 1,46,-1
 280 387 l 1,47,-1
 594 387 l 1,48,-1
 594 220 l 2,49,50
 594 162 594 162 570.5 118.5 c 128,-1,51
 547 75 547 75 508.5 46.5 c 128,-1,52
 470 18 470 18 421 4 c 128,-1,53
 372 -10 372 -10 320 -10 c 0,54,55
 269 -10 269 -10 220 4 c 128,-1,56
 171 18 171 18 132.5 46.5 c 128,-1,57
 94 75 94 75 71 118.5 c 128,-1,58
 48 162 48 162 48 220 c 2,59,-1
 48 491 l 2,14,15
EndSplineSet
Position2: "'cpsp' Capital Spacing in Latin lookup 3 subtable" dx=5 dy=0 dh=10 dv=0
Position2: "'cpsp' Capital Spacing in Cyrillic lookup 2 subtable" dx=5 dy=0 dh=10 dv=0
Position2: "'cpsp' Capital Spacing in Greek lookup 1 subtable" dx=5 dy=0 dh=10 dv=0
Position2: "'cpsp' Capital Spacing lookup 0 subtable" dx=5 dy=0 dh=10 dv=0
EndChar

StartChar: Gcommaaccent
Encoding: 290 290 34
Width: 632
GlyphClass: 2
Flags: W
LayerCount: 2
Fore
SplineSet
48 491 m 2,0,1
 48 548 48 548 71.5 590.5 c 128,-1,2
 95 633 95 633 133 661.5 c 128,-1,3
 171 690 171 690 220 704 c 128,-1,4
 269 718 269 718 320 718 c 0,5,6
 359 718 359 718 396.5 709 c 128,-1,7
 434 700 434 700 468 681.5 c 128,-1,8
 502 663 502 663 530 633.5 c 128,-1,9
 558 604 558 604 578 563 c 1,10,-1
 474 513 l 1,11,12
 451 560 451 560 407.5 581 c 128,-1,13
 364 602 364 602 318 602 c 0,14,15
 289 602 289 602 261 595 c 128,-1,16
 233 588 233 588 211.5 574 c 128,-1,17
 190 560 190 560 176.5 539 c 128,-1,18
 163 518 163 518 163 490 c 2,19,-1
 163 220 l 2,20,21
 163 191 163 191 176.5 169.5 c 128,-1,22
 190 148 190 148 212 134 c 128,-1,23
 234 120 234 120 262.5 113 c 128,-1,24
 291 106 291 106 320 106 c 0,25,26
 350 106 350 106 378.5 113 c 128,-1,27
 407 120 407 120 429.5 134 c 128,-1,28
 452 148 452 148 465.5 169.5 c 128,-1,29
 479 191 479 191 479 220 c 2,30,-1
 479 276 l 1,31,-1
 280 276 l 1,32,-1
 280 387 l 1,33,-1
 594 387 l 1,34,-1
 594 220 l 2,35,36
 594 162 594 162 570.5 118.5 c 128,-1,37
 547 75 547 75 508.5 46.5 c 128,-1,38
 470 18 470 18 421 4 c 128,-1,39
 372 -10 372 -10 320 -10 c 0,40,41
 269 -10 269 -10 220 4 c 128,-1,42
 171 18 171 18 132.5 46.5 c 128,-1,43
 94 75 94 75 71 118.5 c 128,-1,44
 48 162 48 162 48 220 c 2,45,-1
 48 491 l 2,0,1
334 -244 m 1,46,-1
 222 -244 l 1,47,-1
 269 -61 l 1,48,-1
 394 -61 l 1,49,-1
 334 -244 l 1,46,-1
EndSplineSet
Position2: "'cpsp' Capital Spacing in Latin lookup 3 subtable" dx=5 dy=0 dh=10 dv=0
Position2: "'cpsp' Capital Spacing in Cyrillic lookup 2 subtable" dx=5 dy=0 dh=10 dv=0
Position2: "'cpsp' Capital Spacing in Greek lookup 1 subtable" dx=5 dy=0 dh=10 dv=0
Position2: "'cpsp' Capital Spacing lookup 0 subtable" dx=5 dy=0 dh=10 dv=0
EndChar

StartChar: Gdotaccent
Encoding: 288 288 35
Width: 632
GlyphClass: 2
Flags: W
LayerCount: 2
Fore
SplineSet
244 831 m 256,0,1
 244 863 244 863 266 884.5 c 128,-1,2
 288 906 288 906 320 906 c 256,3,4
 352 906 352 906 373.5 884.5 c 128,-1,5
 395 863 395 863 395 831 c 256,6,7
 395 799 395 799 373.5 777 c 128,-1,8
 352 755 352 755 320 755 c 256,9,10
 288 755 288 755 266 777 c 128,-1,11
 244 799 244 799 244 831 c 256,0,1
48 491 m 2,12,13
 48 548 48 548 71.5 590.5 c 128,-1,14
 95 633 95 633 133 661.5 c 128,-1,15
 171 690 171 690 220 704 c 128,-1,16
 269 718 269 718 320 718 c 0,17,18
 359 718 359 718 396.5 709 c 128,-1,19
 434 700 434 700 468 681.5 c 128,-1,20
 502 663 502 663 530 633.5 c 128,-1,21
 558 604 558 604 578 563 c 1,22,-1
 474 513 l 1,23,24
 451 560 451 560 407.5 581 c 128,-1,25
 364 602 364 602 318 602 c 0,26,27
 289 602 289 602 261 595 c 128,-1,28
 233 588 233 588 211.5 574 c 128,-1,29
 190 560 190 560 176.5 539 c 128,-1,30
 163 518 163 518 163 490 c 2,31,-1
 163 220 l 2,32,33
 163 191 163 191 176.5 169.5 c 128,-1,34
 190 148 190 148 212 134 c 128,-1,35
 234 120 234 120 262.5 113 c 128,-1,36
 291 106 291 106 320 106 c 0,37,38
 350 106 350 106 378.5 113 c 128,-1,39
 407 120 407 120 429.5 134 c 128,-1,40
 452 148 452 148 465.5 169.5 c 128,-1,41
 479 191 479 191 479 220 c 2,42,-1
 479 276 l 1,43,-1
 280 276 l 1,44,-1
 280 387 l 1,45,-1
 594 387 l 1,46,-1
 594 220 l 2,47,48
 594 162 594 162 570.5 118.5 c 128,-1,49
 547 75 547 75 508.5 46.5 c 128,-1,50
 470 18 470 18 421 4 c 128,-1,51
 372 -10 372 -10 320 -10 c 0,52,53
 269 -10 269 -10 220 4 c 128,-1,54
 171 18 171 18 132.5 46.5 c 128,-1,55
 94 75 94 75 71 118.5 c 128,-1,56
 48 162 48 162 48 220 c 2,57,-1
 48 491 l 2,12,13
EndSplineSet
Position2: "'cpsp' Capital Spacing in Latin lookup 3 subtable" dx=5 dy=0 dh=10 dv=0
Position2: "'cpsp' Capital Spacing in Cyrillic lookup 2 subtable" dx=5 dy=0 dh=10 dv=0
Position2: "'cpsp' Capital Spacing in Greek lookup 1 subtable" dx=5 dy=0 dh=10 dv=0
Position2: "'cpsp' Capital Spacing lookup 0 subtable" dx=5 dy=0 dh=10 dv=0
EndChar

StartChar: H
Encoding: 72 72 36
Width: 681
GlyphClass: 2
Flags: W
LayerCount: 2
Fore
SplineSet
183 0 m 1,0,-1
 67 0 l 1,1,-1
 67 708 l 1,2,-1
 183 708 l 1,3,-1
 183 411 l 1,4,-1
 498 411 l 1,5,-1
 498 708 l 1,6,-1
 614 708 l 1,7,-1
 614 0 l 1,8,-1
 498 0 l 1,9,-1
 498 296 l 1,10,-1
 183 296 l 1,11,-1
 183 0 l 1,0,-1
EndSplineSet
Position2: "'cpsp' Capital Spacing in Latin lookup 3 subtable" dx=5 dy=0 dh=10 dv=0
Position2: "'cpsp' Capital Spacing in Cyrillic lookup 2 subtable" dx=5 dy=0 dh=10 dv=0
Position2: "'cpsp' Capital Spacing in Greek lookup 1 subtable" dx=5 dy=0 dh=10 dv=0
Position2: "'cpsp' Capital Spacing lookup 0 subtable" dx=5 dy=0 dh=10 dv=0
EndChar

StartChar: Hbar
Encoding: 294 294 37
Width: 691
GlyphClass: 2
Flags: W
LayerCount: 2
Fore
SplineSet
619 543 m 1,0,-1
 619 0 l 1,1,-1
 503 0 l 1,2,-1
 503 296 l 1,3,-1
 188 296 l 1,4,-1
 188 0 l 1,5,-1
 72 0 l 1,6,-1
 72 543 l 1,7,-1
 15 543 l 1,8,-1
 15 626 l 1,9,-1
 72 626 l 1,10,-1
 72 708 l 1,11,-1
 188 708 l 1,12,-1
 188 626 l 1,13,-1
 503 626 l 1,14,-1
 503 708 l 1,15,-1
 619 708 l 1,16,-1
 619 626 l 1,17,-1
 676 626 l 1,18,-1
 676 543 l 1,19,-1
 619 543 l 1,0,-1
188 543 m 1,20,-1
 188 411 l 1,21,-1
 503 411 l 1,22,-1
 503 543 l 1,23,-1
 188 543 l 1,20,-1
EndSplineSet
Position2: "'cpsp' Capital Spacing in Latin lookup 3 subtable" dx=5 dy=0 dh=10 dv=0
Position2: "'cpsp' Capital Spacing in Cyrillic lookup 2 subtable" dx=5 dy=0 dh=10 dv=0
Position2: "'cpsp' Capital Spacing in Greek lookup 1 subtable" dx=5 dy=0 dh=10 dv=0
Position2: "'cpsp' Capital Spacing lookup 0 subtable" dx=5 dy=0 dh=10 dv=0
EndChar

StartChar: I
Encoding: 73 73 38
Width: 250
GlyphClass: 2
Flags: W
LayerCount: 2
Fore
SplineSet
183 0 m 1,0,-1
 68 0 l 1,1,-1
 68 708 l 1,2,-1
 183 708 l 1,3,-1
 183 0 l 1,0,-1
EndSplineSet
Position2: "'cpsp' Capital Spacing in Latin lookup 3 subtable" dx=5 dy=0 dh=10 dv=0
Position2: "'cpsp' Capital Spacing in Cyrillic lookup 2 subtable" dx=5 dy=0 dh=10 dv=0
Position2: "'cpsp' Capital Spacing in Greek lookup 1 subtable" dx=5 dy=0 dh=10 dv=0
Position2: "'cpsp' Capital Spacing lookup 0 subtable" dx=5 dy=0 dh=10 dv=0
EndChar

StartChar: IJ
Encoding: 306 306 39
Width: 848
GlyphClass: 2
Flags: W
LayerCount: 2
Fore
SplineSet
183 0 m 1,0,-1
 68 0 l 1,1,-1
 68 708 l 1,2,-1
 183 708 l 1,3,-1
 183 0 l 1,0,-1
786 708 m 1,4,-1
 786 216 l 2,5,6
 786 160 786 160 763 117.5 c 128,-1,7
 740 75 740 75 703 46.5 c 128,-1,8
 666 18 666 18 618.5 4 c 128,-1,9
 571 -10 571 -10 522 -10 c 0,10,11
 478 -10 478 -10 435.5 3.5 c 128,-1,12
 393 17 393 17 357.5 44 c 128,-1,13
 322 71 322 71 296 111.5 c 128,-1,14
 270 152 270 152 260 206 c 1,15,-1
 376 225 l 1,16,17
 382 195 382 195 396.5 172 c 128,-1,18
 411 149 411 149 431.5 133.5 c 128,-1,19
 452 118 452 118 476 110.5 c 128,-1,20
 500 103 500 103 525 103 c 0,21,22
 552 103 552 103 578 110 c 128,-1,23
 604 117 604 117 624.5 131.5 c 128,-1,24
 645 146 645 146 657.5 167 c 128,-1,25
 670 188 670 188 670 216 c 2,26,-1
 670 602 l 1,27,-1
 494 602 l 1,28,-1
 494 708 l 1,29,-1
 786 708 l 1,4,-1
EndSplineSet
Position2: "'cpsp' Capital Spacing in Latin lookup 3 subtable" dx=5 dy=0 dh=10 dv=0
Position2: "'cpsp' Capital Spacing in Cyrillic lookup 2 subtable" dx=5 dy=0 dh=10 dv=0
Position2: "'cpsp' Capital Spacing in Greek lookup 1 subtable" dx=5 dy=0 dh=10 dv=0
Position2: "'cpsp' Capital Spacing lookup 0 subtable" dx=5 dy=0 dh=10 dv=0
EndChar

StartChar: Iacute
Encoding: 205 205 40
Width: 250
GlyphClass: 2
Flags: W
LayerCount: 2
Fore
SplineSet
167 756 m 1,0,-1
 53 756 l 1,1,-1
 144 907 l 1,2,-1
 285 907 l 1,3,-1
 167 756 l 1,0,-1
183 0 m 1,4,-1
 68 0 l 1,5,-1
 68 708 l 1,6,-1
 183 708 l 1,7,-1
 183 0 l 1,4,-1
EndSplineSet
Position2: "'cpsp' Capital Spacing in Latin lookup 3 subtable" dx=5 dy=0 dh=10 dv=0
Position2: "'cpsp' Capital Spacing in Cyrillic lookup 2 subtable" dx=5 dy=0 dh=10 dv=0
Position2: "'cpsp' Capital Spacing in Greek lookup 1 subtable" dx=5 dy=0 dh=10 dv=0
Position2: "'cpsp' Capital Spacing lookup 0 subtable" dx=5 dy=0 dh=10 dv=0
EndChar

StartChar: Icircumflex
Encoding: 206 206 41
Width: 250
GlyphClass: 2
Flags: W
LayerCount: 2
Fore
SplineSet
303 756 m 1,0,-1
 178 756 l 1,1,-1
 124 816 l 1,2,-1
 73 756 l 1,3,-1
 -54 756 l 1,4,-1
 84 907 l 1,5,-1
 165 907 l 1,6,-1
 303 756 l 1,0,-1
183 0 m 1,7,-1
 68 0 l 1,8,-1
 68 708 l 1,9,-1
 183 708 l 1,10,-1
 183 0 l 1,7,-1
EndSplineSet
Position2: "'cpsp' Capital Spacing in Latin lookup 3 subtable" dx=5 dy=0 dh=10 dv=0
Position2: "'cpsp' Capital Spacing in Cyrillic lookup 2 subtable" dx=5 dy=0 dh=10 dv=0
Position2: "'cpsp' Capital Spacing in Greek lookup 1 subtable" dx=5 dy=0 dh=10 dv=0
Position2: "'cpsp' Capital Spacing lookup 0 subtable" dx=5 dy=0 dh=10 dv=0
EndChar

StartChar: Idieresis
Encoding: 207 207 42
Width: 250
GlyphClass: 2
Flags: W
LayerCount: 2
Fore
SplineSet
-31 831 m 0,0,1
 -31 860 -31 860 -12 879 c 128,-1,2
 7 898 7 898 35 898 c 256,3,4
 63 898 63 898 82 879 c 128,-1,5
 101 860 101 860 101 831 c 0,6,7
 101 803 101 803 82 784 c 128,-1,8
 63 765 63 765 35 765 c 256,9,10
 7 765 7 765 -12 784 c 128,-1,11
 -31 803 -31 803 -31 831 c 0,0,1
150 831 m 0,12,13
 150 860 150 860 168.5 879 c 128,-1,14
 187 898 187 898 216 898 c 256,15,16
 245 898 245 898 264 879 c 128,-1,17
 283 860 283 860 283 831 c 0,18,19
 283 803 283 803 264 784 c 128,-1,20
 245 765 245 765 216 765 c 256,21,22
 187 765 187 765 168.5 784 c 128,-1,23
 150 803 150 803 150 831 c 0,12,13
183 0 m 1,24,-1
 68 0 l 1,25,-1
 68 708 l 1,26,-1
 183 708 l 1,27,-1
 183 0 l 1,24,-1
EndSplineSet
Position2: "'cpsp' Capital Spacing in Latin lookup 3 subtable" dx=5 dy=0 dh=10 dv=0
Position2: "'cpsp' Capital Spacing in Cyrillic lookup 2 subtable" dx=5 dy=0 dh=10 dv=0
Position2: "'cpsp' Capital Spacing in Greek lookup 1 subtable" dx=5 dy=0 dh=10 dv=0
Position2: "'cpsp' Capital Spacing lookup 0 subtable" dx=5 dy=0 dh=10 dv=0
EndChar

StartChar: Igrave
Encoding: 204 204 43
Width: 250
GlyphClass: 2
Flags: W
LayerCount: 2
Fore
SplineSet
95 756 m 1,0,-1
 -23 907 l 1,1,-1
 118 907 l 1,2,-1
 209 756 l 1,3,-1
 95 756 l 1,0,-1
183 0 m 1,4,-1
 68 0 l 1,5,-1
 68 708 l 1,6,-1
 183 708 l 1,7,-1
 183 0 l 1,4,-1
EndSplineSet
Position2: "'cpsp' Capital Spacing in Latin lookup 3 subtable" dx=5 dy=0 dh=10 dv=0
Position2: "'cpsp' Capital Spacing in Cyrillic lookup 2 subtable" dx=5 dy=0 dh=10 dv=0
Position2: "'cpsp' Capital Spacing in Greek lookup 1 subtable" dx=5 dy=0 dh=10 dv=0
Position2: "'cpsp' Capital Spacing lookup 0 subtable" dx=5 dy=0 dh=10 dv=0
EndChar

StartChar: Imacron
Encoding: 298 298 44
Width: 250
GlyphClass: 2
Flags: W
LayerCount: 2
Fore
SplineSet
-1 892 m 1,0,-1
 252 892 l 1,1,-1
 252 781 l 1,2,-1
 -1 781 l 1,3,-1
 -1 892 l 1,0,-1
183 0 m 1,4,-1
 68 0 l 1,5,-1
 68 708 l 1,6,-1
 183 708 l 1,7,-1
 183 0 l 1,4,-1
EndSplineSet
Position2: "'cpsp' Capital Spacing in Latin lookup 3 subtable" dx=5 dy=0 dh=10 dv=0
Position2: "'cpsp' Capital Spacing in Cyrillic lookup 2 subtable" dx=5 dy=0 dh=10 dv=0
Position2: "'cpsp' Capital Spacing in Greek lookup 1 subtable" dx=5 dy=0 dh=10 dv=0
Position2: "'cpsp' Capital Spacing lookup 0 subtable" dx=5 dy=0 dh=10 dv=0
EndChar

StartChar: Iogonek
Encoding: 302 302 45
Width: 249
GlyphClass: 2
Flags: W
LayerCount: 2
Fore
SplineSet
228 -195 m 1,0,1
 202 -218 202 -218 172.5 -231 c 128,-1,2
 143 -244 143 -244 114 -244 c 0,3,4
 68 -244 68 -244 42 -219.5 c 128,-1,5
 16 -195 16 -195 16 -147 c 0,6,7
 16 -108 16 -108 37.5 -69 c 128,-1,8
 59 -30 59 -30 93 0 c 1,9,-1
 67 0 l 1,10,-1
 67 708 l 1,11,-1
 182 708 l 1,12,-1
 182 0 l 1,13,14
 146 -27 146 -27 131 -56.5 c 128,-1,15
 116 -86 116 -86 118.5 -107 c 128,-1,16
 121 -128 121 -128 139.5 -135 c 128,-1,17
 158 -142 158 -142 189 -124 c 1,18,-1
 228 -195 l 1,0,1
EndSplineSet
Position2: "'cpsp' Capital Spacing in Latin lookup 3 subtable" dx=5 dy=0 dh=10 dv=0
Position2: "'cpsp' Capital Spacing in Cyrillic lookup 2 subtable" dx=5 dy=0 dh=10 dv=0
Position2: "'cpsp' Capital Spacing in Greek lookup 1 subtable" dx=5 dy=0 dh=10 dv=0
Position2: "'cpsp' Capital Spacing lookup 0 subtable" dx=5 dy=0 dh=10 dv=0
EndChar

StartChar: J
Encoding: 74 74 46
Width: 598
GlyphClass: 2
Flags: W
LayerCount: 2
Fore
SplineSet
536 708 m 1,0,-1
 536 216 l 2,1,2
 536 160 536 160 513 117.5 c 128,-1,3
 490 75 490 75 453 46.5 c 128,-1,4
 416 18 416 18 368.5 4 c 128,-1,5
 321 -10 321 -10 272 -10 c 0,6,7
 228 -10 228 -10 185.5 3.5 c 128,-1,8
 143 17 143 17 107.5 44 c 128,-1,9
 72 71 72 71 46 111.5 c 128,-1,10
 20 152 20 152 10 206 c 1,11,-1
 126 225 l 1,12,13
 132 195 132 195 146.5 172 c 128,-1,14
 161 149 161 149 181.5 133.5 c 128,-1,15
 202 118 202 118 226 110.5 c 128,-1,16
 250 103 250 103 275 103 c 0,17,18
 302 103 302 103 328 110 c 128,-1,19
 354 117 354 117 374.5 131.5 c 128,-1,20
 395 146 395 146 407.5 167 c 128,-1,21
 420 188 420 188 420 216 c 2,22,-1
 420 602 l 1,23,-1
 244 602 l 1,24,-1
 244 708 l 1,25,-1
 536 708 l 1,0,-1
EndSplineSet
Position2: "'cpsp' Capital Spacing in Latin lookup 3 subtable" dx=5 dy=0 dh=10 dv=0
Position2: "'cpsp' Capital Spacing in Cyrillic lookup 2 subtable" dx=5 dy=0 dh=10 dv=0
Position2: "'cpsp' Capital Spacing in Greek lookup 1 subtable" dx=5 dy=0 dh=10 dv=0
Position2: "'cpsp' Capital Spacing lookup 0 subtable" dx=5 dy=0 dh=10 dv=0
EndChar

StartChar: K
Encoding: 75 75 47
Width: 631
GlyphClass: 2
Flags: W
LayerCount: 2
Fore
SplineSet
489 708 m 1,0,-1
 632 708 l 1,1,-1
 314 366 l 1,2,-1
 634 0 l 1,3,-1
 487 0 l 1,4,-1
 232 284 l 1,5,-1
 182 234 l 1,6,-1
 182 0 l 1,7,-1
 67 0 l 1,8,-1
 67 708 l 1,9,-1
 182 708 l 1,10,-1
 182 395 l 1,11,-1
 489 708 l 1,0,-1
EndSplineSet
Position2: "'cpsp' Capital Spacing in Latin lookup 3 subtable" dx=5 dy=0 dh=10 dv=0
Position2: "'cpsp' Capital Spacing in Cyrillic lookup 2 subtable" dx=5 dy=0 dh=10 dv=0
Position2: "'cpsp' Capital Spacing in Greek lookup 1 subtable" dx=5 dy=0 dh=10 dv=0
Position2: "'cpsp' Capital Spacing lookup 0 subtable" dx=5 dy=0 dh=10 dv=0
EndChar

StartChar: Kcommaaccent
Encoding: 310 310 48
Width: 631
GlyphClass: 2
Flags: W
LayerCount: 2
Fore
SplineSet
489 708 m 1,0,-1
 632 708 l 1,1,-1
 314 366 l 1,2,-1
 634 0 l 1,3,-1
 487 0 l 1,4,-1
 232 284 l 1,5,-1
 182 234 l 1,6,-1
 182 0 l 1,7,-1
 67 0 l 1,8,-1
 67 708 l 1,9,-1
 182 708 l 1,10,-1
 182 395 l 1,11,-1
 489 708 l 1,0,-1
349 -244 m 1,12,-1
 237 -244 l 1,13,-1
 284 -61 l 1,14,-1
 409 -61 l 1,15,-1
 349 -244 l 1,12,-1
EndSplineSet
Position2: "'cpsp' Capital Spacing in Latin lookup 3 subtable" dx=5 dy=0 dh=10 dv=0
Position2: "'cpsp' Capital Spacing in Cyrillic lookup 2 subtable" dx=5 dy=0 dh=10 dv=0
Position2: "'cpsp' Capital Spacing in Greek lookup 1 subtable" dx=5 dy=0 dh=10 dv=0
Position2: "'cpsp' Capital Spacing lookup 0 subtable" dx=5 dy=0 dh=10 dv=0
EndChar

StartChar: L
Encoding: 76 76 49
Width: 519
GlyphClass: 2
Flags: W
LayerCount: 2
Fore
SplineSet
67 708 m 1,0,-1
 182 708 l 1,1,-1
 182 116 l 1,2,-1
 505 116 l 1,3,-1
 505 0 l 1,4,-1
 67 0 l 1,5,-1
 67 708 l 1,0,-1
EndSplineSet
Position2: "'cpsp' Capital Spacing in Latin lookup 3 subtable" dx=5 dy=0 dh=10 dv=0
Position2: "'cpsp' Capital Spacing in Cyrillic lookup 2 subtable" dx=5 dy=0 dh=10 dv=0
Position2: "'cpsp' Capital Spacing in Greek lookup 1 subtable" dx=5 dy=0 dh=10 dv=0
Position2: "'cpsp' Capital Spacing lookup 0 subtable" dx=5 dy=0 dh=10 dv=0
EndChar

StartChar: Lacute
Encoding: 313 313 50
Width: 519
GlyphClass: 2
Flags: W
LayerCount: 2
Fore
SplineSet
166 756 m 1,0,-1
 52 756 l 1,1,-1
 143 907 l 1,2,-1
 284 907 l 1,3,-1
 166 756 l 1,0,-1
67 708 m 1,4,-1
 182 708 l 1,5,-1
 182 116 l 1,6,-1
 505 116 l 1,7,-1
 505 0 l 1,8,-1
 67 0 l 1,9,-1
 67 708 l 1,4,-1
EndSplineSet
Position2: "'cpsp' Capital Spacing in Latin lookup 3 subtable" dx=5 dy=0 dh=10 dv=0
Position2: "'cpsp' Capital Spacing in Cyrillic lookup 2 subtable" dx=5 dy=0 dh=10 dv=0
Position2: "'cpsp' Capital Spacing in Greek lookup 1 subtable" dx=5 dy=0 dh=10 dv=0
Position2: "'cpsp' Capital Spacing lookup 0 subtable" dx=5 dy=0 dh=10 dv=0
EndChar

StartChar: Lcaron
Encoding: 317 317 51
Width: 520
GlyphClass: 2
Flags: W
LayerCount: 2
Fore
SplineSet
67 708 m 1,0,-1
 182 708 l 1,1,-1
 182 116 l 1,2,-1
 505 116 l 1,3,-1
 505 0 l 1,4,-1
 67 0 l 1,5,-1
 67 708 l 1,0,-1
391 529 m 1,6,-1
 289 529 l 1,7,-1
 336 708 l 1,8,-1
 451 708 l 1,9,-1
 391 529 l 1,6,-1
EndSplineSet
Position2: "'cpsp' Capital Spacing in Latin lookup 3 subtable" dx=5 dy=0 dh=10 dv=0
Position2: "'cpsp' Capital Spacing in Cyrillic lookup 2 subtable" dx=5 dy=0 dh=10 dv=0
Position2: "'cpsp' Capital Spacing in Greek lookup 1 subtable" dx=5 dy=0 dh=10 dv=0
Position2: "'cpsp' Capital Spacing lookup 0 subtable" dx=5 dy=0 dh=10 dv=0
EndChar

StartChar: Lcommaaccent
Encoding: 315 315 52
Width: 519
GlyphClass: 2
Flags: W
LayerCount: 2
Fore
SplineSet
67 708 m 1,0,-1
 182 708 l 1,1,-1
 182 116 l 1,2,-1
 505 116 l 1,3,-1
 505 0 l 1,4,-1
 67 0 l 1,5,-1
 67 708 l 1,0,-1
300 -244 m 1,6,-1
 188 -244 l 1,7,-1
 235 -61 l 1,8,-1
 360 -61 l 1,9,-1
 300 -244 l 1,6,-1
EndSplineSet
Position2: "'cpsp' Capital Spacing in Latin lookup 3 subtable" dx=5 dy=0 dh=10 dv=0
Position2: "'cpsp' Capital Spacing in Cyrillic lookup 2 subtable" dx=5 dy=0 dh=10 dv=0
Position2: "'cpsp' Capital Spacing in Greek lookup 1 subtable" dx=5 dy=0 dh=10 dv=0
Position2: "'cpsp' Capital Spacing lookup 0 subtable" dx=5 dy=0 dh=10 dv=0
EndChar

StartChar: Ldot
Encoding: 319 319 53
Width: 526
GlyphClass: 2
Flags: W
LayerCount: 2
Fore
SplineSet
67 708 m 1,0,-1
 182 708 l 1,1,-1
 182 116 l 1,2,-1
 505 116 l 1,3,-1
 505 0 l 1,4,-1
 67 0 l 1,5,-1
 67 708 l 1,0,-1
279 399 m 256,6,7
 279 429 279 429 299.5 450 c 128,-1,8
 320 471 320 471 351 471 c 0,9,10
 381 471 381 471 401 450 c 128,-1,11
 421 429 421 429 421 399 c 256,12,13
 421 369 421 369 401 348.5 c 128,-1,14
 381 328 381 328 351 328 c 0,15,16
 320 328 320 328 299.5 348.5 c 128,-1,17
 279 369 279 369 279 399 c 256,6,7
EndSplineSet
Ligature2: "Ligature Substitution lookup 26 subtable" L periodcentered
Position2: "'cpsp' Capital Spacing in Latin lookup 3 subtable" dx=5 dy=0 dh=10 dv=0
Position2: "'cpsp' Capital Spacing in Cyrillic lookup 2 subtable" dx=5 dy=0 dh=10 dv=0
Position2: "'cpsp' Capital Spacing in Greek lookup 1 subtable" dx=5 dy=0 dh=10 dv=0
Position2: "'cpsp' Capital Spacing lookup 0 subtable" dx=5 dy=0 dh=10 dv=0
EndChar

StartChar: Lslash
Encoding: 321 321 54
Width: 540
GlyphClass: 2
Flags: W
LayerCount: 2
Fore
SplineSet
526 0 m 1,0,-1
 88 0 l 1,1,-1
 88 227 l 1,2,-1
 50 195 l 1,3,-1
 -4 260 l 1,4,-1
 88 339 l 1,5,-1
 88 708 l 1,6,-1
 203 708 l 1,7,-1
 203 438 l 1,8,-1
 268 494 l 1,9,-1
 323 428 l 1,10,-1
 203 326 l 1,11,-1
 203 116 l 1,12,-1
 526 116 l 1,13,-1
 526 0 l 1,0,-1
EndSplineSet
Position2: "'cpsp' Capital Spacing in Latin lookup 3 subtable" dx=5 dy=0 dh=10 dv=0
Position2: "'cpsp' Capital Spacing in Cyrillic lookup 2 subtable" dx=5 dy=0 dh=10 dv=0
Position2: "'cpsp' Capital Spacing in Greek lookup 1 subtable" dx=5 dy=0 dh=10 dv=0
Position2: "'cpsp' Capital Spacing lookup 0 subtable" dx=5 dy=0 dh=10 dv=0
EndChar

StartChar: M
Encoding: 77 77 55
Width: 785
GlyphClass: 2
Flags: W
LayerCount: 2
Fore
SplineSet
67 708 m 1,0,-1
 196 708 l 1,1,-1
 391 248 l 1,2,-1
 588 708 l 1,3,-1
 718 708 l 1,4,-1
 718 0 l 1,5,-1
 602 0 l 1,6,-1
 602 325 l 1,7,-1
 624 517 l 1,8,-1
 614 517 l 1,9,-1
 554 350 l 1,10,-1
 438 98 l 1,11,-1
 347 98 l 1,12,-1
 230 350 l 1,13,-1
 171 520 l 1,14,-1
 161 520 l 1,15,-1
 182 324 l 1,16,-1
 182 0 l 1,17,-1
 67 0 l 1,18,-1
 67 708 l 1,0,-1
EndSplineSet
Position2: "'cpsp' Capital Spacing in Latin lookup 3 subtable" dx=5 dy=0 dh=10 dv=0
Position2: "'cpsp' Capital Spacing in Cyrillic lookup 2 subtable" dx=5 dy=0 dh=10 dv=0
Position2: "'cpsp' Capital Spacing in Greek lookup 1 subtable" dx=5 dy=0 dh=10 dv=0
Position2: "'cpsp' Capital Spacing lookup 0 subtable" dx=5 dy=0 dh=10 dv=0
EndChar

StartChar: N
Encoding: 78 78 56
Width: 681
GlyphClass: 2
Flags: W
LayerCount: 2
Fore
SplineSet
67 0 m 1,0,-1
 67 708 l 1,1,-1
 189 708 l 1,2,-1
 435 290 l 1,3,-1
 508 149 l 1,4,-1
 515 151 l 1,5,-1
 498 303 l 1,6,-1
 498 708 l 1,7,-1
 614 708 l 1,8,-1
 614 0 l 1,9,-1
 479 0 l 1,10,-1
 238 410 l 1,11,-1
 172 545 l 1,12,-1
 165 543 l 1,13,-1
 183 395 l 1,14,-1
 183 0 l 1,15,-1
 67 0 l 1,0,-1
EndSplineSet
Position2: "'cpsp' Capital Spacing in Latin lookup 3 subtable" dx=5 dy=0 dh=10 dv=0
Position2: "'cpsp' Capital Spacing in Cyrillic lookup 2 subtable" dx=5 dy=0 dh=10 dv=0
Position2: "'cpsp' Capital Spacing in Greek lookup 1 subtable" dx=5 dy=0 dh=10 dv=0
Position2: "'cpsp' Capital Spacing lookup 0 subtable" dx=5 dy=0 dh=10 dv=0
EndChar

StartChar: Nacute
Encoding: 323 323 57
Width: 681
GlyphClass: 2
Flags: W
LayerCount: 2
Fore
SplineSet
382 756 m 1,0,-1
 268 756 l 1,1,-1
 359 907 l 1,2,-1
 500 907 l 1,3,-1
 382 756 l 1,0,-1
67 0 m 1,4,-1
 67 708 l 1,5,-1
 189 708 l 1,6,-1
 435 290 l 1,7,-1
 508 149 l 1,8,-1
 515 151 l 1,9,-1
 498 303 l 1,10,-1
 498 708 l 1,11,-1
 614 708 l 1,12,-1
 614 0 l 1,13,-1
 479 0 l 1,14,-1
 238 410 l 1,15,-1
 172 545 l 1,16,-1
 165 543 l 1,17,-1
 183 395 l 1,18,-1
 183 0 l 1,19,-1
 67 0 l 1,4,-1
EndSplineSet
Position2: "'cpsp' Capital Spacing in Latin lookup 3 subtable" dx=5 dy=0 dh=10 dv=0
Position2: "'cpsp' Capital Spacing in Cyrillic lookup 2 subtable" dx=5 dy=0 dh=10 dv=0
Position2: "'cpsp' Capital Spacing in Greek lookup 1 subtable" dx=5 dy=0 dh=10 dv=0
Position2: "'cpsp' Capital Spacing lookup 0 subtable" dx=5 dy=0 dh=10 dv=0
EndChar

StartChar: Ncaron
Encoding: 327 327 58
Width: 681
GlyphClass: 2
Flags: W
LayerCount: 2
Fore
SplineSet
289 907 m 1,0,-1
 340 851 l 1,1,-1
 394 907 l 1,2,-1
 519 907 l 1,3,-1
 381 756 l 1,4,-1
 300 756 l 1,5,-1
 162 907 l 1,6,-1
 289 907 l 1,0,-1
67 0 m 1,7,-1
 67 708 l 1,8,-1
 189 708 l 1,9,-1
 435 290 l 1,10,-1
 508 149 l 1,11,-1
 515 151 l 1,12,-1
 498 303 l 1,13,-1
 498 708 l 1,14,-1
 614 708 l 1,15,-1
 614 0 l 1,16,-1
 479 0 l 1,17,-1
 238 410 l 1,18,-1
 172 545 l 1,19,-1
 165 543 l 1,20,-1
 183 395 l 1,21,-1
 183 0 l 1,22,-1
 67 0 l 1,7,-1
EndSplineSet
Position2: "'cpsp' Capital Spacing in Latin lookup 3 subtable" dx=5 dy=0 dh=10 dv=0
Position2: "'cpsp' Capital Spacing in Cyrillic lookup 2 subtable" dx=5 dy=0 dh=10 dv=0
Position2: "'cpsp' Capital Spacing in Greek lookup 1 subtable" dx=5 dy=0 dh=10 dv=0
Position2: "'cpsp' Capital Spacing lookup 0 subtable" dx=5 dy=0 dh=10 dv=0
EndChar

StartChar: Ncommaaccent
Encoding: 325 325 59
Width: 681
GlyphClass: 2
Flags: W
LayerCount: 2
Fore
SplineSet
67 0 m 1,0,-1
 67 708 l 1,1,-1
 189 708 l 1,2,-1
 435 290 l 1,3,-1
 508 149 l 1,4,-1
 515 151 l 1,5,-1
 498 303 l 1,6,-1
 498 708 l 1,7,-1
 614 708 l 1,8,-1
 614 0 l 1,9,-1
 479 0 l 1,10,-1
 238 410 l 1,11,-1
 172 545 l 1,12,-1
 165 543 l 1,13,-1
 183 395 l 1,14,-1
 183 0 l 1,15,-1
 67 0 l 1,0,-1
355 -244 m 1,16,-1
 243 -244 l 1,17,-1
 290 -61 l 1,18,-1
 415 -61 l 1,19,-1
 355 -244 l 1,16,-1
EndSplineSet
Position2: "'cpsp' Capital Spacing in Latin lookup 3 subtable" dx=5 dy=0 dh=10 dv=0
Position2: "'cpsp' Capital Spacing in Cyrillic lookup 2 subtable" dx=5 dy=0 dh=10 dv=0
Position2: "'cpsp' Capital Spacing in Greek lookup 1 subtable" dx=5 dy=0 dh=10 dv=0
Position2: "'cpsp' Capital Spacing lookup 0 subtable" dx=5 dy=0 dh=10 dv=0
EndChar

StartChar: Eng
Encoding: 330 330 60
Width: 680
GlyphClass: 2
Flags: W
LayerCount: 2
Fore
SplineSet
613 -1 m 2,0,1
 613 -84 613 -84 570.5 -130.5 c 128,-1,2
 528 -177 528 -177 432 -177 c 1,3,-1
 432 -74 l 1,4,5
 456 -74 456 -74 470 -68.5 c 128,-1,6
 484 -63 484 -63 491.5 -53.5 c 128,-1,7
 499 -44 499 -44 501 -30.5 c 128,-1,8
 503 -17 503 -17 503 -1 c 2,9,-1
 503 0 l 1,10,-1
 478 0 l 1,11,-1
 237 410 l 1,12,-1
 171 545 l 1,13,-1
 164 543 l 1,14,-1
 182 395 l 1,15,-1
 182 0 l 1,16,-1
 66 0 l 1,17,-1
 66 708 l 1,18,-1
 188 708 l 1,19,-1
 434 290 l 1,20,-1
 507 149 l 1,21,-1
 514 151 l 1,22,-1
 497 303 l 1,23,-1
 497 708 l 1,24,-1
 613 708 l 1,25,-1
 613 -1 l 2,0,1
EndSplineSet
Position2: "'cpsp' Capital Spacing in Latin lookup 3 subtable" dx=5 dy=0 dh=10 dv=0
Position2: "'cpsp' Capital Spacing in Cyrillic lookup 2 subtable" dx=5 dy=0 dh=10 dv=0
Position2: "'cpsp' Capital Spacing in Greek lookup 1 subtable" dx=5 dy=0 dh=10 dv=0
Position2: "'cpsp' Capital Spacing lookup 0 subtable" dx=5 dy=0 dh=10 dv=0
EndChar

StartChar: Ntilde
Encoding: 209 209 61
Width: 681
GlyphClass: 2
Flags: W
LayerCount: 2
Fore
SplineSet
186 798 m 1,0,1
 197 852 197 852 222.5 879.5 c 128,-1,2
 248 907 248 907 283 907 c 0,3,4
 305 907 305 907 321.5 900.5 c 128,-1,5
 338 894 338 894 351 886 c 128,-1,6
 364 878 364 878 374 871.5 c 128,-1,7
 384 865 384 865 394 865 c 0,8,9
 415 865 415 865 423 893 c 1,10,-1
 498 869 l 1,11,12
 487 815 487 815 463.5 789 c 128,-1,13
 440 763 440 763 406 763 c 0,14,15
 382 763 382 763 365 769 c 128,-1,16
 348 775 348 775 334.5 782.5 c 128,-1,17
 321 790 321 790 310.5 796.5 c 128,-1,18
 300 803 300 803 290 803 c 0,19,20
 282 803 282 803 274 796.5 c 128,-1,21
 266 790 266 790 260 771 c 1,22,-1
 186 798 l 1,0,1
67 0 m 1,23,-1
 67 708 l 1,24,-1
 189 708 l 1,25,-1
 435 290 l 1,26,-1
 508 149 l 1,27,-1
 515 151 l 1,28,-1
 498 303 l 1,29,-1
 498 708 l 1,30,-1
 614 708 l 1,31,-1
 614 0 l 1,32,-1
 479 0 l 1,33,-1
 238 410 l 1,34,-1
 172 545 l 1,35,-1
 165 543 l 1,36,-1
 183 395 l 1,37,-1
 183 0 l 1,38,-1
 67 0 l 1,23,-1
EndSplineSet
Position2: "'cpsp' Capital Spacing in Latin lookup 3 subtable" dx=5 dy=0 dh=10 dv=0
Position2: "'cpsp' Capital Spacing in Cyrillic lookup 2 subtable" dx=5 dy=0 dh=10 dv=0
Position2: "'cpsp' Capital Spacing in Greek lookup 1 subtable" dx=5 dy=0 dh=10 dv=0
Position2: "'cpsp' Capital Spacing lookup 0 subtable" dx=5 dy=0 dh=10 dv=0
EndChar

StartChar: O
Encoding: 79 79 62
Width: 668
GlyphClass: 2
Flags: W
LayerCount: 2
Fore
SplineSet
48 489 m 2,0,1
 48 546 48 546 72.5 589 c 128,-1,2
 97 632 97 632 137 660.5 c 128,-1,3
 177 689 177 689 228.5 703.5 c 128,-1,4
 280 718 280 718 334 718 c 256,5,6
 388 718 388 718 439.5 703.5 c 128,-1,7
 491 689 491 689 531.5 660.5 c 128,-1,8
 572 632 572 632 596.5 589 c 128,-1,9
 621 546 621 546 621 489 c 2,10,-1
 621 220 l 2,11,12
 621 163 621 163 596.5 119.5 c 128,-1,13
 572 76 572 76 531.5 47.5 c 128,-1,14
 491 19 491 19 439.5 4.5 c 128,-1,15
 388 -10 388 -10 334 -10 c 256,16,17
 280 -10 280 -10 228.5 4.5 c 128,-1,18
 177 19 177 19 137 47.5 c 128,-1,19
 97 76 97 76 72.5 119.5 c 128,-1,20
 48 163 48 163 48 220 c 2,21,-1
 48 489 l 2,0,1
163 221 m 2,22,23
 163 192 163 192 177.5 170.5 c 128,-1,24
 192 149 192 149 216 135 c 128,-1,25
 240 121 240 121 271 113.5 c 128,-1,26
 302 106 302 106 334 106 c 0,27,28
 367 106 367 106 398 113.5 c 128,-1,29
 429 121 429 121 453 135 c 128,-1,30
 477 149 477 149 491.5 170.5 c 128,-1,31
 506 192 506 192 506 221 c 2,32,-1
 506 487 l 2,33,34
 506 517 506 517 491 539 c 128,-1,35
 476 561 476 561 452 575 c 128,-1,36
 428 589 428 589 397 595.5 c 128,-1,37
 366 602 366 602 334 602 c 256,38,39
 302 602 302 602 271 595 c 128,-1,40
 240 588 240 588 216 574 c 128,-1,41
 192 560 192 560 177.5 538.5 c 128,-1,42
 163 517 163 517 163 487 c 2,43,-1
 163 221 l 2,22,23
EndSplineSet
Substitution2: "Single Substitution lookup 27 subtable" ordmasculine
Substitution2: "'aalt' Access All Alternates lookup 0 subtable" ordmasculine
Position2: "'cpsp' Capital Spacing in Latin lookup 3 subtable" dx=5 dy=0 dh=10 dv=0
Position2: "'cpsp' Capital Spacing in Cyrillic lookup 2 subtable" dx=5 dy=0 dh=10 dv=0
Position2: "'cpsp' Capital Spacing in Greek lookup 1 subtable" dx=5 dy=0 dh=10 dv=0
Position2: "'cpsp' Capital Spacing lookup 0 subtable" dx=5 dy=0 dh=10 dv=0
EndChar

StartChar: Oacute
Encoding: 211 211 63
Width: 668
GlyphClass: 2
Flags: W
LayerCount: 2
Fore
SplineSet
375 756 m 1,0,-1
 261 756 l 1,1,-1
 352 907 l 1,2,-1
 493 907 l 1,3,-1
 375 756 l 1,0,-1
48 489 m 2,4,5
 48 546 48 546 72.5 589 c 128,-1,6
 97 632 97 632 137 660.5 c 128,-1,7
 177 689 177 689 228.5 703.5 c 128,-1,8
 280 718 280 718 334 718 c 256,9,10
 388 718 388 718 439.5 703.5 c 128,-1,11
 491 689 491 689 531.5 660.5 c 128,-1,12
 572 632 572 632 596.5 589 c 128,-1,13
 621 546 621 546 621 489 c 2,14,-1
 621 220 l 2,15,16
 621 163 621 163 596.5 119.5 c 128,-1,17
 572 76 572 76 531.5 47.5 c 128,-1,18
 491 19 491 19 439.5 4.5 c 128,-1,19
 388 -10 388 -10 334 -10 c 256,20,21
 280 -10 280 -10 228.5 4.5 c 128,-1,22
 177 19 177 19 137 47.5 c 128,-1,23
 97 76 97 76 72.5 119.5 c 128,-1,24
 48 163 48 163 48 220 c 2,25,-1
 48 489 l 2,4,5
163 221 m 2,26,27
 163 192 163 192 177.5 170.5 c 128,-1,28
 192 149 192 149 216 135 c 128,-1,29
 240 121 240 121 271 113.5 c 128,-1,30
 302 106 302 106 334 106 c 0,31,32
 367 106 367 106 398 113.5 c 128,-1,33
 429 121 429 121 453 135 c 128,-1,34
 477 149 477 149 491.5 170.5 c 128,-1,35
 506 192 506 192 506 221 c 2,36,-1
 506 487 l 2,37,38
 506 517 506 517 491 539 c 128,-1,39
 476 561 476 561 452 575 c 128,-1,40
 428 589 428 589 397 595.5 c 128,-1,41
 366 602 366 602 334 602 c 256,42,43
 302 602 302 602 271 595 c 128,-1,44
 240 588 240 588 216 574 c 128,-1,45
 192 560 192 560 177.5 538.5 c 128,-1,46
 163 517 163 517 163 487 c 2,47,-1
 163 221 l 2,26,27
EndSplineSet
Position2: "'cpsp' Capital Spacing in Latin lookup 3 subtable" dx=5 dy=0 dh=10 dv=0
Position2: "'cpsp' Capital Spacing in Cyrillic lookup 2 subtable" dx=5 dy=0 dh=10 dv=0
Position2: "'cpsp' Capital Spacing in Greek lookup 1 subtable" dx=5 dy=0 dh=10 dv=0
Position2: "'cpsp' Capital Spacing lookup 0 subtable" dx=5 dy=0 dh=10 dv=0
EndChar

StartChar: Ocircumflex
Encoding: 212 212 64
Width: 668
GlyphClass: 2
Flags: W
LayerCount: 2
Fore
SplineSet
511 756 m 1,0,-1
 386 756 l 1,1,-1
 332 816 l 1,2,-1
 281 756 l 1,3,-1
 154 756 l 1,4,-1
 292 907 l 1,5,-1
 373 907 l 1,6,-1
 511 756 l 1,0,-1
48 489 m 2,7,8
 48 546 48 546 72.5 589 c 128,-1,9
 97 632 97 632 137 660.5 c 128,-1,10
 177 689 177 689 228.5 703.5 c 128,-1,11
 280 718 280 718 334 718 c 256,12,13
 388 718 388 718 439.5 703.5 c 128,-1,14
 491 689 491 689 531.5 660.5 c 128,-1,15
 572 632 572 632 596.5 589 c 128,-1,16
 621 546 621 546 621 489 c 2,17,-1
 621 220 l 2,18,19
 621 163 621 163 596.5 119.5 c 128,-1,20
 572 76 572 76 531.5 47.5 c 128,-1,21
 491 19 491 19 439.5 4.5 c 128,-1,22
 388 -10 388 -10 334 -10 c 256,23,24
 280 -10 280 -10 228.5 4.5 c 128,-1,25
 177 19 177 19 137 47.5 c 128,-1,26
 97 76 97 76 72.5 119.5 c 128,-1,27
 48 163 48 163 48 220 c 2,28,-1
 48 489 l 2,7,8
163 221 m 2,29,30
 163 192 163 192 177.5 170.5 c 128,-1,31
 192 149 192 149 216 135 c 128,-1,32
 240 121 240 121 271 113.5 c 128,-1,33
 302 106 302 106 334 106 c 0,34,35
 367 106 367 106 398 113.5 c 128,-1,36
 429 121 429 121 453 135 c 128,-1,37
 477 149 477 149 491.5 170.5 c 128,-1,38
 506 192 506 192 506 221 c 2,39,-1
 506 487 l 2,40,41
 506 517 506 517 491 539 c 128,-1,42
 476 561 476 561 452 575 c 128,-1,43
 428 589 428 589 397 595.5 c 128,-1,44
 366 602 366 602 334 602 c 256,45,46
 302 602 302 602 271 595 c 128,-1,47
 240 588 240 588 216 574 c 128,-1,48
 192 560 192 560 177.5 538.5 c 128,-1,49
 163 517 163 517 163 487 c 2,50,-1
 163 221 l 2,29,30
EndSplineSet
Position2: "'cpsp' Capital Spacing in Latin lookup 3 subtable" dx=5 dy=0 dh=10 dv=0
Position2: "'cpsp' Capital Spacing in Cyrillic lookup 2 subtable" dx=5 dy=0 dh=10 dv=0
Position2: "'cpsp' Capital Spacing in Greek lookup 1 subtable" dx=5 dy=0 dh=10 dv=0
Position2: "'cpsp' Capital Spacing lookup 0 subtable" dx=5 dy=0 dh=10 dv=0
EndChar

StartChar: Odieresis
Encoding: 214 214 65
Width: 668
GlyphClass: 2
Flags: W
LayerCount: 2
Fore
SplineSet
157 831 m 0,0,1
 157 860 157 860 176 879 c 128,-1,2
 195 898 195 898 223 898 c 256,3,4
 251 898 251 898 270 879 c 128,-1,5
 289 860 289 860 289 831 c 0,6,7
 289 803 289 803 270 784 c 128,-1,8
 251 765 251 765 223 765 c 256,9,10
 195 765 195 765 176 784 c 128,-1,11
 157 803 157 803 157 831 c 0,0,1
378 831 m 0,12,13
 378 860 378 860 396.5 879 c 128,-1,14
 415 898 415 898 444 898 c 256,15,16
 473 898 473 898 492 879 c 128,-1,17
 511 860 511 860 511 831 c 0,18,19
 511 803 511 803 492 784 c 128,-1,20
 473 765 473 765 444 765 c 256,21,22
 415 765 415 765 396.5 784 c 128,-1,23
 378 803 378 803 378 831 c 0,12,13
48 489 m 2,24,25
 48 546 48 546 72.5 589 c 128,-1,26
 97 632 97 632 137 660.5 c 128,-1,27
 177 689 177 689 228.5 703.5 c 128,-1,28
 280 718 280 718 334 718 c 256,29,30
 388 718 388 718 439.5 703.5 c 128,-1,31
 491 689 491 689 531.5 660.5 c 128,-1,32
 572 632 572 632 596.5 589 c 128,-1,33
 621 546 621 546 621 489 c 2,34,-1
 621 220 l 2,35,36
 621 163 621 163 596.5 119.5 c 128,-1,37
 572 76 572 76 531.5 47.5 c 128,-1,38
 491 19 491 19 439.5 4.5 c 128,-1,39
 388 -10 388 -10 334 -10 c 256,40,41
 280 -10 280 -10 228.5 4.5 c 128,-1,42
 177 19 177 19 137 47.5 c 128,-1,43
 97 76 97 76 72.5 119.5 c 128,-1,44
 48 163 48 163 48 220 c 2,45,-1
 48 489 l 2,24,25
163 221 m 2,46,47
 163 192 163 192 177.5 170.5 c 128,-1,48
 192 149 192 149 216 135 c 128,-1,49
 240 121 240 121 271 113.5 c 128,-1,50
 302 106 302 106 334 106 c 0,51,52
 367 106 367 106 398 113.5 c 128,-1,53
 429 121 429 121 453 135 c 128,-1,54
 477 149 477 149 491.5 170.5 c 128,-1,55
 506 192 506 192 506 221 c 2,56,-1
 506 487 l 2,57,58
 506 517 506 517 491 539 c 128,-1,59
 476 561 476 561 452 575 c 128,-1,60
 428 589 428 589 397 595.5 c 128,-1,61
 366 602 366 602 334 602 c 256,62,63
 302 602 302 602 271 595 c 128,-1,64
 240 588 240 588 216 574 c 128,-1,65
 192 560 192 560 177.5 538.5 c 128,-1,66
 163 517 163 517 163 487 c 2,67,-1
 163 221 l 2,46,47
EndSplineSet
Position2: "'cpsp' Capital Spacing in Latin lookup 3 subtable" dx=5 dy=0 dh=10 dv=0
Position2: "'cpsp' Capital Spacing in Cyrillic lookup 2 subtable" dx=5 dy=0 dh=10 dv=0
Position2: "'cpsp' Capital Spacing in Greek lookup 1 subtable" dx=5 dy=0 dh=10 dv=0
Position2: "'cpsp' Capital Spacing lookup 0 subtable" dx=5 dy=0 dh=10 dv=0
EndChar

StartChar: Ograve
Encoding: 210 210 66
Width: 668
GlyphClass: 2
Flags: W
LayerCount: 2
Fore
SplineSet
303 756 m 1,0,-1
 185 907 l 1,1,-1
 326 907 l 1,2,-1
 417 756 l 1,3,-1
 303 756 l 1,0,-1
48 489 m 2,4,5
 48 546 48 546 72.5 589 c 128,-1,6
 97 632 97 632 137 660.5 c 128,-1,7
 177 689 177 689 228.5 703.5 c 128,-1,8
 280 718 280 718 334 718 c 256,9,10
 388 718 388 718 439.5 703.5 c 128,-1,11
 491 689 491 689 531.5 660.5 c 128,-1,12
 572 632 572 632 596.5 589 c 128,-1,13
 621 546 621 546 621 489 c 2,14,-1
 621 220 l 2,15,16
 621 163 621 163 596.5 119.5 c 128,-1,17
 572 76 572 76 531.5 47.5 c 128,-1,18
 491 19 491 19 439.5 4.5 c 128,-1,19
 388 -10 388 -10 334 -10 c 256,20,21
 280 -10 280 -10 228.5 4.5 c 128,-1,22
 177 19 177 19 137 47.5 c 128,-1,23
 97 76 97 76 72.5 119.5 c 128,-1,24
 48 163 48 163 48 220 c 2,25,-1
 48 489 l 2,4,5
163 221 m 2,26,27
 163 192 163 192 177.5 170.5 c 128,-1,28
 192 149 192 149 216 135 c 128,-1,29
 240 121 240 121 271 113.5 c 128,-1,30
 302 106 302 106 334 106 c 0,31,32
 367 106 367 106 398 113.5 c 128,-1,33
 429 121 429 121 453 135 c 128,-1,34
 477 149 477 149 491.5 170.5 c 128,-1,35
 506 192 506 192 506 221 c 2,36,-1
 506 487 l 2,37,38
 506 517 506 517 491 539 c 128,-1,39
 476 561 476 561 452 575 c 128,-1,40
 428 589 428 589 397 595.5 c 128,-1,41
 366 602 366 602 334 602 c 256,42,43
 302 602 302 602 271 595 c 128,-1,44
 240 588 240 588 216 574 c 128,-1,45
 192 560 192 560 177.5 538.5 c 128,-1,46
 163 517 163 517 163 487 c 2,47,-1
 163 221 l 2,26,27
EndSplineSet
Position2: "'cpsp' Capital Spacing in Latin lookup 3 subtable" dx=5 dy=0 dh=10 dv=0
Position2: "'cpsp' Capital Spacing in Cyrillic lookup 2 subtable" dx=5 dy=0 dh=10 dv=0
Position2: "'cpsp' Capital Spacing in Greek lookup 1 subtable" dx=5 dy=0 dh=10 dv=0
Position2: "'cpsp' Capital Spacing lookup 0 subtable" dx=5 dy=0 dh=10 dv=0
EndChar

StartChar: Ohungarumlaut
Encoding: 336 336 67
Width: 668
GlyphClass: 2
Flags: W
LayerCount: 2
Fore
SplineSet
281 757 m 1,0,-1
 180 757 l 1,1,-1
 239 906 l 1,2,-1
 363 906 l 1,3,-1
 281 757 l 1,0,-1
468 757 m 1,4,-1
 365 757 l 1,5,-1
 422 906 l 1,6,-1
 547 906 l 1,7,-1
 468 757 l 1,4,-1
48 489 m 2,8,9
 48 546 48 546 72.5 589 c 128,-1,10
 97 632 97 632 137 660.5 c 128,-1,11
 177 689 177 689 228.5 703.5 c 128,-1,12
 280 718 280 718 334 718 c 256,13,14
 388 718 388 718 439.5 703.5 c 128,-1,15
 491 689 491 689 531.5 660.5 c 128,-1,16
 572 632 572 632 596.5 589 c 128,-1,17
 621 546 621 546 621 489 c 2,18,-1
 621 220 l 2,19,20
 621 163 621 163 596.5 119.5 c 128,-1,21
 572 76 572 76 531.5 47.5 c 128,-1,22
 491 19 491 19 439.5 4.5 c 128,-1,23
 388 -10 388 -10 334 -10 c 256,24,25
 280 -10 280 -10 228.5 4.5 c 128,-1,26
 177 19 177 19 137 47.5 c 128,-1,27
 97 76 97 76 72.5 119.5 c 128,-1,28
 48 163 48 163 48 220 c 2,29,-1
 48 489 l 2,8,9
163 221 m 2,30,31
 163 192 163 192 177.5 170.5 c 128,-1,32
 192 149 192 149 216 135 c 128,-1,33
 240 121 240 121 271 113.5 c 128,-1,34
 302 106 302 106 334 106 c 0,35,36
 367 106 367 106 398 113.5 c 128,-1,37
 429 121 429 121 453 135 c 128,-1,38
 477 149 477 149 491.5 170.5 c 128,-1,39
 506 192 506 192 506 221 c 2,40,-1
 506 487 l 2,41,42
 506 517 506 517 491 539 c 128,-1,43
 476 561 476 561 452 575 c 128,-1,44
 428 589 428 589 397 595.5 c 128,-1,45
 366 602 366 602 334 602 c 256,46,47
 302 602 302 602 271 595 c 128,-1,48
 240 588 240 588 216 574 c 128,-1,49
 192 560 192 560 177.5 538.5 c 128,-1,50
 163 517 163 517 163 487 c 2,51,-1
 163 221 l 2,30,31
EndSplineSet
Position2: "'cpsp' Capital Spacing in Latin lookup 3 subtable" dx=5 dy=0 dh=10 dv=0
Position2: "'cpsp' Capital Spacing in Cyrillic lookup 2 subtable" dx=5 dy=0 dh=10 dv=0
Position2: "'cpsp' Capital Spacing in Greek lookup 1 subtable" dx=5 dy=0 dh=10 dv=0
Position2: "'cpsp' Capital Spacing lookup 0 subtable" dx=5 dy=0 dh=10 dv=0
EndChar

StartChar: Omacron
Encoding: 332 332 68
Width: 668
GlyphClass: 2
Flags: W
LayerCount: 2
Fore
SplineSet
187 892 m 1,0,-1
 480 892 l 1,1,-1
 480 791 l 1,2,-1
 187 791 l 1,3,-1
 187 892 l 1,0,-1
48 489 m 2,4,5
 48 546 48 546 72.5 589 c 128,-1,6
 97 632 97 632 137 660.5 c 128,-1,7
 177 689 177 689 228.5 703.5 c 128,-1,8
 280 718 280 718 334 718 c 256,9,10
 388 718 388 718 439.5 703.5 c 128,-1,11
 491 689 491 689 531.5 660.5 c 128,-1,12
 572 632 572 632 596.5 589 c 128,-1,13
 621 546 621 546 621 489 c 2,14,-1
 621 220 l 2,15,16
 621 163 621 163 596.5 119.5 c 128,-1,17
 572 76 572 76 531.5 47.5 c 128,-1,18
 491 19 491 19 439.5 4.5 c 128,-1,19
 388 -10 388 -10 334 -10 c 256,20,21
 280 -10 280 -10 228.5 4.5 c 128,-1,22
 177 19 177 19 137 47.5 c 128,-1,23
 97 76 97 76 72.5 119.5 c 128,-1,24
 48 163 48 163 48 220 c 2,25,-1
 48 489 l 2,4,5
163 221 m 2,26,27
 163 192 163 192 177.5 170.5 c 128,-1,28
 192 149 192 149 216 135 c 128,-1,29
 240 121 240 121 271 113.5 c 128,-1,30
 302 106 302 106 334 106 c 0,31,32
 367 106 367 106 398 113.5 c 128,-1,33
 429 121 429 121 453 135 c 128,-1,34
 477 149 477 149 491.5 170.5 c 128,-1,35
 506 192 506 192 506 221 c 2,36,-1
 506 487 l 2,37,38
 506 517 506 517 491 539 c 128,-1,39
 476 561 476 561 452 575 c 128,-1,40
 428 589 428 589 397 595.5 c 128,-1,41
 366 602 366 602 334 602 c 256,42,43
 302 602 302 602 271 595 c 128,-1,44
 240 588 240 588 216 574 c 128,-1,45
 192 560 192 560 177.5 538.5 c 128,-1,46
 163 517 163 517 163 487 c 2,47,-1
 163 221 l 2,26,27
EndSplineSet
Position2: "'cpsp' Capital Spacing in Latin lookup 3 subtable" dx=5 dy=0 dh=10 dv=0
Position2: "'cpsp' Capital Spacing in Cyrillic lookup 2 subtable" dx=5 dy=0 dh=10 dv=0
Position2: "'cpsp' Capital Spacing in Greek lookup 1 subtable" dx=5 dy=0 dh=10 dv=0
Position2: "'cpsp' Capital Spacing lookup 0 subtable" dx=5 dy=0 dh=10 dv=0
EndChar

StartChar: Oslash
Encoding: 216 216 69
Width: 668
GlyphClass: 2
Flags: W
LayerCount: 2
Fore
SplineSet
514 672 m 1,0,1
 562 643 562 643 591.5 597.5 c 128,-1,2
 621 552 621 552 621 489 c 2,3,-1
 621 220 l 2,4,5
 621 163 621 163 596.5 119.5 c 128,-1,6
 572 76 572 76 531.5 47.5 c 128,-1,7
 491 19 491 19 439.5 4.5 c 128,-1,8
 388 -10 388 -10 334 -10 c 0,9,10
 290 -10 290 -10 248 -1 c 1,11,-1
 211 -95 l 1,12,-1
 132 -67 l 1,13,-1
 169 28 l 1,14,15
 115 56 115 56 81.5 103.5 c 128,-1,16
 48 151 48 151 48 220 c 2,17,-1
 48 489 l 2,18,19
 48 546 48 546 72.5 589 c 128,-1,20
 97 632 97 632 137 660.5 c 128,-1,21
 177 689 177 689 228.5 703.5 c 128,-1,22
 280 718 280 718 334 718 c 256,23,24
 388 718 388 718 436 705 c 1,25,-1
 470 792 l 1,26,-1
 550 764 l 1,27,-1
 514 672 l 1,0,1
163 221 m 2,28,29
 163 193 163 193 176.5 172 c 128,-1,30
 190 151 190 151 213 137 c 1,31,-1
 394 596 l 1,32,33
 364 602 364 602 334 602 c 0,34,35
 302 602 302 602 271 595 c 128,-1,36
 240 588 240 588 216 574 c 128,-1,37
 192 560 192 560 177.5 538.5 c 128,-1,38
 163 517 163 517 163 487 c 2,39,-1
 163 221 l 2,28,29
506 487 m 2,40,41
 506 511 506 511 497 529.5 c 128,-1,42
 488 548 488 548 471 562 c 1,43,-1
 292 109 l 1,44,45
 313 106 313 106 334 106 c 0,46,47
 367 106 367 106 398 113.5 c 128,-1,48
 429 121 429 121 453 135 c 128,-1,49
 477 149 477 149 491.5 170.5 c 128,-1,50
 506 192 506 192 506 221 c 2,51,-1
 506 487 l 2,40,41
EndSplineSet
Position2: "'cpsp' Capital Spacing in Latin lookup 3 subtable" dx=5 dy=0 dh=10 dv=0
Position2: "'cpsp' Capital Spacing in Cyrillic lookup 2 subtable" dx=5 dy=0 dh=10 dv=0
Position2: "'cpsp' Capital Spacing in Greek lookup 1 subtable" dx=5 dy=0 dh=10 dv=0
Position2: "'cpsp' Capital Spacing lookup 0 subtable" dx=5 dy=0 dh=10 dv=0
EndChar

StartChar: Otilde
Encoding: 213 213 70
Width: 668
GlyphClass: 2
Flags: W
LayerCount: 2
Fore
SplineSet
179 798 m 1,0,1
 190 852 190 852 215.5 879.5 c 128,-1,2
 241 907 241 907 276 907 c 0,3,4
 298 907 298 907 314.5 900.5 c 128,-1,5
 331 894 331 894 344 886 c 128,-1,6
 357 878 357 878 367 871.5 c 128,-1,7
 377 865 377 865 387 865 c 0,8,9
 408 865 408 865 416 893 c 1,10,-1
 491 869 l 1,11,12
 480 815 480 815 456.5 789 c 128,-1,13
 433 763 433 763 399 763 c 0,14,15
 375 763 375 763 358 769 c 128,-1,16
 341 775 341 775 327.5 782.5 c 128,-1,17
 314 790 314 790 303.5 796.5 c 128,-1,18
 293 803 293 803 283 803 c 0,19,20
 275 803 275 803 267 796.5 c 128,-1,21
 259 790 259 790 253 771 c 1,22,-1
 179 798 l 1,0,1
48 489 m 2,23,24
 48 546 48 546 72.5 589 c 128,-1,25
 97 632 97 632 137 660.5 c 128,-1,26
 177 689 177 689 228.5 703.5 c 128,-1,27
 280 718 280 718 334 718 c 256,28,29
 388 718 388 718 439.5 703.5 c 128,-1,30
 491 689 491 689 531.5 660.5 c 128,-1,31
 572 632 572 632 596.5 589 c 128,-1,32
 621 546 621 546 621 489 c 2,33,-1
 621 220 l 2,34,35
 621 163 621 163 596.5 119.5 c 128,-1,36
 572 76 572 76 531.5 47.5 c 128,-1,37
 491 19 491 19 439.5 4.5 c 128,-1,38
 388 -10 388 -10 334 -10 c 256,39,40
 280 -10 280 -10 228.5 4.5 c 128,-1,41
 177 19 177 19 137 47.5 c 128,-1,42
 97 76 97 76 72.5 119.5 c 128,-1,43
 48 163 48 163 48 220 c 2,44,-1
 48 489 l 2,23,24
163 221 m 2,45,46
 163 192 163 192 177.5 170.5 c 128,-1,47
 192 149 192 149 216 135 c 128,-1,48
 240 121 240 121 271 113.5 c 128,-1,49
 302 106 302 106 334 106 c 0,50,51
 367 106 367 106 398 113.5 c 128,-1,52
 429 121 429 121 453 135 c 128,-1,53
 477 149 477 149 491.5 170.5 c 128,-1,54
 506 192 506 192 506 221 c 2,55,-1
 506 487 l 2,56,57
 506 517 506 517 491 539 c 128,-1,58
 476 561 476 561 452 575 c 128,-1,59
 428 589 428 589 397 595.5 c 128,-1,60
 366 602 366 602 334 602 c 256,61,62
 302 602 302 602 271 595 c 128,-1,63
 240 588 240 588 216 574 c 128,-1,64
 192 560 192 560 177.5 538.5 c 128,-1,65
 163 517 163 517 163 487 c 2,66,-1
 163 221 l 2,45,46
EndSplineSet
Position2: "'cpsp' Capital Spacing in Latin lookup 3 subtable" dx=5 dy=0 dh=10 dv=0
Position2: "'cpsp' Capital Spacing in Cyrillic lookup 2 subtable" dx=5 dy=0 dh=10 dv=0
Position2: "'cpsp' Capital Spacing in Greek lookup 1 subtable" dx=5 dy=0 dh=10 dv=0
Position2: "'cpsp' Capital Spacing lookup 0 subtable" dx=5 dy=0 dh=10 dv=0
EndChar

StartChar: OE
Encoding: 338 338 71
Width: 904
GlyphClass: 2
Flags: W
LayerCount: 2
Fore
SplineSet
542 410 m 1,0,-1
 835 410 l 1,1,-1
 835 295 l 1,2,-1
 542 295 l 1,3,-1
 542 115 l 1,4,-1
 863 115 l 1,5,-1
 863 -1 l 1,6,-1
 432 -1 l 1,7,-1
 432 21 l 1,8,9
 393 3 393 3 349.5 -4.5 c 128,-1,10
 306 -12 306 -12 263.5 -7.5 c 128,-1,11
 221 -3 221 -3 182 12 c 128,-1,12
 143 27 143 27 113.5 53 c 128,-1,13
 84 79 84 79 67 115 c 128,-1,14
 50 151 50 151 51 198 c 2,15,-1
 51 503 l 2,16,17
 50 548 50 548 68 585 c 128,-1,18
 86 622 86 622 116 648.5 c 128,-1,19
 146 675 146 675 186 691 c 128,-1,20
 226 707 226 707 269 711 c 128,-1,21
 312 715 312 715 354 707 c 128,-1,22
 396 699 396 699 432 677 c 1,23,-1
 432 707 l 1,24,-1
 863 707 l 1,25,-1
 863 591 l 1,26,-1
 542 591 l 1,27,-1
 542 410 l 1,0,-1
336 99 m 0,28,29
 362 99 362 99 386.5 108 c 128,-1,30
 411 117 411 117 432 133 c 1,31,-1
 432 562 l 1,32,33
 414 580 414 580 386.5 591 c 128,-1,34
 359 602 359 602 329.5 604.5 c 128,-1,35
 300 607 300 607 270.5 602 c 128,-1,36
 241 597 241 597 217.5 584 c 128,-1,37
 194 571 194 571 179.5 550.5 c 128,-1,38
 165 530 165 530 166 502 c 2,39,-1
 166 200 l 2,40,41
 166 171 166 171 180.5 151.5 c 128,-1,42
 195 132 195 132 219 120.5 c 128,-1,43
 243 109 243 109 273.5 104 c 128,-1,44
 304 99 304 99 336 99 c 0,28,29
EndSplineSet
Position2: "'cpsp' Capital Spacing in Latin lookup 3 subtable" dx=5 dy=0 dh=10 dv=0
Position2: "'cpsp' Capital Spacing in Cyrillic lookup 2 subtable" dx=5 dy=0 dh=10 dv=0
Position2: "'cpsp' Capital Spacing in Greek lookup 1 subtable" dx=5 dy=0 dh=10 dv=0
Position2: "'cpsp' Capital Spacing lookup 0 subtable" dx=5 dy=0 dh=10 dv=0
EndChar

StartChar: P
Encoding: 80 80 72
Width: 611
GlyphClass: 2
Flags: W
LayerCount: 2
Fore
SplineSet
67 708 m 1,0,-1
 341 708 l 2,1,2
 402 708 402 708 448 688 c 128,-1,3
 494 668 494 668 524.5 635 c 128,-1,4
 555 602 555 602 570.5 560 c 128,-1,5
 586 518 586 518 586 475 c 0,6,7
 586 431 586 431 570.5 389.5 c 128,-1,8
 555 348 555 348 524.5 316 c 128,-1,9
 494 284 494 284 448.5 264.5 c 128,-1,10
 403 245 403 245 342 245 c 2,11,-1
 181 245 l 1,12,-1
 181 0 l 1,13,-1
 67 0 l 1,14,-1
 67 708 l 1,0,-1
341 351 m 2,15,16
 374 351 374 351 398 362 c 128,-1,17
 422 373 422 373 438.5 390 c 128,-1,18
 455 407 455 407 463 429 c 128,-1,19
 471 451 471 451 471 473 c 256,20,21
 471 495 471 495 463 516.5 c 128,-1,22
 455 538 455 538 438.5 554.5 c 128,-1,23
 422 571 422 571 397.5 581.5 c 128,-1,24
 373 592 373 592 341 592 c 2,25,-1
 181 592 l 1,26,-1
 181 351 l 1,27,-1
 341 351 l 2,15,16
EndSplineSet
Position2: "'cpsp' Capital Spacing in Latin lookup 3 subtable" dx=5 dy=0 dh=10 dv=0
Position2: "'cpsp' Capital Spacing in Cyrillic lookup 2 subtable" dx=5 dy=0 dh=10 dv=0
Position2: "'cpsp' Capital Spacing in Greek lookup 1 subtable" dx=5 dy=0 dh=10 dv=0
Position2: "'cpsp' Capital Spacing lookup 0 subtable" dx=5 dy=0 dh=10 dv=0
EndChar

StartChar: Thorn
Encoding: 222 222 73
Width: 609
GlyphClass: 2
Flags: W
LayerCount: 2
Fore
SplineSet
67 708 m 1,0,-1
 181 708 l 1,1,-1
 180 590 l 1,2,-1
 341 590 l 2,3,4
 402 590 402 590 448 570 c 128,-1,5
 494 550 494 550 524.5 517 c 128,-1,6
 555 484 555 484 570.5 442 c 128,-1,7
 586 400 586 400 586 357 c 0,8,9
 586 313 586 313 570.5 271.5 c 128,-1,10
 555 230 555 230 524.5 198 c 128,-1,11
 494 166 494 166 448.5 146.5 c 128,-1,12
 403 127 403 127 342 127 c 2,13,-1
 181 127 l 1,14,-1
 181 0 l 1,15,-1
 67 0 l 1,16,-1
 67 708 l 1,0,-1
341 233 m 2,17,18
 374 233 374 233 398 244 c 128,-1,19
 422 255 422 255 438.5 272 c 128,-1,20
 455 289 455 289 463 311 c 128,-1,21
 471 333 471 333 471 355 c 256,22,23
 471 377 471 377 463 398.5 c 128,-1,24
 455 420 455 420 438.5 436.5 c 128,-1,25
 422 453 422 453 397.5 463.5 c 128,-1,26
 373 474 373 474 341 474 c 2,27,-1
 181 474 l 1,28,-1
 181 233 l 1,29,-1
 341 233 l 2,17,18
EndSplineSet
Position2: "'cpsp' Capital Spacing in Latin lookup 3 subtable" dx=5 dy=0 dh=10 dv=0
Position2: "'cpsp' Capital Spacing in Cyrillic lookup 2 subtable" dx=5 dy=0 dh=10 dv=0
Position2: "'cpsp' Capital Spacing in Greek lookup 1 subtable" dx=5 dy=0 dh=10 dv=0
Position2: "'cpsp' Capital Spacing lookup 0 subtable" dx=5 dy=0 dh=10 dv=0
EndChar

StartChar: Q
Encoding: 81 81 74
Width: 668
GlyphClass: 2
Flags: W
LayerCount: 2
Fore
SplineSet
493 25 m 1,0,1
 458 8 458 8 417 -1 c 128,-1,2
 376 -10 376 -10 334 -10 c 0,3,4
 280 -10 280 -10 228.5 4.5 c 128,-1,5
 177 19 177 19 137 47.5 c 128,-1,6
 97 76 97 76 72.5 119.5 c 128,-1,7
 48 163 48 163 48 220 c 2,8,-1
 48 489 l 2,9,10
 48 546 48 546 72.5 589 c 128,-1,11
 97 632 97 632 137 660.5 c 128,-1,12
 177 689 177 689 228.5 703.5 c 128,-1,13
 280 718 280 718 334 718 c 256,14,15
 388 718 388 718 439.5 703.5 c 128,-1,16
 491 689 491 689 531.5 660.5 c 128,-1,17
 572 632 572 632 596.5 589 c 128,-1,18
 621 546 621 546 621 489 c 2,19,-1
 621 220 l 2,20,21
 621 177 621 177 607 142.5 c 128,-1,22
 593 108 593 108 569 81 c 1,23,-1
 626 9 l 1,24,-1
 552 -47 l 1,25,-1
 493 25 l 1,0,1
334 106 m 0,26,27
 385 106 385 106 421 115 c 1,28,-1
 366 182 l 1,29,-1
 444 238 l 1,30,-1
 497 171 l 1,31,32
 506 192 506 192 506 221 c 2,33,-1
 506 487 l 2,34,35
 506 517 506 517 491 539 c 128,-1,36
 476 561 476 561 452 575 c 128,-1,37
 428 589 428 589 397 595.5 c 128,-1,38
 366 602 366 602 334 602 c 256,39,40
 302 602 302 602 271 595 c 128,-1,41
 240 588 240 588 216 574 c 128,-1,42
 192 560 192 560 177.5 538.5 c 128,-1,43
 163 517 163 517 163 487 c 2,44,-1
 163 221 l 2,45,46
 163 192 163 192 177.5 170.5 c 128,-1,47
 192 149 192 149 216 135 c 128,-1,48
 240 121 240 121 270.5 113.5 c 128,-1,49
 301 106 301 106 334 106 c 0,26,27
EndSplineSet
Position2: "'cpsp' Capital Spacing in Latin lookup 3 subtable" dx=5 dy=0 dh=10 dv=0
Position2: "'cpsp' Capital Spacing in Cyrillic lookup 2 subtable" dx=5 dy=0 dh=10 dv=0
Position2: "'cpsp' Capital Spacing in Greek lookup 1 subtable" dx=5 dy=0 dh=10 dv=0
Position2: "'cpsp' Capital Spacing lookup 0 subtable" dx=5 dy=0 dh=10 dv=0
EndChar

StartChar: R
Encoding: 82 82 75
Width: 622
GlyphClass: 2
Flags: W
LayerCount: 2
Fore
SplineSet
268 274 m 1,0,-1
 183 274 l 1,1,-1
 183 0 l 1,2,-1
 67 0 l 1,3,-1
 67 708 l 1,4,-1
 341 708 l 2,5,6
 393 708 393 708 438 695.5 c 128,-1,7
 483 683 483 683 516 657 c 128,-1,8
 549 631 549 631 568 589 c 128,-1,9
 587 547 587 547 589 489 c 0,10,11
 589 439 589 439 575 402 c 128,-1,12
 561 365 561 365 536 339.5 c 128,-1,13
 511 314 511 314 476.5 299 c 128,-1,14
 442 284 442 284 402 278 c 1,15,-1
 621 0 l 1,16,-1
 480 0 l 1,17,-1
 268 274 l 1,0,-1
342 375 m 2,18,19
 402 375 402 375 437.5 401.5 c 128,-1,20
 473 428 473 428 473 488 c 0,21,22
 473 547 473 547 436.5 569.5 c 128,-1,23
 400 592 400 592 342 592 c 2,24,-1
 183 592 l 1,25,-1
 183 375 l 1,26,-1
 342 375 l 2,18,19
EndSplineSet
Position2: "'cpsp' Capital Spacing in Latin lookup 3 subtable" dx=5 dy=0 dh=10 dv=0
Position2: "'cpsp' Capital Spacing in Cyrillic lookup 2 subtable" dx=5 dy=0 dh=10 dv=0
Position2: "'cpsp' Capital Spacing in Greek lookup 1 subtable" dx=5 dy=0 dh=10 dv=0
Position2: "'cpsp' Capital Spacing lookup 0 subtable" dx=5 dy=0 dh=10 dv=0
EndChar

StartChar: Racute
Encoding: 340 340 76
Width: 622
GlyphClass: 2
Flags: W
LayerCount: 2
Fore
SplineSet
336 756 m 1,0,-1
 222 756 l 1,1,-1
 313 907 l 1,2,-1
 454 907 l 1,3,-1
 336 756 l 1,0,-1
268 274 m 1,4,-1
 183 274 l 1,5,-1
 183 0 l 1,6,-1
 67 0 l 1,7,-1
 67 708 l 1,8,-1
 341 708 l 2,9,10
 393 708 393 708 438 695.5 c 128,-1,11
 483 683 483 683 516 657 c 128,-1,12
 549 631 549 631 568 589 c 128,-1,13
 587 547 587 547 589 489 c 0,14,15
 589 439 589 439 575 402 c 128,-1,16
 561 365 561 365 536 339.5 c 128,-1,17
 511 314 511 314 476.5 299 c 128,-1,18
 442 284 442 284 402 278 c 1,19,-1
 621 0 l 1,20,-1
 480 0 l 1,21,-1
 268 274 l 1,4,-1
342 375 m 2,22,23
 402 375 402 375 437.5 401.5 c 128,-1,24
 473 428 473 428 473 488 c 0,25,26
 473 547 473 547 436.5 569.5 c 128,-1,27
 400 592 400 592 342 592 c 2,28,-1
 183 592 l 1,29,-1
 183 375 l 1,30,-1
 342 375 l 2,22,23
EndSplineSet
Position2: "'cpsp' Capital Spacing in Latin lookup 3 subtable" dx=5 dy=0 dh=10 dv=0
Position2: "'cpsp' Capital Spacing in Cyrillic lookup 2 subtable" dx=5 dy=0 dh=10 dv=0
Position2: "'cpsp' Capital Spacing in Greek lookup 1 subtable" dx=5 dy=0 dh=10 dv=0
Position2: "'cpsp' Capital Spacing lookup 0 subtable" dx=5 dy=0 dh=10 dv=0
EndChar

StartChar: Rcaron
Encoding: 344 344 77
Width: 622
GlyphClass: 2
Flags: W
LayerCount: 2
Fore
SplineSet
243 907 m 1,0,-1
 294 851 l 1,1,-1
 348 907 l 1,2,-1
 473 907 l 1,3,-1
 335 756 l 1,4,-1
 254 756 l 1,5,-1
 116 907 l 1,6,-1
 243 907 l 1,0,-1
268 274 m 1,7,-1
 183 274 l 1,8,-1
 183 0 l 1,9,-1
 67 0 l 1,10,-1
 67 708 l 1,11,-1
 341 708 l 2,12,13
 393 708 393 708 438 695.5 c 128,-1,14
 483 683 483 683 516 657 c 128,-1,15
 549 631 549 631 568 589 c 128,-1,16
 587 547 587 547 589 489 c 0,17,18
 589 439 589 439 575 402 c 128,-1,19
 561 365 561 365 536 339.5 c 128,-1,20
 511 314 511 314 476.5 299 c 128,-1,21
 442 284 442 284 402 278 c 1,22,-1
 621 0 l 1,23,-1
 480 0 l 1,24,-1
 268 274 l 1,7,-1
342 375 m 2,25,26
 402 375 402 375 437.5 401.5 c 128,-1,27
 473 428 473 428 473 488 c 0,28,29
 473 547 473 547 436.5 569.5 c 128,-1,30
 400 592 400 592 342 592 c 2,31,-1
 183 592 l 1,32,-1
 183 375 l 1,33,-1
 342 375 l 2,25,26
EndSplineSet
Position2: "'cpsp' Capital Spacing in Latin lookup 3 subtable" dx=5 dy=0 dh=10 dv=0
Position2: "'cpsp' Capital Spacing in Cyrillic lookup 2 subtable" dx=5 dy=0 dh=10 dv=0
Position2: "'cpsp' Capital Spacing in Greek lookup 1 subtable" dx=5 dy=0 dh=10 dv=0
Position2: "'cpsp' Capital Spacing lookup 0 subtable" dx=5 dy=0 dh=10 dv=0
EndChar

StartChar: Rcommaaccent
Encoding: 342 342 78
Width: 622
GlyphClass: 2
Flags: W
LayerCount: 2
Fore
SplineSet
268 274 m 1,0,-1
 183 274 l 1,1,-1
 183 0 l 1,2,-1
 67 0 l 1,3,-1
 67 708 l 1,4,-1
 341 708 l 2,5,6
 393 708 393 708 438 695.5 c 128,-1,7
 483 683 483 683 516 657 c 128,-1,8
 549 631 549 631 568 589 c 128,-1,9
 587 547 587 547 589 489 c 0,10,11
 589 439 589 439 575 402 c 128,-1,12
 561 365 561 365 536 339.5 c 128,-1,13
 511 314 511 314 476.5 299 c 128,-1,14
 442 284 442 284 402 278 c 1,15,-1
 621 0 l 1,16,-1
 480 0 l 1,17,-1
 268 274 l 1,0,-1
342 375 m 2,18,19
 402 375 402 375 437.5 401.5 c 128,-1,20
 473 428 473 428 473 488 c 0,21,22
 473 547 473 547 436.5 569.5 c 128,-1,23
 400 592 400 592 342 592 c 2,24,-1
 183 592 l 1,25,-1
 183 375 l 1,26,-1
 342 375 l 2,18,19
328 -244 m 1,27,-1
 216 -244 l 1,28,-1
 263 -61 l 1,29,-1
 388 -61 l 1,30,-1
 328 -244 l 1,27,-1
EndSplineSet
Position2: "'cpsp' Capital Spacing in Latin lookup 3 subtable" dx=5 dy=0 dh=10 dv=0
Position2: "'cpsp' Capital Spacing in Cyrillic lookup 2 subtable" dx=5 dy=0 dh=10 dv=0
Position2: "'cpsp' Capital Spacing in Greek lookup 1 subtable" dx=5 dy=0 dh=10 dv=0
Position2: "'cpsp' Capital Spacing lookup 0 subtable" dx=5 dy=0 dh=10 dv=0
EndChar

StartChar: S
Encoding: 83 83 79
Width: 587
GlyphClass: 2
Flags: W
LayerCount: 2
Fore
SplineSet
154 510 m 0,0,1
 154 489 154 489 166.5 474 c 128,-1,2
 179 459 179 459 200 449 c 128,-1,3
 221 439 221 439 248 432.5 c 128,-1,4
 275 426 275 426 303 421 c 0,5,6
 349 412 349 412 396 398 c 128,-1,7
 443 384 443 384 479.5 358 c 128,-1,8
 516 332 516 332 537.5 291 c 128,-1,9
 559 250 559 250 555 188 c 0,10,11
 553 137 553 137 529.5 100 c 128,-1,12
 506 63 506 63 469 38.5 c 128,-1,13
 432 14 432 14 385.5 2 c 128,-1,14
 339 -10 339 -10 291 -10 c 0,15,16
 250 -10 250 -10 211 1 c 128,-1,17
 172 12 172 12 137 33.5 c 128,-1,18
 102 55 102 55 73.5 87 c 128,-1,19
 45 119 45 119 26 161 c 1,20,-1
 132 209 l 1,21,22
 155 158 155 158 199 132 c 128,-1,23
 243 106 243 106 293 106 c 0,24,25
 320 106 320 106 345.5 111.5 c 128,-1,26
 371 117 371 117 391 128 c 128,-1,27
 411 139 411 139 423.5 156.5 c 128,-1,28
 436 174 436 174 438 197 c 0,29,30
 440 227 440 227 427.5 246 c 128,-1,31
 415 265 415 265 392.5 277 c 128,-1,32
 370 289 370 289 340.5 296.5 c 128,-1,33
 311 304 311 304 278 310 c 0,34,35
 234 319 234 319 191.5 332.5 c 128,-1,36
 149 346 149 346 115 369.5 c 128,-1,37
 81 393 81 393 59.5 429 c 128,-1,38
 38 465 38 465 38 518 c 0,39,40
 41 566 41 566 63.5 603.5 c 128,-1,41
 86 641 86 641 121.5 666.5 c 128,-1,42
 157 692 157 692 201 705 c 128,-1,43
 245 718 245 718 292 718 c 0,44,45
 332 718 332 718 370 710 c 128,-1,46
 408 702 408 702 441 683.5 c 128,-1,47
 474 665 474 665 501.5 636 c 128,-1,48
 529 607 529 607 547 565 c 1,49,-1
 442 518 l 1,50,51
 419 568 419 568 380 585 c 128,-1,52
 341 602 341 602 292 602 c 0,53,54
 266 602 266 602 241.5 596 c 128,-1,55
 217 590 217 590 197.5 578.5 c 128,-1,56
 178 567 178 567 166 549.5 c 128,-1,57
 154 532 154 532 154 510 c 0,0,1
EndSplineSet
Position2: "'cpsp' Capital Spacing in Latin lookup 3 subtable" dx=5 dy=0 dh=10 dv=0
Position2: "'cpsp' Capital Spacing in Cyrillic lookup 2 subtable" dx=5 dy=0 dh=10 dv=0
Position2: "'cpsp' Capital Spacing in Greek lookup 1 subtable" dx=5 dy=0 dh=10 dv=0
Position2: "'cpsp' Capital Spacing lookup 0 subtable" dx=5 dy=0 dh=10 dv=0
EndChar

StartChar: Sacute
Encoding: 346 346 80
Width: 587
GlyphClass: 2
Flags: W
LayerCount: 2
Fore
SplineSet
333 756 m 1,0,-1
 219 756 l 1,1,-1
 310 907 l 1,2,-1
 451 907 l 1,3,-1
 333 756 l 1,0,-1
154 510 m 0,4,5
 154 489 154 489 166.5 474 c 128,-1,6
 179 459 179 459 200 449 c 128,-1,7
 221 439 221 439 248 432.5 c 128,-1,8
 275 426 275 426 303 421 c 0,9,10
 349 412 349 412 396 398 c 128,-1,11
 443 384 443 384 479.5 358 c 128,-1,12
 516 332 516 332 537.5 291 c 128,-1,13
 559 250 559 250 555 188 c 0,14,15
 553 137 553 137 529.5 100 c 128,-1,16
 506 63 506 63 469 38.5 c 128,-1,17
 432 14 432 14 385.5 2 c 128,-1,18
 339 -10 339 -10 291 -10 c 0,19,20
 250 -10 250 -10 211 1 c 128,-1,21
 172 12 172 12 137 33.5 c 128,-1,22
 102 55 102 55 73.5 87 c 128,-1,23
 45 119 45 119 26 161 c 1,24,-1
 132 209 l 1,25,26
 155 158 155 158 199 132 c 128,-1,27
 243 106 243 106 293 106 c 0,28,29
 320 106 320 106 345.5 111.5 c 128,-1,30
 371 117 371 117 391 128 c 128,-1,31
 411 139 411 139 423.5 156.5 c 128,-1,32
 436 174 436 174 438 197 c 0,33,34
 440 227 440 227 427.5 246 c 128,-1,35
 415 265 415 265 392.5 277 c 128,-1,36
 370 289 370 289 340.5 296.5 c 128,-1,37
 311 304 311 304 278 310 c 0,38,39
 234 319 234 319 191.5 332.5 c 128,-1,40
 149 346 149 346 115 369.5 c 128,-1,41
 81 393 81 393 59.5 429 c 128,-1,42
 38 465 38 465 38 518 c 0,43,44
 41 566 41 566 63.5 603.5 c 128,-1,45
 86 641 86 641 121.5 666.5 c 128,-1,46
 157 692 157 692 201 705 c 128,-1,47
 245 718 245 718 292 718 c 0,48,49
 332 718 332 718 370 710 c 128,-1,50
 408 702 408 702 441 683.5 c 128,-1,51
 474 665 474 665 501.5 636 c 128,-1,52
 529 607 529 607 547 565 c 1,53,-1
 442 518 l 1,54,55
 419 568 419 568 380 585 c 128,-1,56
 341 602 341 602 292 602 c 0,57,58
 266 602 266 602 241.5 596 c 128,-1,59
 217 590 217 590 197.5 578.5 c 128,-1,60
 178 567 178 567 166 549.5 c 128,-1,61
 154 532 154 532 154 510 c 0,4,5
EndSplineSet
Position2: "'cpsp' Capital Spacing in Latin lookup 3 subtable" dx=5 dy=0 dh=10 dv=0
Position2: "'cpsp' Capital Spacing in Cyrillic lookup 2 subtable" dx=5 dy=0 dh=10 dv=0
Position2: "'cpsp' Capital Spacing in Greek lookup 1 subtable" dx=5 dy=0 dh=10 dv=0
Position2: "'cpsp' Capital Spacing lookup 0 subtable" dx=5 dy=0 dh=10 dv=0
EndChar

StartChar: Scaron
Encoding: 352 352 81
Width: 587
GlyphClass: 2
Flags: W
LayerCount: 2
Fore
SplineSet
240 907 m 1,0,-1
 291 851 l 1,1,-1
 345 907 l 1,2,-1
 470 907 l 1,3,-1
 332 756 l 1,4,-1
 251 756 l 1,5,-1
 113 907 l 1,6,-1
 240 907 l 1,0,-1
154 510 m 0,7,8
 154 489 154 489 166.5 474 c 128,-1,9
 179 459 179 459 200 449 c 128,-1,10
 221 439 221 439 248 432.5 c 128,-1,11
 275 426 275 426 303 421 c 0,12,13
 349 412 349 412 396 398 c 128,-1,14
 443 384 443 384 479.5 358 c 128,-1,15
 516 332 516 332 537.5 291 c 128,-1,16
 559 250 559 250 555 188 c 0,17,18
 553 137 553 137 529.5 100 c 128,-1,19
 506 63 506 63 469 38.5 c 128,-1,20
 432 14 432 14 385.5 2 c 128,-1,21
 339 -10 339 -10 291 -10 c 0,22,23
 250 -10 250 -10 211 1 c 128,-1,24
 172 12 172 12 137 33.5 c 128,-1,25
 102 55 102 55 73.5 87 c 128,-1,26
 45 119 45 119 26 161 c 1,27,-1
 132 209 l 1,28,29
 155 158 155 158 199 132 c 128,-1,30
 243 106 243 106 293 106 c 0,31,32
 320 106 320 106 345.5 111.5 c 128,-1,33
 371 117 371 117 391 128 c 128,-1,34
 411 139 411 139 423.5 156.5 c 128,-1,35
 436 174 436 174 438 197 c 0,36,37
 440 227 440 227 427.5 246 c 128,-1,38
 415 265 415 265 392.5 277 c 128,-1,39
 370 289 370 289 340.5 296.5 c 128,-1,40
 311 304 311 304 278 310 c 0,41,42
 234 319 234 319 191.5 332.5 c 128,-1,43
 149 346 149 346 115 369.5 c 128,-1,44
 81 393 81 393 59.5 429 c 128,-1,45
 38 465 38 465 38 518 c 0,46,47
 41 566 41 566 63.5 603.5 c 128,-1,48
 86 641 86 641 121.5 666.5 c 128,-1,49
 157 692 157 692 201 705 c 128,-1,50
 245 718 245 718 292 718 c 0,51,52
 332 718 332 718 370 710 c 128,-1,53
 408 702 408 702 441 683.5 c 128,-1,54
 474 665 474 665 501.5 636 c 128,-1,55
 529 607 529 607 547 565 c 1,56,-1
 442 518 l 1,57,58
 419 568 419 568 380 585 c 128,-1,59
 341 602 341 602 292 602 c 0,60,61
 266 602 266 602 241.5 596 c 128,-1,62
 217 590 217 590 197.5 578.5 c 128,-1,63
 178 567 178 567 166 549.5 c 128,-1,64
 154 532 154 532 154 510 c 0,7,8
EndSplineSet
Position2: "'cpsp' Capital Spacing in Latin lookup 3 subtable" dx=5 dy=0 dh=10 dv=0
Position2: "'cpsp' Capital Spacing in Cyrillic lookup 2 subtable" dx=5 dy=0 dh=10 dv=0
Position2: "'cpsp' Capital Spacing in Greek lookup 1 subtable" dx=5 dy=0 dh=10 dv=0
Position2: "'cpsp' Capital Spacing lookup 0 subtable" dx=5 dy=0 dh=10 dv=0
EndChar

StartChar: Scedilla
Encoding: 350 350 82
Width: 587
GlyphClass: 2
Flags: W
LayerCount: 2
Fore
SplineSet
303 421 m 0,0,1
 349 412 349 412 396 398 c 128,-1,2
 443 384 443 384 479.5 358 c 128,-1,3
 516 332 516 332 537.5 291 c 128,-1,4
 559 250 559 250 555 188 c 0,5,6
 553 144 553 144 535 110.5 c 128,-1,7
 517 77 517 77 488.5 53 c 128,-1,8
 460 29 460 29 422.5 14.5 c 128,-1,9
 385 0 385 0 344 -6 c 1,10,-1
 323 -53 l 1,11,12
 372 -70 372 -70 386.5 -104.5 c 128,-1,13
 401 -139 401 -139 387 -179 c 0,14,15
 374 -215 374 -215 341.5 -229.5 c 128,-1,16
 309 -244 309 -244 268 -244 c 0,17,18
 246 -244 246 -244 219 -237 c 128,-1,19
 192 -230 192 -230 160 -211 c 1,20,-1
 185 -144 l 1,21,22
 213 -161 213 -161 235 -163.5 c 128,-1,23
 257 -166 257 -166 270.5 -160 c 128,-1,24
 284 -154 284 -154 288 -142.5 c 128,-1,25
 292 -131 292 -131 285.5 -120 c 128,-1,26
 279 -109 279 -109 261 -101 c 128,-1,27
 243 -93 243 -93 211 -94 c 1,28,-1
 249 -7 l 1,29,30
 179 3 179 3 119 45 c 128,-1,31
 59 87 59 87 26 161 c 1,32,-1
 132 209 l 1,33,34
 155 158 155 158 199 132 c 128,-1,35
 243 106 243 106 293 106 c 0,36,37
 320 106 320 106 345.5 111.5 c 128,-1,38
 371 117 371 117 391 128 c 128,-1,39
 411 139 411 139 423.5 156.5 c 128,-1,40
 436 174 436 174 438 197 c 0,41,42
 440 227 440 227 427.5 246 c 128,-1,43
 415 265 415 265 392.5 277 c 128,-1,44
 370 289 370 289 340.5 296.5 c 128,-1,45
 311 304 311 304 278 310 c 0,46,47
 234 319 234 319 191.5 332.5 c 128,-1,48
 149 346 149 346 115 369.5 c 128,-1,49
 81 393 81 393 59.5 429 c 128,-1,50
 38 465 38 465 38 518 c 0,51,52
 41 566 41 566 63.5 603.5 c 128,-1,53
 86 641 86 641 121.5 666.5 c 128,-1,54
 157 692 157 692 201 705 c 128,-1,55
 245 718 245 718 292 718 c 0,56,57
 332 718 332 718 370 710 c 128,-1,58
 408 702 408 702 441 683.5 c 128,-1,59
 474 665 474 665 501.5 636 c 128,-1,60
 529 607 529 607 547 565 c 1,61,-1
 442 518 l 1,62,63
 419 568 419 568 380 585 c 128,-1,64
 341 602 341 602 292 602 c 0,65,66
 266 602 266 602 241.5 596 c 128,-1,67
 217 590 217 590 197.5 578.5 c 128,-1,68
 178 567 178 567 166 549.5 c 128,-1,69
 154 532 154 532 154 510 c 0,70,71
 154 489 154 489 166.5 474 c 128,-1,72
 179 459 179 459 200 449 c 128,-1,73
 221 439 221 439 248 432.5 c 128,-1,74
 275 426 275 426 303 421 c 0,0,1
EndSplineSet
Substitution2: "'locl' Localized Forms in Latin lookup 5 subtable" Scommaaccent
Substitution2: "'locl' Localized Forms in Latin lookup 4 subtable" Scommaaccent
Substitution2: "'aalt' Access All Alternates lookup 0 subtable" Scommaaccent
Position2: "'cpsp' Capital Spacing in Latin lookup 3 subtable" dx=5 dy=0 dh=10 dv=0
Position2: "'cpsp' Capital Spacing in Cyrillic lookup 2 subtable" dx=5 dy=0 dh=10 dv=0
Position2: "'cpsp' Capital Spacing in Greek lookup 1 subtable" dx=5 dy=0 dh=10 dv=0
Position2: "'cpsp' Capital Spacing lookup 0 subtable" dx=5 dy=0 dh=10 dv=0
EndChar

StartChar: Scommaaccent
Encoding: 536 536 83
Width: 587
GlyphClass: 2
Flags: W
LayerCount: 2
Fore
SplineSet
154 510 m 0,0,1
 154 489 154 489 166.5 474 c 128,-1,2
 179 459 179 459 200 449 c 128,-1,3
 221 439 221 439 248 432.5 c 128,-1,4
 275 426 275 426 303 421 c 0,5,6
 349 412 349 412 396 398 c 128,-1,7
 443 384 443 384 479.5 358 c 128,-1,8
 516 332 516 332 537.5 291 c 128,-1,9
 559 250 559 250 555 188 c 0,10,11
 553 137 553 137 529.5 100 c 128,-1,12
 506 63 506 63 469 38.5 c 128,-1,13
 432 14 432 14 385.5 2 c 128,-1,14
 339 -10 339 -10 291 -10 c 0,15,16
 250 -10 250 -10 211 1 c 128,-1,17
 172 12 172 12 137 33.5 c 128,-1,18
 102 55 102 55 73.5 87 c 128,-1,19
 45 119 45 119 26 161 c 1,20,-1
 132 209 l 1,21,22
 155 158 155 158 199 132 c 128,-1,23
 243 106 243 106 293 106 c 0,24,25
 320 106 320 106 345.5 111.5 c 128,-1,26
 371 117 371 117 391 128 c 128,-1,27
 411 139 411 139 423.5 156.5 c 128,-1,28
 436 174 436 174 438 197 c 0,29,30
 440 227 440 227 427.5 246 c 128,-1,31
 415 265 415 265 392.5 277 c 128,-1,32
 370 289 370 289 340.5 296.5 c 128,-1,33
 311 304 311 304 278 310 c 0,34,35
 234 319 234 319 191.5 332.5 c 128,-1,36
 149 346 149 346 115 369.5 c 128,-1,37
 81 393 81 393 59.5 429 c 128,-1,38
 38 465 38 465 38 518 c 0,39,40
 41 566 41 566 63.5 603.5 c 128,-1,41
 86 641 86 641 121.5 666.5 c 128,-1,42
 157 692 157 692 201 705 c 128,-1,43
 245 718 245 718 292 718 c 0,44,45
 332 718 332 718 370 710 c 128,-1,46
 408 702 408 702 441 683.5 c 128,-1,47
 474 665 474 665 501.5 636 c 128,-1,48
 529 607 529 607 547 565 c 1,49,-1
 442 518 l 1,50,51
 419 568 419 568 380 585 c 128,-1,52
 341 602 341 602 292 602 c 0,53,54
 266 602 266 602 241.5 596 c 128,-1,55
 217 590 217 590 197.5 578.5 c 128,-1,56
 178 567 178 567 166 549.5 c 128,-1,57
 154 532 154 532 154 510 c 0,0,1
305 -244 m 1,58,-1
 193 -244 l 1,59,-1
 240 -61 l 1,60,-1
 365 -61 l 1,61,-1
 305 -244 l 1,58,-1
EndSplineSet
Position2: "'cpsp' Capital Spacing in Latin lookup 3 subtable" dx=5 dy=0 dh=10 dv=0
Position2: "'cpsp' Capital Spacing in Cyrillic lookup 2 subtable" dx=5 dy=0 dh=10 dv=0
Position2: "'cpsp' Capital Spacing in Greek lookup 1 subtable" dx=5 dy=0 dh=10 dv=0
Position2: "'cpsp' Capital Spacing lookup 0 subtable" dx=5 dy=0 dh=10 dv=0
EndChar

StartChar: T
Encoding: 84 84 84
Width: 574
GlyphClass: 2
Flags: W
LayerCount: 2
Fore
SplineSet
345 592 m 1,0,-1
 345 0 l 1,1,-1
 229 0 l 1,2,-1
 229 592 l 1,3,-1
 14 592 l 1,4,-1
 14 708 l 1,5,-1
 560 708 l 1,6,-1
 560 592 l 1,7,-1
 345 592 l 1,0,-1
EndSplineSet
Position2: "'cpsp' Capital Spacing in Latin lookup 3 subtable" dx=5 dy=0 dh=10 dv=0
Position2: "'cpsp' Capital Spacing in Cyrillic lookup 2 subtable" dx=5 dy=0 dh=10 dv=0
Position2: "'cpsp' Capital Spacing in Greek lookup 1 subtable" dx=5 dy=0 dh=10 dv=0
Position2: "'cpsp' Capital Spacing lookup 0 subtable" dx=5 dy=0 dh=10 dv=0
EndChar

StartChar: Tbar
Encoding: 358 358 85
Width: 578
GlyphClass: 2
Flags: W
LayerCount: 2
Fore
SplineSet
347 380 m 1,0,-1
 434 380 l 1,1,-1
 434 297 l 1,2,-1
 347 297 l 1,3,-1
 347 0 l 1,4,-1
 231 0 l 1,5,-1
 231 297 l 1,6,-1
 144 297 l 1,7,-1
 144 380 l 1,8,-1
 231 380 l 1,9,-1
 231 592 l 1,10,-1
 16 592 l 1,11,-1
 16 708 l 1,12,-1
 562 708 l 1,13,-1
 562 592 l 1,14,-1
 347 592 l 1,15,-1
 347 380 l 1,0,-1
EndSplineSet
Position2: "'cpsp' Capital Spacing in Latin lookup 3 subtable" dx=5 dy=0 dh=10 dv=0
Position2: "'cpsp' Capital Spacing in Cyrillic lookup 2 subtable" dx=5 dy=0 dh=10 dv=0
Position2: "'cpsp' Capital Spacing in Greek lookup 1 subtable" dx=5 dy=0 dh=10 dv=0
Position2: "'cpsp' Capital Spacing lookup 0 subtable" dx=5 dy=0 dh=10 dv=0
EndChar

StartChar: Tcaron
Encoding: 356 356 86
Width: 574
GlyphClass: 2
Flags: W
LayerCount: 2
Fore
SplineSet
235 907 m 1,0,-1
 286 851 l 1,1,-1
 340 907 l 1,2,-1
 465 907 l 1,3,-1
 327 756 l 1,4,-1
 246 756 l 1,5,-1
 108 907 l 1,6,-1
 235 907 l 1,0,-1
345 592 m 1,7,-1
 345 0 l 1,8,-1
 229 0 l 1,9,-1
 229 592 l 1,10,-1
 14 592 l 1,11,-1
 14 708 l 1,12,-1
 560 708 l 1,13,-1
 560 592 l 1,14,-1
 345 592 l 1,7,-1
EndSplineSet
Position2: "'cpsp' Capital Spacing in Latin lookup 3 subtable" dx=5 dy=0 dh=10 dv=0
Position2: "'cpsp' Capital Spacing in Cyrillic lookup 2 subtable" dx=5 dy=0 dh=10 dv=0
Position2: "'cpsp' Capital Spacing in Greek lookup 1 subtable" dx=5 dy=0 dh=10 dv=0
Position2: "'cpsp' Capital Spacing lookup 0 subtable" dx=5 dy=0 dh=10 dv=0
EndChar

StartChar: uni021A
Encoding: 538 538 88
Width: 574
GlyphClass: 2
Flags: W
LayerCount: 2
Fore
SplineSet
345 592 m 1,0,-1
 345 0 l 1,1,-1
 229 0 l 1,2,-1
 229 592 l 1,3,-1
 14 592 l 1,4,-1
 14 708 l 1,5,-1
 560 708 l 1,6,-1
 560 592 l 1,7,-1
 345 592 l 1,0,-1
301 -244 m 1,8,-1
 189 -244 l 1,9,-1
 236 -61 l 1,10,-1
 361 -61 l 1,11,-1
 301 -244 l 1,8,-1
EndSplineSet
Position2: "'cpsp' Capital Spacing in Latin lookup 3 subtable" dx=5 dy=0 dh=10 dv=0
Position2: "'cpsp' Capital Spacing in Cyrillic lookup 2 subtable" dx=5 dy=0 dh=10 dv=0
Position2: "'cpsp' Capital Spacing in Greek lookup 1 subtable" dx=5 dy=0 dh=10 dv=0
Position2: "'cpsp' Capital Spacing lookup 0 subtable" dx=5 dy=0 dh=10 dv=0
EndChar

StartChar: U
Encoding: 85 85 89
Width: 672
GlyphClass: 2
Flags: W
LayerCount: 2
Fore
SplineSet
179 223 m 2,0,1
 179 193 179 193 192.5 171 c 128,-1,2
 206 149 206 149 228 134.5 c 128,-1,3
 250 120 250 120 278.5 113 c 128,-1,4
 307 106 307 106 336 106 c 0,5,6
 366 106 366 106 394 113 c 128,-1,7
 422 120 422 120 444.5 134.5 c 128,-1,8
 467 149 467 149 480.5 171 c 128,-1,9
 494 193 494 193 494 223 c 2,10,-1
 494 708 l 1,11,-1
 610 708 l 1,12,-1
 610 222 l 2,13,14
 610 164 610 164 586.5 120.5 c 128,-1,15
 563 77 563 77 524 48 c 128,-1,16
 485 19 485 19 436 4.5 c 128,-1,17
 387 -10 387 -10 336 -10 c 256,18,19
 285 -10 285 -10 235.5 4.5 c 128,-1,20
 186 19 186 19 148 48 c 128,-1,21
 110 77 110 77 86.5 120.5 c 128,-1,22
 63 164 63 164 63 222 c 2,23,-1
 63 708 l 1,24,-1
 179 708 l 1,25,-1
 179 223 l 2,0,1
EndSplineSet
Position2: "'cpsp' Capital Spacing in Latin lookup 3 subtable" dx=5 dy=0 dh=10 dv=0
Position2: "'cpsp' Capital Spacing in Cyrillic lookup 2 subtable" dx=5 dy=0 dh=10 dv=0
Position2: "'cpsp' Capital Spacing in Greek lookup 1 subtable" dx=5 dy=0 dh=10 dv=0
Position2: "'cpsp' Capital Spacing lookup 0 subtable" dx=5 dy=0 dh=10 dv=0
EndChar

StartChar: Uacute
Encoding: 218 218 90
Width: 672
GlyphClass: 2
Flags: W
LayerCount: 2
Fore
SplineSet
378 756 m 1,0,-1
 264 756 l 1,1,-1
 355 907 l 1,2,-1
 496 907 l 1,3,-1
 378 756 l 1,0,-1
179 223 m 2,4,5
 179 193 179 193 192.5 171 c 128,-1,6
 206 149 206 149 228 134.5 c 128,-1,7
 250 120 250 120 278.5 113 c 128,-1,8
 307 106 307 106 336 106 c 0,9,10
 366 106 366 106 394 113 c 128,-1,11
 422 120 422 120 444.5 134.5 c 128,-1,12
 467 149 467 149 480.5 171 c 128,-1,13
 494 193 494 193 494 223 c 2,14,-1
 494 708 l 1,15,-1
 610 708 l 1,16,-1
 610 222 l 2,17,18
 610 164 610 164 586.5 120.5 c 128,-1,19
 563 77 563 77 524 48 c 128,-1,20
 485 19 485 19 436 4.5 c 128,-1,21
 387 -10 387 -10 336 -10 c 256,22,23
 285 -10 285 -10 235.5 4.5 c 128,-1,24
 186 19 186 19 148 48 c 128,-1,25
 110 77 110 77 86.5 120.5 c 128,-1,26
 63 164 63 164 63 222 c 2,27,-1
 63 708 l 1,28,-1
 179 708 l 1,29,-1
 179 223 l 2,4,5
EndSplineSet
Position2: "'cpsp' Capital Spacing in Latin lookup 3 subtable" dx=5 dy=0 dh=10 dv=0
Position2: "'cpsp' Capital Spacing in Cyrillic lookup 2 subtable" dx=5 dy=0 dh=10 dv=0
Position2: "'cpsp' Capital Spacing in Greek lookup 1 subtable" dx=5 dy=0 dh=10 dv=0
Position2: "'cpsp' Capital Spacing lookup 0 subtable" dx=5 dy=0 dh=10 dv=0
EndChar

StartChar: Ucircumflex
Encoding: 219 219 91
Width: 672
GlyphClass: 2
Flags: W
LayerCount: 2
Fore
SplineSet
514 756 m 1,0,-1
 389 756 l 1,1,-1
 335 816 l 1,2,-1
 284 756 l 1,3,-1
 157 756 l 1,4,-1
 295 907 l 1,5,-1
 376 907 l 1,6,-1
 514 756 l 1,0,-1
179 223 m 2,7,8
 179 193 179 193 192.5 171 c 128,-1,9
 206 149 206 149 228 134.5 c 128,-1,10
 250 120 250 120 278.5 113 c 128,-1,11
 307 106 307 106 336 106 c 0,12,13
 366 106 366 106 394 113 c 128,-1,14
 422 120 422 120 444.5 134.5 c 128,-1,15
 467 149 467 149 480.5 171 c 128,-1,16
 494 193 494 193 494 223 c 2,17,-1
 494 708 l 1,18,-1
 610 708 l 1,19,-1
 610 222 l 2,20,21
 610 164 610 164 586.5 120.5 c 128,-1,22
 563 77 563 77 524 48 c 128,-1,23
 485 19 485 19 436 4.5 c 128,-1,24
 387 -10 387 -10 336 -10 c 256,25,26
 285 -10 285 -10 235.5 4.5 c 128,-1,27
 186 19 186 19 148 48 c 128,-1,28
 110 77 110 77 86.5 120.5 c 128,-1,29
 63 164 63 164 63 222 c 2,30,-1
 63 708 l 1,31,-1
 179 708 l 1,32,-1
 179 223 l 2,7,8
EndSplineSet
Position2: "'cpsp' Capital Spacing in Latin lookup 3 subtable" dx=5 dy=0 dh=10 dv=0
Position2: "'cpsp' Capital Spacing in Cyrillic lookup 2 subtable" dx=5 dy=0 dh=10 dv=0
Position2: "'cpsp' Capital Spacing in Greek lookup 1 subtable" dx=5 dy=0 dh=10 dv=0
Position2: "'cpsp' Capital Spacing lookup 0 subtable" dx=5 dy=0 dh=10 dv=0
EndChar

StartChar: Udieresis
Encoding: 220 220 92
Width: 672
GlyphClass: 2
Flags: W
LayerCount: 2
Fore
SplineSet
160 831 m 0,0,1
 160 860 160 860 179 879 c 128,-1,2
 198 898 198 898 226 898 c 256,3,4
 254 898 254 898 273 879 c 128,-1,5
 292 860 292 860 292 831 c 0,6,7
 292 803 292 803 273 784 c 128,-1,8
 254 765 254 765 226 765 c 256,9,10
 198 765 198 765 179 784 c 128,-1,11
 160 803 160 803 160 831 c 0,0,1
381 831 m 0,12,13
 381 860 381 860 399.5 879 c 128,-1,14
 418 898 418 898 447 898 c 256,15,16
 476 898 476 898 495 879 c 128,-1,17
 514 860 514 860 514 831 c 0,18,19
 514 803 514 803 495 784 c 128,-1,20
 476 765 476 765 447 765 c 256,21,22
 418 765 418 765 399.5 784 c 128,-1,23
 381 803 381 803 381 831 c 0,12,13
179 223 m 2,24,25
 179 193 179 193 192.5 171 c 128,-1,26
 206 149 206 149 228 134.5 c 128,-1,27
 250 120 250 120 278.5 113 c 128,-1,28
 307 106 307 106 336 106 c 0,29,30
 366 106 366 106 394 113 c 128,-1,31
 422 120 422 120 444.5 134.5 c 128,-1,32
 467 149 467 149 480.5 171 c 128,-1,33
 494 193 494 193 494 223 c 2,34,-1
 494 708 l 1,35,-1
 610 708 l 1,36,-1
 610 222 l 2,37,38
 610 164 610 164 586.5 120.5 c 128,-1,39
 563 77 563 77 524 48 c 128,-1,40
 485 19 485 19 436 4.5 c 128,-1,41
 387 -10 387 -10 336 -10 c 256,42,43
 285 -10 285 -10 235.5 4.5 c 128,-1,44
 186 19 186 19 148 48 c 128,-1,45
 110 77 110 77 86.5 120.5 c 128,-1,46
 63 164 63 164 63 222 c 2,47,-1
 63 708 l 1,48,-1
 179 708 l 1,49,-1
 179 223 l 2,24,25
EndSplineSet
Position2: "'cpsp' Capital Spacing in Latin lookup 3 subtable" dx=5 dy=0 dh=10 dv=0
Position2: "'cpsp' Capital Spacing in Cyrillic lookup 2 subtable" dx=5 dy=0 dh=10 dv=0
Position2: "'cpsp' Capital Spacing in Greek lookup 1 subtable" dx=5 dy=0 dh=10 dv=0
Position2: "'cpsp' Capital Spacing lookup 0 subtable" dx=5 dy=0 dh=10 dv=0
EndChar

StartChar: Ugrave
Encoding: 217 217 93
Width: 672
GlyphClass: 2
Flags: W
LayerCount: 2
Fore
SplineSet
306 756 m 1,0,-1
 188 907 l 1,1,-1
 329 907 l 1,2,-1
 420 756 l 1,3,-1
 306 756 l 1,0,-1
179 223 m 2,4,5
 179 193 179 193 192.5 171 c 128,-1,6
 206 149 206 149 228 134.5 c 128,-1,7
 250 120 250 120 278.5 113 c 128,-1,8
 307 106 307 106 336 106 c 0,9,10
 366 106 366 106 394 113 c 128,-1,11
 422 120 422 120 444.5 134.5 c 128,-1,12
 467 149 467 149 480.5 171 c 128,-1,13
 494 193 494 193 494 223 c 2,14,-1
 494 708 l 1,15,-1
 610 708 l 1,16,-1
 610 222 l 2,17,18
 610 164 610 164 586.5 120.5 c 128,-1,19
 563 77 563 77 524 48 c 128,-1,20
 485 19 485 19 436 4.5 c 128,-1,21
 387 -10 387 -10 336 -10 c 256,22,23
 285 -10 285 -10 235.5 4.5 c 128,-1,24
 186 19 186 19 148 48 c 128,-1,25
 110 77 110 77 86.5 120.5 c 128,-1,26
 63 164 63 164 63 222 c 2,27,-1
 63 708 l 1,28,-1
 179 708 l 1,29,-1
 179 223 l 2,4,5
EndSplineSet
Position2: "'cpsp' Capital Spacing in Latin lookup 3 subtable" dx=5 dy=0 dh=10 dv=0
Position2: "'cpsp' Capital Spacing in Cyrillic lookup 2 subtable" dx=5 dy=0 dh=10 dv=0
Position2: "'cpsp' Capital Spacing in Greek lookup 1 subtable" dx=5 dy=0 dh=10 dv=0
Position2: "'cpsp' Capital Spacing lookup 0 subtable" dx=5 dy=0 dh=10 dv=0
EndChar

StartChar: Uhungarumlaut
Encoding: 368 368 94
Width: 672
GlyphClass: 2
Flags: W
LayerCount: 2
Fore
SplineSet
277 757 m 1,0,-1
 183 757 l 1,1,-1
 242 906 l 1,2,-1
 370 906 l 1,3,-1
 277 757 l 1,0,-1
470 757 m 1,4,-1
 368 757 l 1,5,-1
 425 906 l 1,6,-1
 557 906 l 1,7,-1
 470 757 l 1,4,-1
179 223 m 2,8,9
 179 193 179 193 192.5 171 c 128,-1,10
 206 149 206 149 228 134.5 c 128,-1,11
 250 120 250 120 278.5 113 c 128,-1,12
 307 106 307 106 336 106 c 0,13,14
 366 106 366 106 394 113 c 128,-1,15
 422 120 422 120 444.5 134.5 c 128,-1,16
 467 149 467 149 480.5 171 c 128,-1,17
 494 193 494 193 494 223 c 2,18,-1
 494 708 l 1,19,-1
 610 708 l 1,20,-1
 610 222 l 2,21,22
 610 164 610 164 586.5 120.5 c 128,-1,23
 563 77 563 77 524 48 c 128,-1,24
 485 19 485 19 436 4.5 c 128,-1,25
 387 -10 387 -10 336 -10 c 256,26,27
 285 -10 285 -10 235.5 4.5 c 128,-1,28
 186 19 186 19 148 48 c 128,-1,29
 110 77 110 77 86.5 120.5 c 128,-1,30
 63 164 63 164 63 222 c 2,31,-1
 63 708 l 1,32,-1
 179 708 l 1,33,-1
 179 223 l 2,8,9
EndSplineSet
Position2: "'cpsp' Capital Spacing in Latin lookup 3 subtable" dx=5 dy=0 dh=10 dv=0
Position2: "'cpsp' Capital Spacing in Cyrillic lookup 2 subtable" dx=5 dy=0 dh=10 dv=0
Position2: "'cpsp' Capital Spacing in Greek lookup 1 subtable" dx=5 dy=0 dh=10 dv=0
Position2: "'cpsp' Capital Spacing lookup 0 subtable" dx=5 dy=0 dh=10 dv=0
EndChar

StartChar: Umacron
Encoding: 362 362 95
Width: 672
GlyphClass: 2
Flags: W
LayerCount: 2
Fore
SplineSet
190 892 m 1,0,-1
 483 892 l 1,1,-1
 483 791 l 1,2,-1
 190 791 l 1,3,-1
 190 892 l 1,0,-1
179 223 m 2,4,5
 179 193 179 193 192.5 171 c 128,-1,6
 206 149 206 149 228 134.5 c 128,-1,7
 250 120 250 120 278.5 113 c 128,-1,8
 307 106 307 106 336 106 c 0,9,10
 366 106 366 106 394 113 c 128,-1,11
 422 120 422 120 444.5 134.5 c 128,-1,12
 467 149 467 149 480.5 171 c 128,-1,13
 494 193 494 193 494 223 c 2,14,-1
 494 708 l 1,15,-1
 610 708 l 1,16,-1
 610 222 l 2,17,18
 610 164 610 164 586.5 120.5 c 128,-1,19
 563 77 563 77 524 48 c 128,-1,20
 485 19 485 19 436 4.5 c 128,-1,21
 387 -10 387 -10 336 -10 c 256,22,23
 285 -10 285 -10 235.5 4.5 c 128,-1,24
 186 19 186 19 148 48 c 128,-1,25
 110 77 110 77 86.5 120.5 c 128,-1,26
 63 164 63 164 63 222 c 2,27,-1
 63 708 l 1,28,-1
 179 708 l 1,29,-1
 179 223 l 2,4,5
EndSplineSet
Position2: "'cpsp' Capital Spacing in Latin lookup 3 subtable" dx=5 dy=0 dh=10 dv=0
Position2: "'cpsp' Capital Spacing in Cyrillic lookup 2 subtable" dx=5 dy=0 dh=10 dv=0
Position2: "'cpsp' Capital Spacing in Greek lookup 1 subtable" dx=5 dy=0 dh=10 dv=0
Position2: "'cpsp' Capital Spacing lookup 0 subtable" dx=5 dy=0 dh=10 dv=0
EndChar

StartChar: Uogonek
Encoding: 370 370 96
Width: 672
GlyphClass: 2
Flags: W
LayerCount: 2
Fore
SplineSet
610 222 m 2,0,1
 610 159 610 159 583.5 115.5 c 128,-1,2
 557 72 557 72 513 40 c 256,3,4
 469 8 469 8 451.5 -28.5 c 128,-1,5
 434 -65 434 -65 436 -92 c 128,-1,6
 438 -119 438 -119 457.5 -130.5 c 128,-1,7
 477 -142 477 -142 508 -124 c 1,8,-1
 547 -195 l 1,9,10
 521 -218 521 -218 491.5 -231 c 128,-1,11
 462 -244 462 -244 433 -244 c 0,12,13
 387 -244 387 -244 361 -219.5 c 128,-1,14
 335 -195 335 -195 335 -147 c 0,15,16
 335 -109 335 -109 354 -71 c 128,-1,17
 373 -33 373 -33 405 -3 c 1,18,19
 388 -7 388 -7 370.5 -8.5 c 128,-1,20
 353 -10 353 -10 336 -10 c 0,21,22
 285 -10 285 -10 235.5 4.5 c 128,-1,23
 186 19 186 19 148 48 c 128,-1,24
 110 77 110 77 86.5 120.5 c 128,-1,25
 63 164 63 164 63 222 c 2,26,-1
 63 708 l 1,27,-1
 179 708 l 1,28,-1
 179 223 l 2,29,30
 179 193 179 193 192.5 171 c 128,-1,31
 206 149 206 149 228 134.5 c 128,-1,32
 250 120 250 120 278.5 113 c 128,-1,33
 307 106 307 106 336 106 c 0,34,35
 366 106 366 106 394 113 c 128,-1,36
 422 120 422 120 444.5 134.5 c 128,-1,37
 467 149 467 149 480.5 171 c 128,-1,38
 494 193 494 193 494 223 c 2,39,-1
 494 708 l 1,40,-1
 610 708 l 1,41,-1
 610 222 l 2,0,1
EndSplineSet
Position2: "'cpsp' Capital Spacing in Latin lookup 3 subtable" dx=5 dy=0 dh=10 dv=0
Position2: "'cpsp' Capital Spacing in Cyrillic lookup 2 subtable" dx=5 dy=0 dh=10 dv=0
Position2: "'cpsp' Capital Spacing in Greek lookup 1 subtable" dx=5 dy=0 dh=10 dv=0
Position2: "'cpsp' Capital Spacing lookup 0 subtable" dx=5 dy=0 dh=10 dv=0
EndChar

StartChar: Uring
Encoding: 366 366 97
Width: 672
GlyphClass: 2
Flags: W
LayerCount: 2
Fore
SplineSet
220 831 m 256,0,1
 220 882 220 882 253.5 911.5 c 128,-1,2
 287 941 287 941 338 941 c 256,3,4
 389 941 389 941 421.5 911 c 128,-1,5
 454 881 454 881 454 830 c 256,6,7
 454 779 454 779 421.5 750 c 128,-1,8
 389 721 389 721 338 721 c 256,9,10
 287 721 287 721 253.5 750.5 c 128,-1,11
 220 780 220 780 220 831 c 256,0,1
379 830 m 0,12,13
 379 850 379 850 367.5 861.5 c 128,-1,14
 356 873 356 873 337 873 c 0,15,16
 317 873 317 873 305 861.5 c 128,-1,17
 293 850 293 850 293 830 c 0,18,19
 293 811 293 811 305 799.5 c 128,-1,20
 317 788 317 788 337 788 c 0,21,22
 356 788 356 788 367.5 799.5 c 128,-1,23
 379 811 379 811 379 830 c 0,12,13
179 223 m 2,24,25
 179 193 179 193 192.5 171 c 128,-1,26
 206 149 206 149 228 134.5 c 128,-1,27
 250 120 250 120 278.5 113 c 128,-1,28
 307 106 307 106 336 106 c 0,29,30
 366 106 366 106 394 113 c 128,-1,31
 422 120 422 120 444.5 134.5 c 128,-1,32
 467 149 467 149 480.5 171 c 128,-1,33
 494 193 494 193 494 223 c 2,34,-1
 494 708 l 1,35,-1
 610 708 l 1,36,-1
 610 222 l 2,37,38
 610 164 610 164 586.5 120.5 c 128,-1,39
 563 77 563 77 524 48 c 128,-1,40
 485 19 485 19 436 4.5 c 128,-1,41
 387 -10 387 -10 336 -10 c 256,42,43
 285 -10 285 -10 235.5 4.5 c 128,-1,44
 186 19 186 19 148 48 c 128,-1,45
 110 77 110 77 86.5 120.5 c 128,-1,46
 63 164 63 164 63 222 c 2,47,-1
 63 708 l 1,48,-1
 179 708 l 1,49,-1
 179 223 l 2,24,25
EndSplineSet
Position2: "'cpsp' Capital Spacing in Latin lookup 3 subtable" dx=5 dy=0 dh=10 dv=0
Position2: "'cpsp' Capital Spacing in Cyrillic lookup 2 subtable" dx=5 dy=0 dh=10 dv=0
Position2: "'cpsp' Capital Spacing in Greek lookup 1 subtable" dx=5 dy=0 dh=10 dv=0
Position2: "'cpsp' Capital Spacing lookup 0 subtable" dx=5 dy=0 dh=10 dv=0
EndChar

StartChar: V
Encoding: 86 86 98
Width: 631
GlyphClass: 2
Flags: W
LayerCount: 2
Fore
SplineSet
278 258 m 1,0,1
 277 258 277 258 282.5 237 c 128,-1,2
 288 216 288 216 295 191 c 0,3,4
 303 162 303 162 312 125 c 1,5,-1
 322 125 l 1,6,-1
 352 260 l 1,7,-1
 510 708 l 1,8,-1
 632 708 l 1,9,-1
 377 0 l 1,10,-1
 255 0 l 1,11,-1
 -1 708 l 1,12,-1
 122 708 l 1,13,-1
 278 258 l 1,0,1
EndSplineSet
Position2: "'cpsp' Capital Spacing in Latin lookup 3 subtable" dx=5 dy=0 dh=10 dv=0
Position2: "'cpsp' Capital Spacing in Cyrillic lookup 2 subtable" dx=5 dy=0 dh=10 dv=0
Position2: "'cpsp' Capital Spacing in Greek lookup 1 subtable" dx=5 dy=0 dh=10 dv=0
Position2: "'cpsp' Capital Spacing lookup 0 subtable" dx=5 dy=0 dh=10 dv=0
EndChar

StartChar: W
Encoding: 87 87 99
Width: 926
GlyphClass: 2
Flags: W
LayerCount: 2
Fore
SplineSet
211 0 m 1,0,-1
 6 708 l 1,1,-1
 126 708 l 1,2,-1
 251 265 l 1,3,4
 250 265 250 265 253.5 244.5 c 128,-1,5
 257 224 257 224 261 199 c 0,6,7
 265 170 265 170 272 133 c 1,8,-1
 281 133 l 1,9,-1
 303 270 l 1,10,-1
 415 604 l 1,11,-1
 512 604 l 1,12,-1
 622 268 l 1,13,14
 621 268 621 268 626 247 c 128,-1,15
 631 226 631 226 637 201 c 0,16,17
 644 172 644 172 652 135 c 1,18,-1
 661 135 l 1,19,-1
 677 267 l 1,20,-1
 801 708 l 1,21,-1
 920 708 l 1,22,-1
 715 0 l 1,23,-1
 592 0 l 1,24,-1
 480 346 l 1,25,-1
 466 435 l 1,26,-1
 459 435 l 1,27,-1
 451 391 l 2,28,29
 448 374 448 374 445 360.5 c 128,-1,30
 442 347 442 347 443 347 c 1,31,-1
 334 0 l 1,32,-1
 211 0 l 1,0,-1
EndSplineSet
Position2: "'cpsp' Capital Spacing in Latin lookup 3 subtable" dx=5 dy=0 dh=10 dv=0
Position2: "'cpsp' Capital Spacing in Cyrillic lookup 2 subtable" dx=5 dy=0 dh=10 dv=0
Position2: "'cpsp' Capital Spacing in Greek lookup 1 subtable" dx=5 dy=0 dh=10 dv=0
Position2: "'cpsp' Capital Spacing lookup 0 subtable" dx=5 dy=0 dh=10 dv=0
EndChar

StartChar: Wacute
Encoding: 7810 7810 100
Width: 926
GlyphClass: 2
Flags: W
LayerCount: 2
Fore
SplineSet
505 756 m 1,0,-1
 391 756 l 1,1,-1
 482 907 l 1,2,-1
 623 907 l 1,3,-1
 505 756 l 1,0,-1
211 0 m 1,4,-1
 6 708 l 1,5,-1
 126 708 l 1,6,-1
 251 265 l 1,7,8
 250 265 250 265 253.5 244.5 c 128,-1,9
 257 224 257 224 261 199 c 0,10,11
 265 170 265 170 272 133 c 1,12,-1
 281 133 l 1,13,-1
 303 270 l 1,14,-1
 415 604 l 1,15,-1
 512 604 l 1,16,-1
 622 268 l 1,17,18
 621 268 621 268 626 247 c 128,-1,19
 631 226 631 226 637 201 c 0,20,21
 644 172 644 172 652 135 c 1,22,-1
 661 135 l 1,23,-1
 677 267 l 1,24,-1
 801 708 l 1,25,-1
 920 708 l 1,26,-1
 715 0 l 1,27,-1
 592 0 l 1,28,-1
 480 346 l 1,29,-1
 466 435 l 1,30,-1
 459 435 l 1,31,-1
 451 391 l 2,32,33
 448 374 448 374 445 360.5 c 128,-1,34
 442 347 442 347 443 347 c 1,35,-1
 334 0 l 1,36,-1
 211 0 l 1,4,-1
EndSplineSet
Position2: "'cpsp' Capital Spacing in Latin lookup 3 subtable" dx=5 dy=0 dh=10 dv=0
Position2: "'cpsp' Capital Spacing in Cyrillic lookup 2 subtable" dx=5 dy=0 dh=10 dv=0
Position2: "'cpsp' Capital Spacing in Greek lookup 1 subtable" dx=5 dy=0 dh=10 dv=0
Position2: "'cpsp' Capital Spacing lookup 0 subtable" dx=5 dy=0 dh=10 dv=0
EndChar

StartChar: Wcircumflex
Encoding: 372 372 101
Width: 926
GlyphClass: 2
Flags: W
LayerCount: 2
Fore
SplineSet
641 756 m 1,0,-1
 516 756 l 1,1,-1
 462 816 l 1,2,-1
 411 756 l 1,3,-1
 284 756 l 1,4,-1
 422 907 l 1,5,-1
 503 907 l 1,6,-1
 641 756 l 1,0,-1
211 0 m 1,7,-1
 6 708 l 1,8,-1
 126 708 l 1,9,-1
 251 265 l 1,10,11
 250 265 250 265 253.5 244.5 c 128,-1,12
 257 224 257 224 261 199 c 0,13,14
 265 170 265 170 272 133 c 1,15,-1
 281 133 l 1,16,-1
 303 270 l 1,17,-1
 415 604 l 1,18,-1
 512 604 l 1,19,-1
 622 268 l 1,20,21
 621 268 621 268 626 247 c 128,-1,22
 631 226 631 226 637 201 c 0,23,24
 644 172 644 172 652 135 c 1,25,-1
 661 135 l 1,26,-1
 677 267 l 1,27,-1
 801 708 l 1,28,-1
 920 708 l 1,29,-1
 715 0 l 1,30,-1
 592 0 l 1,31,-1
 480 346 l 1,32,-1
 466 435 l 1,33,-1
 459 435 l 1,34,-1
 451 391 l 2,35,36
 448 374 448 374 445 360.5 c 128,-1,37
 442 347 442 347 443 347 c 1,38,-1
 334 0 l 1,39,-1
 211 0 l 1,7,-1
EndSplineSet
Position2: "'cpsp' Capital Spacing in Latin lookup 3 subtable" dx=5 dy=0 dh=10 dv=0
Position2: "'cpsp' Capital Spacing in Cyrillic lookup 2 subtable" dx=5 dy=0 dh=10 dv=0
Position2: "'cpsp' Capital Spacing in Greek lookup 1 subtable" dx=5 dy=0 dh=10 dv=0
Position2: "'cpsp' Capital Spacing lookup 0 subtable" dx=5 dy=0 dh=10 dv=0
EndChar

StartChar: Wdieresis
Encoding: 7812 7812 102
Width: 926
GlyphClass: 2
Flags: W
LayerCount: 2
Fore
SplineSet
287 831 m 0,0,1
 287 860 287 860 306 879 c 128,-1,2
 325 898 325 898 353 898 c 256,3,4
 381 898 381 898 400 879 c 128,-1,5
 419 860 419 860 419 831 c 0,6,7
 419 803 419 803 400 784 c 128,-1,8
 381 765 381 765 353 765 c 256,9,10
 325 765 325 765 306 784 c 128,-1,11
 287 803 287 803 287 831 c 0,0,1
508 831 m 0,12,13
 508 860 508 860 526.5 879 c 128,-1,14
 545 898 545 898 574 898 c 256,15,16
 603 898 603 898 622 879 c 128,-1,17
 641 860 641 860 641 831 c 0,18,19
 641 803 641 803 622 784 c 128,-1,20
 603 765 603 765 574 765 c 256,21,22
 545 765 545 765 526.5 784 c 128,-1,23
 508 803 508 803 508 831 c 0,12,13
211 0 m 1,24,-1
 6 708 l 1,25,-1
 126 708 l 1,26,-1
 251 265 l 1,27,28
 250 265 250 265 253.5 244.5 c 128,-1,29
 257 224 257 224 261 199 c 0,30,31
 265 170 265 170 272 133 c 1,32,-1
 281 133 l 1,33,-1
 303 270 l 1,34,-1
 415 604 l 1,35,-1
 512 604 l 1,36,-1
 622 268 l 1,37,38
 621 268 621 268 626 247 c 128,-1,39
 631 226 631 226 637 201 c 0,40,41
 644 172 644 172 652 135 c 1,42,-1
 661 135 l 1,43,-1
 677 267 l 1,44,-1
 801 708 l 1,45,-1
 920 708 l 1,46,-1
 715 0 l 1,47,-1
 592 0 l 1,48,-1
 480 346 l 1,49,-1
 466 435 l 1,50,-1
 459 435 l 1,51,-1
 451 391 l 2,52,53
 448 374 448 374 445 360.5 c 128,-1,54
 442 347 442 347 443 347 c 1,55,-1
 334 0 l 1,56,-1
 211 0 l 1,24,-1
EndSplineSet
Position2: "'cpsp' Capital Spacing in Latin lookup 3 subtable" dx=5 dy=0 dh=10 dv=0
Position2: "'cpsp' Capital Spacing in Cyrillic lookup 2 subtable" dx=5 dy=0 dh=10 dv=0
Position2: "'cpsp' Capital Spacing in Greek lookup 1 subtable" dx=5 dy=0 dh=10 dv=0
Position2: "'cpsp' Capital Spacing lookup 0 subtable" dx=5 dy=0 dh=10 dv=0
EndChar

StartChar: Wgrave
Encoding: 7808 7808 103
Width: 926
GlyphClass: 2
Flags: W
LayerCount: 2
Fore
SplineSet
433 756 m 1,0,-1
 315 907 l 1,1,-1
 456 907 l 1,2,-1
 547 756 l 1,3,-1
 433 756 l 1,0,-1
211 0 m 1,4,-1
 6 708 l 1,5,-1
 126 708 l 1,6,-1
 251 265 l 1,7,8
 250 265 250 265 253.5 244.5 c 128,-1,9
 257 224 257 224 261 199 c 0,10,11
 265 170 265 170 272 133 c 1,12,-1
 281 133 l 1,13,-1
 303 270 l 1,14,-1
 415 604 l 1,15,-1
 512 604 l 1,16,-1
 622 268 l 1,17,18
 621 268 621 268 626 247 c 128,-1,19
 631 226 631 226 637 201 c 0,20,21
 644 172 644 172 652 135 c 1,22,-1
 661 135 l 1,23,-1
 677 267 l 1,24,-1
 801 708 l 1,25,-1
 920 708 l 1,26,-1
 715 0 l 1,27,-1
 592 0 l 1,28,-1
 480 346 l 1,29,-1
 466 435 l 1,30,-1
 459 435 l 1,31,-1
 451 391 l 2,32,33
 448 374 448 374 445 360.5 c 128,-1,34
 442 347 442 347 443 347 c 1,35,-1
 334 0 l 1,36,-1
 211 0 l 1,4,-1
EndSplineSet
Position2: "'cpsp' Capital Spacing in Latin lookup 3 subtable" dx=5 dy=0 dh=10 dv=0
Position2: "'cpsp' Capital Spacing in Cyrillic lookup 2 subtable" dx=5 dy=0 dh=10 dv=0
Position2: "'cpsp' Capital Spacing in Greek lookup 1 subtable" dx=5 dy=0 dh=10 dv=0
Position2: "'cpsp' Capital Spacing lookup 0 subtable" dx=5 dy=0 dh=10 dv=0
EndChar

StartChar: X
Encoding: 88 88 104
Width: 624
GlyphClass: 2
Flags: W
LayerCount: 2
Fore
SplineSet
483 0 m 1,0,-1
 312 263 l 1,1,-1
 141 0 l 1,2,-1
 -1 0 l 1,3,-1
 241 353 l 1,4,-1
 1 708 l 1,5,-1
 141 708 l 1,6,-1
 312 442 l 1,7,-1
 483 708 l 1,8,-1
 623 708 l 1,9,-1
 382 353 l 1,10,-1
 624 0 l 1,11,-1
 483 0 l 1,0,-1
EndSplineSet
Position2: "'cpsp' Capital Spacing in Latin lookup 3 subtable" dx=5 dy=0 dh=10 dv=0
Position2: "'cpsp' Capital Spacing in Cyrillic lookup 2 subtable" dx=5 dy=0 dh=10 dv=0
Position2: "'cpsp' Capital Spacing in Greek lookup 1 subtable" dx=5 dy=0 dh=10 dv=0
Position2: "'cpsp' Capital Spacing lookup 0 subtable" dx=5 dy=0 dh=10 dv=0
EndChar

StartChar: Y
Encoding: 89 89 105
Width: 600
GlyphClass: 2
Flags: W
LayerCount: 2
Fore
SplineSet
242 0 m 1,0,-1
 242 275 l 1,1,-1
 -4 708 l 1,2,-1
 129 708 l 1,3,-1
 300 386 l 1,4,-1
 470 708 l 1,5,-1
 605 708 l 1,6,-1
 358 275 l 1,7,-1
 358 0 l 1,8,-1
 242 0 l 1,0,-1
EndSplineSet
Position2: "'cpsp' Capital Spacing in Latin lookup 3 subtable" dx=5 dy=0 dh=10 dv=0
Position2: "'cpsp' Capital Spacing in Cyrillic lookup 2 subtable" dx=5 dy=0 dh=10 dv=0
Position2: "'cpsp' Capital Spacing in Greek lookup 1 subtable" dx=5 dy=0 dh=10 dv=0
Position2: "'cpsp' Capital Spacing lookup 0 subtable" dx=5 dy=0 dh=10 dv=0
EndChar

StartChar: Yacute
Encoding: 221 221 106
Width: 600
GlyphClass: 2
Flags: W
LayerCount: 2
Fore
SplineSet
342 756 m 1,0,-1
 228 756 l 1,1,-1
 319 907 l 1,2,-1
 460 907 l 1,3,-1
 342 756 l 1,0,-1
242 0 m 1,4,-1
 242 275 l 1,5,-1
 -4 708 l 1,6,-1
 129 708 l 1,7,-1
 300 386 l 1,8,-1
 470 708 l 1,9,-1
 605 708 l 1,10,-1
 358 275 l 1,11,-1
 358 0 l 1,12,-1
 242 0 l 1,4,-1
EndSplineSet
Position2: "'cpsp' Capital Spacing in Latin lookup 3 subtable" dx=5 dy=0 dh=10 dv=0
Position2: "'cpsp' Capital Spacing in Cyrillic lookup 2 subtable" dx=5 dy=0 dh=10 dv=0
Position2: "'cpsp' Capital Spacing in Greek lookup 1 subtable" dx=5 dy=0 dh=10 dv=0
Position2: "'cpsp' Capital Spacing lookup 0 subtable" dx=5 dy=0 dh=10 dv=0
EndChar

StartChar: Ycircumflex
Encoding: 374 374 107
Width: 600
GlyphClass: 2
Flags: W
LayerCount: 2
Fore
SplineSet
478 756 m 1,0,-1
 353 756 l 1,1,-1
 299 816 l 1,2,-1
 248 756 l 1,3,-1
 121 756 l 1,4,-1
 259 907 l 1,5,-1
 340 907 l 1,6,-1
 478 756 l 1,0,-1
242 0 m 1,7,-1
 242 275 l 1,8,-1
 -4 708 l 1,9,-1
 129 708 l 1,10,-1
 300 386 l 1,11,-1
 470 708 l 1,12,-1
 605 708 l 1,13,-1
 358 275 l 1,14,-1
 358 0 l 1,15,-1
 242 0 l 1,7,-1
EndSplineSet
Position2: "'cpsp' Capital Spacing in Latin lookup 3 subtable" dx=5 dy=0 dh=10 dv=0
Position2: "'cpsp' Capital Spacing in Cyrillic lookup 2 subtable" dx=5 dy=0 dh=10 dv=0
Position2: "'cpsp' Capital Spacing in Greek lookup 1 subtable" dx=5 dy=0 dh=10 dv=0
Position2: "'cpsp' Capital Spacing lookup 0 subtable" dx=5 dy=0 dh=10 dv=0
EndChar

StartChar: Ydieresis
Encoding: 376 376 108
Width: 600
GlyphClass: 2
Flags: W
LayerCount: 2
Fore
SplineSet
124 831 m 0,0,1
 124 860 124 860 143 879 c 128,-1,2
 162 898 162 898 190 898 c 256,3,4
 218 898 218 898 237 879 c 128,-1,5
 256 860 256 860 256 831 c 0,6,7
 256 803 256 803 237 784 c 128,-1,8
 218 765 218 765 190 765 c 256,9,10
 162 765 162 765 143 784 c 128,-1,11
 124 803 124 803 124 831 c 0,0,1
345 831 m 0,12,13
 345 860 345 860 363.5 879 c 128,-1,14
 382 898 382 898 411 898 c 256,15,16
 440 898 440 898 459 879 c 128,-1,17
 478 860 478 860 478 831 c 0,18,19
 478 803 478 803 459 784 c 128,-1,20
 440 765 440 765 411 765 c 256,21,22
 382 765 382 765 363.5 784 c 128,-1,23
 345 803 345 803 345 831 c 0,12,13
242 0 m 1,24,-1
 242 275 l 1,25,-1
 -4 708 l 1,26,-1
 129 708 l 1,27,-1
 300 386 l 1,28,-1
 470 708 l 1,29,-1
 605 708 l 1,30,-1
 358 275 l 1,31,-1
 358 0 l 1,32,-1
 242 0 l 1,24,-1
EndSplineSet
Position2: "'cpsp' Capital Spacing in Latin lookup 3 subtable" dx=5 dy=0 dh=10 dv=0
Position2: "'cpsp' Capital Spacing in Cyrillic lookup 2 subtable" dx=5 dy=0 dh=10 dv=0
Position2: "'cpsp' Capital Spacing in Greek lookup 1 subtable" dx=5 dy=0 dh=10 dv=0
Position2: "'cpsp' Capital Spacing lookup 0 subtable" dx=5 dy=0 dh=10 dv=0
EndChar

StartChar: Ygrave
Encoding: 7922 7922 109
Width: 600
GlyphClass: 2
Flags: W
LayerCount: 2
Fore
SplineSet
270 756 m 1,0,-1
 152 907 l 1,1,-1
 293 907 l 1,2,-1
 384 756 l 1,3,-1
 270 756 l 1,0,-1
242 0 m 1,4,-1
 242 275 l 1,5,-1
 -4 708 l 1,6,-1
 129 708 l 1,7,-1
 300 386 l 1,8,-1
 470 708 l 1,9,-1
 605 708 l 1,10,-1
 358 275 l 1,11,-1
 358 0 l 1,12,-1
 242 0 l 1,4,-1
EndSplineSet
Position2: "'cpsp' Capital Spacing in Latin lookup 3 subtable" dx=5 dy=0 dh=10 dv=0
Position2: "'cpsp' Capital Spacing in Cyrillic lookup 2 subtable" dx=5 dy=0 dh=10 dv=0
Position2: "'cpsp' Capital Spacing in Greek lookup 1 subtable" dx=5 dy=0 dh=10 dv=0
Position2: "'cpsp' Capital Spacing lookup 0 subtable" dx=5 dy=0 dh=10 dv=0
EndChar

StartChar: Z
Encoding: 90 90 110
Width: 591
GlyphClass: 2
Flags: W
LayerCount: 2
Fore
SplineSet
534 708 m 1,0,-1
 569 633 l 1,1,-1
 175 106 l 1,2,-1
 555 106 l 1,3,-1
 555 0 l 1,4,-1
 50 0 l 1,5,-1
 19 76 l 1,6,-1
 412 592 l 1,7,-1
 40 592 l 1,8,-1
 40 708 l 1,9,-1
 534 708 l 1,0,-1
EndSplineSet
Position2: "'cpsp' Capital Spacing in Latin lookup 3 subtable" dx=5 dy=0 dh=10 dv=0
Position2: "'cpsp' Capital Spacing in Cyrillic lookup 2 subtable" dx=5 dy=0 dh=10 dv=0
Position2: "'cpsp' Capital Spacing in Greek lookup 1 subtable" dx=5 dy=0 dh=10 dv=0
Position2: "'cpsp' Capital Spacing lookup 0 subtable" dx=5 dy=0 dh=10 dv=0
EndChar

StartChar: Zacute
Encoding: 377 377 111
Width: 591
GlyphClass: 2
Flags: W
LayerCount: 2
Fore
SplineSet
339 756 m 1,0,-1
 225 756 l 1,1,-1
 316 907 l 1,2,-1
 457 907 l 1,3,-1
 339 756 l 1,0,-1
534 708 m 1,4,-1
 569 633 l 1,5,-1
 175 106 l 1,6,-1
 555 106 l 1,7,-1
 555 0 l 1,8,-1
 50 0 l 1,9,-1
 19 76 l 1,10,-1
 412 592 l 1,11,-1
 40 592 l 1,12,-1
 40 708 l 1,13,-1
 534 708 l 1,4,-1
EndSplineSet
Position2: "'cpsp' Capital Spacing in Latin lookup 3 subtable" dx=5 dy=0 dh=10 dv=0
Position2: "'cpsp' Capital Spacing in Cyrillic lookup 2 subtable" dx=5 dy=0 dh=10 dv=0
Position2: "'cpsp' Capital Spacing in Greek lookup 1 subtable" dx=5 dy=0 dh=10 dv=0
Position2: "'cpsp' Capital Spacing lookup 0 subtable" dx=5 dy=0 dh=10 dv=0
EndChar

StartChar: Zcaron
Encoding: 381 381 112
Width: 591
GlyphClass: 2
Flags: W
LayerCount: 2
Fore
SplineSet
246 907 m 1,0,-1
 297 851 l 1,1,-1
 351 907 l 1,2,-1
 476 907 l 1,3,-1
 338 756 l 1,4,-1
 257 756 l 1,5,-1
 119 907 l 1,6,-1
 246 907 l 1,0,-1
534 708 m 1,7,-1
 569 633 l 1,8,-1
 175 106 l 1,9,-1
 555 106 l 1,10,-1
 555 0 l 1,11,-1
 50 0 l 1,12,-1
 19 76 l 1,13,-1
 412 592 l 1,14,-1
 40 592 l 1,15,-1
 40 708 l 1,16,-1
 534 708 l 1,7,-1
EndSplineSet
Position2: "'cpsp' Capital Spacing in Latin lookup 3 subtable" dx=5 dy=0 dh=10 dv=0
Position2: "'cpsp' Capital Spacing in Cyrillic lookup 2 subtable" dx=5 dy=0 dh=10 dv=0
Position2: "'cpsp' Capital Spacing in Greek lookup 1 subtable" dx=5 dy=0 dh=10 dv=0
Position2: "'cpsp' Capital Spacing lookup 0 subtable" dx=5 dy=0 dh=10 dv=0
EndChar

StartChar: Zdotaccent
Encoding: 379 379 113
Width: 591
GlyphClass: 2
Flags: W
LayerCount: 2
Fore
SplineSet
222 831 m 256,0,1
 222 863 222 863 244 884.5 c 128,-1,2
 266 906 266 906 298 906 c 256,3,4
 330 906 330 906 351.5 884.5 c 128,-1,5
 373 863 373 863 373 831 c 256,6,7
 373 799 373 799 351.5 777 c 128,-1,8
 330 755 330 755 298 755 c 256,9,10
 266 755 266 755 244 777 c 128,-1,11
 222 799 222 799 222 831 c 256,0,1
534 708 m 1,12,-1
 569 633 l 1,13,-1
 175 106 l 1,14,-1
 555 106 l 1,15,-1
 555 0 l 1,16,-1
 50 0 l 1,17,-1
 19 76 l 1,18,-1
 412 592 l 1,19,-1
 40 592 l 1,20,-1
 40 708 l 1,21,-1
 534 708 l 1,12,-1
EndSplineSet
Position2: "'cpsp' Capital Spacing in Latin lookup 3 subtable" dx=5 dy=0 dh=10 dv=0
Position2: "'cpsp' Capital Spacing in Cyrillic lookup 2 subtable" dx=5 dy=0 dh=10 dv=0
Position2: "'cpsp' Capital Spacing in Greek lookup 1 subtable" dx=5 dy=0 dh=10 dv=0
Position2: "'cpsp' Capital Spacing lookup 0 subtable" dx=5 dy=0 dh=10 dv=0
EndChar

StartChar: a
Encoding: 97 97 114
Width: 489
GlyphClass: 2
Flags: W
LayerCount: 2
Fore
SplineSet
327 354 m 2,0,1
 327 373 327 373 318 387.5 c 128,-1,2
 309 402 309 402 294 411.5 c 128,-1,3
 279 421 279 421 259.5 425.5 c 128,-1,4
 240 430 240 430 219 430 c 0,5,6
 188 430 188 430 159 419.5 c 128,-1,7
 130 409 130 409 110 387 c 1,8,-1
 48 451 l 1,9,10
 90 498 90 498 136.5 513 c 128,-1,11
 183 528 183 528 233 528 c 0,12,13
 271 528 271 528 307.5 517.5 c 128,-1,14
 344 507 344 507 373 486 c 128,-1,15
 402 465 402 465 419.5 433 c 128,-1,16
 437 401 437 401 437 357 c 2,17,-1
 437 25 l 1,18,19
 401 11 401 11 349.5 0.5 c 128,-1,20
 298 -10 298 -10 241 -10 c 0,21,22
 200 -10 200 -10 162 -2.5 c 128,-1,23
 124 5 124 5 95 23 c 128,-1,24
 66 41 66 41 48 71.5 c 128,-1,25
 30 102 30 102 30 148 c 0,26,27
 30 191 30 191 46.5 222 c 128,-1,28
 63 253 63 253 90 273.5 c 128,-1,29
 117 294 117 294 151.5 304 c 128,-1,30
 186 314 186 314 222 314 c 0,31,32
 250 314 250 314 277 309 c 128,-1,33
 304 304 304 304 327 294 c 1,34,-1
 327 354 l 2,0,1
327 208 m 1,35,36
 310 216 310 216 286.5 221 c 128,-1,37
 263 226 263 226 238 226 c 0,38,39
 190 226 190 226 164 204.5 c 128,-1,40
 138 183 138 183 138 149 c 0,41,42
 138 131 138 131 146 118 c 128,-1,43
 154 105 154 105 167.5 97 c 128,-1,44
 181 89 181 89 198 85.5 c 128,-1,45
 215 82 215 82 234 82 c 0,46,47
 261 82 261 82 285 85 c 128,-1,48
 309 88 309 88 327 93 c 1,49,-1
 327 208 l 1,35,36
EndSplineSet
Substitution2: "Single Substitution lookup 27 subtable" ordfeminine
Substitution2: "'aalt' Access All Alternates lookup 0 subtable" ordfeminine
EndChar

StartChar: aacute
Encoding: 225 225 115
Width: 489
GlyphClass: 2
Flags: W
LayerCount: 2
Fore
SplineSet
254 578 m 1,0,-1
 150 578 l 1,1,-1
 241 729 l 1,2,-1
 372 729 l 1,3,-1
 254 578 l 1,0,-1
327 354 m 2,4,5
 327 373 327 373 318 387.5 c 128,-1,6
 309 402 309 402 294 411.5 c 128,-1,7
 279 421 279 421 259.5 425.5 c 128,-1,8
 240 430 240 430 219 430 c 0,9,10
 188 430 188 430 159 419.5 c 128,-1,11
 130 409 130 409 110 387 c 1,12,-1
 48 451 l 1,13,14
 90 498 90 498 136.5 513 c 128,-1,15
 183 528 183 528 233 528 c 0,16,17
 271 528 271 528 307.5 517.5 c 128,-1,18
 344 507 344 507 373 486 c 128,-1,19
 402 465 402 465 419.5 433 c 128,-1,20
 437 401 437 401 437 357 c 2,21,-1
 437 25 l 1,22,23
 401 11 401 11 349.5 0.5 c 128,-1,24
 298 -10 298 -10 241 -10 c 0,25,26
 200 -10 200 -10 162 -2.5 c 128,-1,27
 124 5 124 5 95 23 c 128,-1,28
 66 41 66 41 48 71.5 c 128,-1,29
 30 102 30 102 30 148 c 0,30,31
 30 191 30 191 46.5 222 c 128,-1,32
 63 253 63 253 90 273.5 c 128,-1,33
 117 294 117 294 151.5 304 c 128,-1,34
 186 314 186 314 222 314 c 0,35,36
 250 314 250 314 277 309 c 128,-1,37
 304 304 304 304 327 294 c 1,38,-1
 327 354 l 2,4,5
327 208 m 1,39,40
 310 216 310 216 286.5 221 c 128,-1,41
 263 226 263 226 238 226 c 0,42,43
 190 226 190 226 164 204.5 c 128,-1,44
 138 183 138 183 138 149 c 0,45,46
 138 131 138 131 146 118 c 128,-1,47
 154 105 154 105 167.5 97 c 128,-1,48
 181 89 181 89 198 85.5 c 128,-1,49
 215 82 215 82 234 82 c 0,50,51
 261 82 261 82 285 85 c 128,-1,52
 309 88 309 88 327 93 c 1,53,-1
 327 208 l 1,39,40
EndSplineSet
EndChar

StartChar: abreve
Encoding: 259 259 116
Width: 489
GlyphClass: 2
Flags: W
LayerCount: 2
Fore
SplineSet
396 729 m 1,0,1
 396 656 396 656 355.5 615.5 c 128,-1,2
 315 575 315 575 243 575 c 256,3,4
 171 575 171 575 131 615.5 c 128,-1,5
 91 656 91 656 91 729 c 1,6,-1
 189 729 l 1,7,8
 189 702 189 702 203 686.5 c 128,-1,9
 217 671 217 671 243 671 c 256,10,11
 269 671 269 671 284 686.5 c 128,-1,12
 299 702 299 702 299 729 c 1,13,-1
 396 729 l 1,0,1
327 354 m 2,14,15
 327 373 327 373 318 387.5 c 128,-1,16
 309 402 309 402 294 411.5 c 128,-1,17
 279 421 279 421 259.5 425.5 c 128,-1,18
 240 430 240 430 219 430 c 0,19,20
 188 430 188 430 159 419.5 c 128,-1,21
 130 409 130 409 110 387 c 1,22,-1
 48 451 l 1,23,24
 90 498 90 498 136.5 513 c 128,-1,25
 183 528 183 528 233 528 c 0,26,27
 271 528 271 528 307.5 517.5 c 128,-1,28
 344 507 344 507 373 486 c 128,-1,29
 402 465 402 465 419.5 433 c 128,-1,30
 437 401 437 401 437 357 c 2,31,-1
 437 25 l 1,32,33
 401 11 401 11 349.5 0.5 c 128,-1,34
 298 -10 298 -10 241 -10 c 0,35,36
 200 -10 200 -10 162 -2.5 c 128,-1,37
 124 5 124 5 95 23 c 128,-1,38
 66 41 66 41 48 71.5 c 128,-1,39
 30 102 30 102 30 148 c 0,40,41
 30 191 30 191 46.5 222 c 128,-1,42
 63 253 63 253 90 273.5 c 128,-1,43
 117 294 117 294 151.5 304 c 128,-1,44
 186 314 186 314 222 314 c 0,45,46
 250 314 250 314 277 309 c 128,-1,47
 304 304 304 304 327 294 c 1,48,-1
 327 354 l 2,14,15
327 208 m 1,49,50
 310 216 310 216 286.5 221 c 128,-1,51
 263 226 263 226 238 226 c 0,52,53
 190 226 190 226 164 204.5 c 128,-1,54
 138 183 138 183 138 149 c 0,55,56
 138 131 138 131 146 118 c 128,-1,57
 154 105 154 105 167.5 97 c 128,-1,58
 181 89 181 89 198 85.5 c 128,-1,59
 215 82 215 82 234 82 c 0,60,61
 261 82 261 82 285 85 c 128,-1,62
 309 88 309 88 327 93 c 1,63,-1
 327 208 l 1,49,50
EndSplineSet
EndChar

StartChar: acircumflex
Encoding: 226 226 117
Width: 489
GlyphClass: 2
Flags: W
LayerCount: 2
Fore
SplineSet
420 578 m 1,0,-1
 295 578 l 1,1,-1
 241 638 l 1,2,-1
 190 578 l 1,3,-1
 63 578 l 1,4,-1
 201 729 l 1,5,-1
 282 729 l 1,6,-1
 420 578 l 1,0,-1
327 354 m 2,7,8
 327 373 327 373 318 387.5 c 128,-1,9
 309 402 309 402 294 411.5 c 128,-1,10
 279 421 279 421 259.5 425.5 c 128,-1,11
 240 430 240 430 219 430 c 0,12,13
 188 430 188 430 159 419.5 c 128,-1,14
 130 409 130 409 110 387 c 1,15,-1
 48 451 l 1,16,17
 90 498 90 498 136.5 513 c 128,-1,18
 183 528 183 528 233 528 c 0,19,20
 271 528 271 528 307.5 517.5 c 128,-1,21
 344 507 344 507 373 486 c 128,-1,22
 402 465 402 465 419.5 433 c 128,-1,23
 437 401 437 401 437 357 c 2,24,-1
 437 25 l 1,25,26
 401 11 401 11 349.5 0.5 c 128,-1,27
 298 -10 298 -10 241 -10 c 0,28,29
 200 -10 200 -10 162 -2.5 c 128,-1,30
 124 5 124 5 95 23 c 128,-1,31
 66 41 66 41 48 71.5 c 128,-1,32
 30 102 30 102 30 148 c 0,33,34
 30 191 30 191 46.5 222 c 128,-1,35
 63 253 63 253 90 273.5 c 128,-1,36
 117 294 117 294 151.5 304 c 128,-1,37
 186 314 186 314 222 314 c 0,38,39
 250 314 250 314 277 309 c 128,-1,40
 304 304 304 304 327 294 c 1,41,-1
 327 354 l 2,7,8
327 208 m 1,42,43
 310 216 310 216 286.5 221 c 128,-1,44
 263 226 263 226 238 226 c 0,45,46
 190 226 190 226 164 204.5 c 128,-1,47
 138 183 138 183 138 149 c 0,48,49
 138 131 138 131 146 118 c 128,-1,50
 154 105 154 105 167.5 97 c 128,-1,51
 181 89 181 89 198 85.5 c 128,-1,52
 215 82 215 82 234 82 c 0,53,54
 261 82 261 82 285 85 c 128,-1,55
 309 88 309 88 327 93 c 1,56,-1
 327 208 l 1,42,43
EndSplineSet
EndChar

StartChar: adieresis
Encoding: 228 228 118
Width: 489
GlyphClass: 2
Flags: W
LayerCount: 2
Fore
SplineSet
76 641 m 0,0,1
 76 670 76 670 95 689 c 128,-1,2
 114 708 114 708 142 708 c 256,3,4
 170 708 170 708 189 689 c 128,-1,5
 208 670 208 670 208 641 c 0,6,7
 208 613 208 613 189 594 c 128,-1,8
 170 575 170 575 142 575 c 256,9,10
 114 575 114 575 95 594 c 128,-1,11
 76 613 76 613 76 641 c 0,0,1
257 641 m 0,12,13
 257 670 257 670 275.5 689 c 128,-1,14
 294 708 294 708 323 708 c 256,15,16
 352 708 352 708 371 689 c 128,-1,17
 390 670 390 670 390 641 c 0,18,19
 390 613 390 613 371 594 c 128,-1,20
 352 575 352 575 323 575 c 256,21,22
 294 575 294 575 275.5 594 c 128,-1,23
 257 613 257 613 257 641 c 0,12,13
327 354 m 2,24,25
 327 373 327 373 318 387.5 c 128,-1,26
 309 402 309 402 294 411.5 c 128,-1,27
 279 421 279 421 259.5 425.5 c 128,-1,28
 240 430 240 430 219 430 c 0,29,30
 188 430 188 430 159 419.5 c 128,-1,31
 130 409 130 409 110 387 c 1,32,-1
 48 451 l 1,33,34
 90 498 90 498 136.5 513 c 128,-1,35
 183 528 183 528 233 528 c 0,36,37
 271 528 271 528 307.5 517.5 c 128,-1,38
 344 507 344 507 373 486 c 128,-1,39
 402 465 402 465 419.5 433 c 128,-1,40
 437 401 437 401 437 357 c 2,41,-1
 437 25 l 1,42,43
 401 11 401 11 349.5 0.5 c 128,-1,44
 298 -10 298 -10 241 -10 c 0,45,46
 200 -10 200 -10 162 -2.5 c 128,-1,47
 124 5 124 5 95 23 c 128,-1,48
 66 41 66 41 48 71.5 c 128,-1,49
 30 102 30 102 30 148 c 0,50,51
 30 191 30 191 46.5 222 c 128,-1,52
 63 253 63 253 90 273.5 c 128,-1,53
 117 294 117 294 151.5 304 c 128,-1,54
 186 314 186 314 222 314 c 0,55,56
 250 314 250 314 277 309 c 128,-1,57
 304 304 304 304 327 294 c 1,58,-1
 327 354 l 2,24,25
327 208 m 1,59,60
 310 216 310 216 286.5 221 c 128,-1,61
 263 226 263 226 238 226 c 0,62,63
 190 226 190 226 164 204.5 c 128,-1,64
 138 183 138 183 138 149 c 0,65,66
 138 131 138 131 146 118 c 128,-1,67
 154 105 154 105 167.5 97 c 128,-1,68
 181 89 181 89 198 85.5 c 128,-1,69
 215 82 215 82 234 82 c 0,70,71
 261 82 261 82 285 85 c 128,-1,72
 309 88 309 88 327 93 c 1,73,-1
 327 208 l 1,59,60
EndSplineSet
EndChar

StartChar: agrave
Encoding: 224 224 119
Width: 489
GlyphClass: 2
Flags: W
LayerCount: 2
Fore
SplineSet
226 578 m 1,0,-1
 108 729 l 1,1,-1
 242 729 l 1,2,-1
 333 578 l 1,3,-1
 226 578 l 1,0,-1
327 354 m 2,4,5
 327 373 327 373 318 387.5 c 128,-1,6
 309 402 309 402 294 411.5 c 128,-1,7
 279 421 279 421 259.5 425.5 c 128,-1,8
 240 430 240 430 219 430 c 0,9,10
 188 430 188 430 159 419.5 c 128,-1,11
 130 409 130 409 110 387 c 1,12,-1
 48 451 l 1,13,14
 90 498 90 498 136.5 513 c 128,-1,15
 183 528 183 528 233 528 c 0,16,17
 271 528 271 528 307.5 517.5 c 128,-1,18
 344 507 344 507 373 486 c 128,-1,19
 402 465 402 465 419.5 433 c 128,-1,20
 437 401 437 401 437 357 c 2,21,-1
 437 25 l 1,22,23
 401 11 401 11 349.5 0.5 c 128,-1,24
 298 -10 298 -10 241 -10 c 0,25,26
 200 -10 200 -10 162 -2.5 c 128,-1,27
 124 5 124 5 95 23 c 128,-1,28
 66 41 66 41 48 71.5 c 128,-1,29
 30 102 30 102 30 148 c 0,30,31
 30 191 30 191 46.5 222 c 128,-1,32
 63 253 63 253 90 273.5 c 128,-1,33
 117 294 117 294 151.5 304 c 128,-1,34
 186 314 186 314 222 314 c 0,35,36
 250 314 250 314 277 309 c 128,-1,37
 304 304 304 304 327 294 c 1,38,-1
 327 354 l 2,4,5
327 208 m 1,39,40
 310 216 310 216 286.5 221 c 128,-1,41
 263 226 263 226 238 226 c 0,42,43
 190 226 190 226 164 204.5 c 128,-1,44
 138 183 138 183 138 149 c 0,45,46
 138 131 138 131 146 118 c 128,-1,47
 154 105 154 105 167.5 97 c 128,-1,48
 181 89 181 89 198 85.5 c 128,-1,49
 215 82 215 82 234 82 c 0,50,51
 261 82 261 82 285 85 c 128,-1,52
 309 88 309 88 327 93 c 1,53,-1
 327 208 l 1,39,40
EndSplineSet
EndChar

StartChar: amacron
Encoding: 257 257 120
Width: 489
GlyphClass: 2
Flags: W
LayerCount: 2
Fore
SplineSet
107 695 m 1,0,-1
 383 695 l 1,1,-1
 383 600 l 1,2,-1
 107 600 l 1,3,-1
 107 695 l 1,0,-1
327 354 m 2,4,5
 327 373 327 373 318 387.5 c 128,-1,6
 309 402 309 402 294 411.5 c 128,-1,7
 279 421 279 421 259.5 425.5 c 128,-1,8
 240 430 240 430 219 430 c 0,9,10
 188 430 188 430 159 419.5 c 128,-1,11
 130 409 130 409 110 387 c 1,12,-1
 48 451 l 1,13,14
 90 498 90 498 136.5 513 c 128,-1,15
 183 528 183 528 233 528 c 0,16,17
 271 528 271 528 307.5 517.5 c 128,-1,18
 344 507 344 507 373 486 c 128,-1,19
 402 465 402 465 419.5 433 c 128,-1,20
 437 401 437 401 437 357 c 2,21,-1
 437 25 l 1,22,23
 401 11 401 11 349.5 0.5 c 128,-1,24
 298 -10 298 -10 241 -10 c 0,25,26
 200 -10 200 -10 162 -2.5 c 128,-1,27
 124 5 124 5 95 23 c 128,-1,28
 66 41 66 41 48 71.5 c 128,-1,29
 30 102 30 102 30 148 c 0,30,31
 30 191 30 191 46.5 222 c 128,-1,32
 63 253 63 253 90 273.5 c 128,-1,33
 117 294 117 294 151.5 304 c 128,-1,34
 186 314 186 314 222 314 c 0,35,36
 250 314 250 314 277 309 c 128,-1,37
 304 304 304 304 327 294 c 1,38,-1
 327 354 l 2,4,5
327 208 m 1,39,40
 310 216 310 216 286.5 221 c 128,-1,41
 263 226 263 226 238 226 c 0,42,43
 190 226 190 226 164 204.5 c 128,-1,44
 138 183 138 183 138 149 c 0,45,46
 138 131 138 131 146 118 c 128,-1,47
 154 105 154 105 167.5 97 c 128,-1,48
 181 89 181 89 198 85.5 c 128,-1,49
 215 82 215 82 234 82 c 0,50,51
 261 82 261 82 285 85 c 128,-1,52
 309 88 309 88 327 93 c 1,53,-1
 327 208 l 1,39,40
EndSplineSet
EndChar

StartChar: aogonek
Encoding: 261 261 121
Width: 492
GlyphClass: 2
Flags: W
LayerCount: 2
Fore
SplineSet
309 -7 m 1,0,1
 279 -10 279 -10 247 -10 c 0,2,3
 206 -10 206 -10 167.5 -2.5 c 128,-1,4
 129 5 129 5 98.5 24 c 128,-1,5
 68 43 68 43 49.5 76 c 128,-1,6
 31 109 31 109 31 160 c 0,7,8
 31 201 31 201 47.5 232 c 128,-1,9
 64 263 64 263 91 283.5 c 128,-1,10
 118 304 118 304 152.5 314 c 128,-1,11
 187 324 187 324 223 324 c 0,12,13
 281 324 281 324 328 303 c 1,14,-1
 328 354 l 2,15,16
 328 373 328 373 319 387.5 c 128,-1,17
 310 402 310 402 295 411.5 c 128,-1,18
 280 421 280 421 260.5 425.5 c 128,-1,19
 241 430 241 430 220 430 c 0,20,21
 189 430 189 430 159.5 419.5 c 128,-1,22
 130 409 130 409 110 387 c 1,23,-1
 46 446 l 1,24,25
 88 493 88 493 136 510.5 c 128,-1,26
 184 528 184 528 234 528 c 0,27,28
 272 528 272 528 308.5 517.5 c 128,-1,29
 345 507 345 507 374 486 c 128,-1,30
 403 465 403 465 420.5 433 c 128,-1,31
 438 401 438 401 438 357 c 2,32,-1
 438 22 l 1,33,34
 412 1 412 1 395 -16.5 c 128,-1,35
 378 -34 378 -34 368 -49 c 128,-1,36
 358 -64 358 -64 354.5 -77 c 128,-1,37
 351 -90 351 -90 351 -102 c 0,38,39
 351 -125 351 -125 367 -134 c 128,-1,40
 383 -143 383 -143 415 -124 c 1,41,-1
 454 -195 l 1,42,43
 428 -218 428 -218 401 -231 c 128,-1,44
 374 -244 374 -244 345 -244 c 0,45,46
 299 -244 299 -244 273 -219.5 c 128,-1,47
 247 -195 247 -195 247 -147 c 0,48,49
 247 -112 247 -112 265 -76 c 128,-1,50
 283 -40 283 -40 312 -11 c 1,51,-1
 309 -7 l 1,0,1
142 157 m 0,52,53
 142 135 142 135 150 121 c 128,-1,54
 158 107 158 107 171.5 98.5 c 128,-1,55
 185 90 185 90 202 86.5 c 128,-1,56
 219 83 219 83 238 83 c 0,57,58
 262 83 262 83 285.5 86.5 c 128,-1,59
 309 90 309 90 328 95 c 1,60,-1
 328 218 l 1,61,62
 311 226 311 226 287.5 231 c 128,-1,63
 264 236 264 236 239 236 c 0,64,65
 191 236 191 236 166.5 212.5 c 128,-1,66
 142 189 142 189 142 157 c 0,52,53
EndSplineSet
EndChar

StartChar: aring
Encoding: 229 229 122
Width: 489
GlyphClass: 2
Flags: W
LayerCount: 2
Fore
SplineSet
126 669 m 256,0,1
 126 720 126 720 159.5 749.5 c 128,-1,2
 193 779 193 779 244 779 c 256,3,4
 295 779 295 779 327.5 749 c 128,-1,5
 360 719 360 719 360 668 c 256,6,7
 360 617 360 617 327.5 588 c 128,-1,8
 295 559 295 559 244 559 c 256,9,10
 193 559 193 559 159.5 588.5 c 128,-1,11
 126 618 126 618 126 669 c 256,0,1
297 668 m 0,12,13
 297 693 297 693 282 708 c 128,-1,14
 267 723 267 723 243 723 c 0,15,16
 218 723 218 723 202.5 708 c 128,-1,17
 187 693 187 693 187 668 c 0,18,19
 187 644 187 644 202.5 629 c 128,-1,20
 218 614 218 614 243 614 c 0,21,22
 267 614 267 614 282 629 c 128,-1,23
 297 644 297 644 297 668 c 0,12,13
327 354 m 2,24,25
 327 373 327 373 318 387.5 c 128,-1,26
 309 402 309 402 294 411.5 c 128,-1,27
 279 421 279 421 259.5 425.5 c 128,-1,28
 240 430 240 430 219 430 c 0,29,30
 188 430 188 430 159 419.5 c 128,-1,31
 130 409 130 409 110 387 c 1,32,-1
 48 451 l 1,33,34
 90 498 90 498 136.5 513 c 128,-1,35
 183 528 183 528 233 528 c 0,36,37
 271 528 271 528 307.5 517.5 c 128,-1,38
 344 507 344 507 373 486 c 128,-1,39
 402 465 402 465 419.5 433 c 128,-1,40
 437 401 437 401 437 357 c 2,41,-1
 437 25 l 1,42,43
 401 11 401 11 349.5 0.5 c 128,-1,44
 298 -10 298 -10 241 -10 c 0,45,46
 200 -10 200 -10 162 -2.5 c 128,-1,47
 124 5 124 5 95 23 c 128,-1,48
 66 41 66 41 48 71.5 c 128,-1,49
 30 102 30 102 30 148 c 0,50,51
 30 191 30 191 46.5 222 c 128,-1,52
 63 253 63 253 90 273.5 c 128,-1,53
 117 294 117 294 151.5 304 c 128,-1,54
 186 314 186 314 222 314 c 0,55,56
 250 314 250 314 277 309 c 128,-1,57
 304 304 304 304 327 294 c 1,58,-1
 327 354 l 2,24,25
327 208 m 1,59,60
 310 216 310 216 286.5 221 c 128,-1,61
 263 226 263 226 238 226 c 0,62,63
 190 226 190 226 164 204.5 c 128,-1,64
 138 183 138 183 138 149 c 0,65,66
 138 131 138 131 146 118 c 128,-1,67
 154 105 154 105 167.5 97 c 128,-1,68
 181 89 181 89 198 85.5 c 128,-1,69
 215 82 215 82 234 82 c 0,70,71
 261 82 261 82 285 85 c 128,-1,72
 309 88 309 88 327 93 c 1,73,-1
 327 208 l 1,59,60
EndSplineSet
EndChar

StartChar: atilde
Encoding: 227 227 123
Width: 489
GlyphClass: 2
Flags: W
LayerCount: 2
Fore
SplineSet
88 620 m 1,0,1
 99 674 99 674 124.5 701.5 c 128,-1,2
 150 729 150 729 185 729 c 0,3,4
 207 729 207 729 223.5 722.5 c 128,-1,5
 240 716 240 716 253 708 c 128,-1,6
 266 700 266 700 276 693.5 c 128,-1,7
 286 687 286 687 296 687 c 0,8,9
 317 687 317 687 325 715 c 1,10,-1
 400 691 l 1,11,12
 389 637 389 637 365.5 611 c 128,-1,13
 342 585 342 585 308 585 c 0,14,15
 284 585 284 585 267 591 c 128,-1,16
 250 597 250 597 236.5 604.5 c 128,-1,17
 223 612 223 612 212.5 618.5 c 128,-1,18
 202 625 202 625 192 625 c 0,19,20
 184 625 184 625 176 618.5 c 128,-1,21
 168 612 168 612 162 593 c 1,22,-1
 88 620 l 1,0,1
327 354 m 2,23,24
 327 373 327 373 318 387.5 c 128,-1,25
 309 402 309 402 294 411.5 c 128,-1,26
 279 421 279 421 259.5 425.5 c 128,-1,27
 240 430 240 430 219 430 c 0,28,29
 188 430 188 430 159 419.5 c 128,-1,30
 130 409 130 409 110 387 c 1,31,-1
 48 451 l 1,32,33
 90 498 90 498 136.5 513 c 128,-1,34
 183 528 183 528 233 528 c 0,35,36
 271 528 271 528 307.5 517.5 c 128,-1,37
 344 507 344 507 373 486 c 128,-1,38
 402 465 402 465 419.5 433 c 128,-1,39
 437 401 437 401 437 357 c 2,40,-1
 437 25 l 1,41,42
 401 11 401 11 349.5 0.5 c 128,-1,43
 298 -10 298 -10 241 -10 c 0,44,45
 200 -10 200 -10 162 -2.5 c 128,-1,46
 124 5 124 5 95 23 c 128,-1,47
 66 41 66 41 48 71.5 c 128,-1,48
 30 102 30 102 30 148 c 0,49,50
 30 191 30 191 46.5 222 c 128,-1,51
 63 253 63 253 90 273.5 c 128,-1,52
 117 294 117 294 151.5 304 c 128,-1,53
 186 314 186 314 222 314 c 0,54,55
 250 314 250 314 277 309 c 128,-1,56
 304 304 304 304 327 294 c 1,57,-1
 327 354 l 2,23,24
327 208 m 1,58,59
 310 216 310 216 286.5 221 c 128,-1,60
 263 226 263 226 238 226 c 0,61,62
 190 226 190 226 164 204.5 c 128,-1,63
 138 183 138 183 138 149 c 0,64,65
 138 131 138 131 146 118 c 128,-1,66
 154 105 154 105 167.5 97 c 128,-1,67
 181 89 181 89 198 85.5 c 128,-1,68
 215 82 215 82 234 82 c 0,69,70
 261 82 261 82 285 85 c 128,-1,71
 309 88 309 88 327 93 c 1,72,-1
 327 208 l 1,58,59
EndSplineSet
EndChar

StartChar: ae
Encoding: 230 230 124
Width: 768
GlyphClass: 2
Flags: W
LayerCount: 2
Fore
SplineSet
716 98 m 1,0,1
 682 44 682 44 631.5 17.5 c 128,-1,2
 581 -9 581 -9 529 -9 c 0,3,4
 490 -9 490 -9 453 1 c 128,-1,5
 416 11 416 11 390 45 c 1,6,7
 358 13 358 13 316 2 c 128,-1,8
 274 -9 274 -9 232 -9 c 0,9,10
 193 -9 193 -9 156 0 c 128,-1,11
 119 9 119 9 90.5 29 c 128,-1,12
 62 49 62 49 45 81.5 c 128,-1,13
 28 114 28 114 28 161 c 0,14,15
 28 204 28 204 43.5 234.5 c 128,-1,16
 59 265 59 265 84.5 284.5 c 128,-1,17
 110 304 110 304 143.5 313.5 c 128,-1,18
 177 323 177 323 213 323 c 0,19,20
 242 323 242 323 270.5 319 c 128,-1,21
 299 315 299 315 325 307 c 1,22,-1
 325 353 l 2,23,24
 325 391 325 391 298 408 c 128,-1,25
 271 425 271 425 234 425 c 0,26,27
 200 425 200 425 166 414 c 128,-1,28
 132 403 132 403 112 377 c 1,29,-1
 52 438 l 1,30,31
 88 483 88 483 135.5 504 c 128,-1,32
 183 525 183 525 233 526 c 0,33,34
 278 526 278 526 318 506.5 c 128,-1,35
 358 487 358 487 381 449 c 1,36,37
 409 488 409 488 450 507 c 128,-1,38
 491 526 491 526 536 526 c 0,39,40
 572 526 572 526 607.5 514 c 128,-1,41
 643 502 643 502 670.5 479 c 128,-1,42
 698 456 698 456 715 423 c 128,-1,43
 732 390 732 390 732 347 c 2,44,-1
 732 209 l 1,45,-1
 435 209 l 1,46,-1
 435 167 l 2,47,48
 435 131 435 131 460 112 c 128,-1,49
 485 93 485 93 518.5 91 c 128,-1,50
 552 89 552 89 585.5 102 c 128,-1,51
 619 115 619 115 635 143 c 1,52,-1
 716 98 l 1,0,1
623 348 m 2,53,54
 623 365 623 365 615 377.5 c 128,-1,55
 607 390 607 390 593.5 398.5 c 128,-1,56
 580 407 580 407 563 411.5 c 128,-1,57
 546 416 546 416 529 416 c 0,58,59
 511 416 511 416 494.5 412 c 128,-1,60
 478 408 478 408 464.5 399.5 c 128,-1,61
 451 391 451 391 443 379 c 128,-1,62
 435 367 435 367 435 351 c 2,63,-1
 435 301 l 1,64,-1
 623 301 l 1,65,-1
 623 348 l 2,53,54
233 95 m 0,66,67
 259 95 259 95 288 99 c 128,-1,68
 317 103 317 103 337 114 c 1,69,70
 334 125 334 125 331.5 140.5 c 128,-1,71
 329 156 329 156 329 169 c 2,72,-1
 329 225 l 1,73,74
 310 230 310 230 285.5 234.5 c 128,-1,75
 261 239 261 239 238 239 c 0,76,77
 218 239 218 239 200.5 235.5 c 128,-1,78
 183 232 183 232 169 223 c 128,-1,79
 155 214 155 214 146.5 199.5 c 128,-1,80
 138 185 138 185 138 163 c 0,81,82
 139 125 139 125 167.5 110 c 128,-1,83
 196 95 196 95 233 95 c 0,66,67
EndSplineSet
EndChar

StartChar: b
Encoding: 98 98 125
Width: 509
GlyphClass: 2
Flags: W
LayerCount: 2
Fore
SplineSet
167 507 m 1,0,1
 212 528 212 528 264 528 c 0,2,3
 302 528 302 528 338 516 c 128,-1,4
 374 504 374 504 402.5 481 c 128,-1,5
 431 458 431 458 448.5 425 c 128,-1,6
 466 392 466 392 466 349 c 2,7,-1
 466 164 l 1,8,9
 462 116 462 116 444 83 c 128,-1,10
 426 50 426 50 398.5 29.5 c 128,-1,11
 371 9 371 9 335.5 0 c 128,-1,12
 300 -9 300 -9 261 -10 c 0,13,14
 209 -11 209 -11 155.5 0.5 c 128,-1,15
 102 12 102 12 57 30 c 1,16,-1
 57 709 l 1,17,-1
 167 709 l 1,18,-1
 167 507 l 1,0,1
167 96 m 1,19,20
 182 89 182 89 202 85.5 c 128,-1,21
 222 82 222 82 243 82 c 0,22,23
 263 82 263 82 283 86.5 c 128,-1,24
 303 91 303 91 318.5 100.5 c 128,-1,25
 334 110 334 110 344.5 125.5 c 128,-1,26
 355 141 355 141 356 164 c 2,27,-1
 356 354 l 1,28,29
 352 395 352 395 318.5 414.5 c 128,-1,30
 285 434 285 434 245 434 c 0,31,32
 224 434 224 434 204 429 c 128,-1,33
 184 424 184 424 167 413 c 1,34,-1
 167 96 l 1,19,20
EndSplineSet
EndChar

StartChar: c
Encoding: 99 99 126
Width: 473
GlyphClass: 2
Flags: W
LayerCount: 2
Fore
SplineSet
43 350 m 2,0,1
 43 395 43 395 60.5 428.5 c 128,-1,2
 78 462 78 462 107 484 c 128,-1,3
 136 506 136 506 172.5 517 c 128,-1,4
 209 528 209 528 247 528 c 0,5,6
 277 528 277 528 308.5 520.5 c 128,-1,7
 340 513 340 513 367.5 497 c 128,-1,8
 395 481 395 481 416 455 c 128,-1,9
 437 429 437 429 448 392 c 1,10,-1
 348 354 l 1,11,12
 338 389 338 389 311 405 c 128,-1,13
 284 421 284 421 252 421 c 0,14,15
 234 421 234 421 216.5 416.5 c 128,-1,16
 199 412 199 412 185 403 c 128,-1,17
 171 394 171 394 162 381 c 128,-1,18
 153 368 153 368 153 351 c 2,19,-1
 153 167 l 2,20,21
 153 133 153 133 182 115 c 128,-1,22
 211 97 211 97 247 97 c 0,23,24
 279 97 279 97 308.5 113 c 128,-1,25
 338 129 338 129 348 164 c 1,26,-1
 450 126 l 1,27,28
 439 89 439 89 417.5 63 c 128,-1,29
 396 37 396 37 368.5 21 c 128,-1,30
 341 5 341 5 309 -2.5 c 128,-1,31
 277 -10 277 -10 247 -10 c 0,32,33
 209 -10 209 -10 172.5 1 c 128,-1,34
 136 12 136 12 107 34 c 128,-1,35
 78 56 78 56 60.5 89.5 c 128,-1,36
 43 123 43 123 43 168 c 2,37,-1
 43 350 l 2,0,1
EndSplineSet
EndChar

StartChar: cacute
Encoding: 263 263 127
Width: 473
GlyphClass: 2
Flags: W
LayerCount: 2
Fore
SplineSet
288 577 m 1,0,-1
 174 577 l 1,1,-1
 265 728 l 1,2,-1
 406 728 l 1,3,-1
 288 577 l 1,0,-1
43 350 m 2,4,5
 43 395 43 395 60.5 428.5 c 128,-1,6
 78 462 78 462 107 484 c 128,-1,7
 136 506 136 506 172.5 517 c 128,-1,8
 209 528 209 528 247 528 c 0,9,10
 277 528 277 528 308.5 520.5 c 128,-1,11
 340 513 340 513 367.5 497 c 128,-1,12
 395 481 395 481 416 455 c 128,-1,13
 437 429 437 429 448 392 c 1,14,-1
 348 354 l 1,15,16
 338 389 338 389 311 405 c 128,-1,17
 284 421 284 421 252 421 c 0,18,19
 234 421 234 421 216.5 416.5 c 128,-1,20
 199 412 199 412 185 403 c 128,-1,21
 171 394 171 394 162 381 c 128,-1,22
 153 368 153 368 153 351 c 2,23,-1
 153 167 l 2,24,25
 153 133 153 133 182 115 c 128,-1,26
 211 97 211 97 247 97 c 0,27,28
 279 97 279 97 308.5 113 c 128,-1,29
 338 129 338 129 348 164 c 1,30,-1
 450 126 l 1,31,32
 439 89 439 89 417.5 63 c 128,-1,33
 396 37 396 37 368.5 21 c 128,-1,34
 341 5 341 5 309 -2.5 c 128,-1,35
 277 -10 277 -10 247 -10 c 0,36,37
 209 -10 209 -10 172.5 1 c 128,-1,38
 136 12 136 12 107 34 c 128,-1,39
 78 56 78 56 60.5 89.5 c 128,-1,40
 43 123 43 123 43 168 c 2,41,-1
 43 350 l 2,4,5
EndSplineSet
EndChar

StartChar: ccaron
Encoding: 269 269 128
Width: 473
GlyphClass: 2
Flags: W
LayerCount: 2
Fore
SplineSet
195 728 m 1,0,-1
 246 672 l 1,1,-1
 300 728 l 1,2,-1
 425 728 l 1,3,-1
 287 577 l 1,4,-1
 206 577 l 1,5,-1
 68 728 l 1,6,-1
 195 728 l 1,0,-1
43 350 m 2,7,8
 43 395 43 395 60.5 428.5 c 128,-1,9
 78 462 78 462 107 484 c 128,-1,10
 136 506 136 506 172.5 517 c 128,-1,11
 209 528 209 528 247 528 c 0,12,13
 277 528 277 528 308.5 520.5 c 128,-1,14
 340 513 340 513 367.5 497 c 128,-1,15
 395 481 395 481 416 455 c 128,-1,16
 437 429 437 429 448 392 c 1,17,-1
 348 354 l 1,18,19
 338 389 338 389 311 405 c 128,-1,20
 284 421 284 421 252 421 c 0,21,22
 234 421 234 421 216.5 416.5 c 128,-1,23
 199 412 199 412 185 403 c 128,-1,24
 171 394 171 394 162 381 c 128,-1,25
 153 368 153 368 153 351 c 2,26,-1
 153 167 l 2,27,28
 153 133 153 133 182 115 c 128,-1,29
 211 97 211 97 247 97 c 0,30,31
 279 97 279 97 308.5 113 c 128,-1,32
 338 129 338 129 348 164 c 1,33,-1
 450 126 l 1,34,35
 439 89 439 89 417.5 63 c 128,-1,36
 396 37 396 37 368.5 21 c 128,-1,37
 341 5 341 5 309 -2.5 c 128,-1,38
 277 -10 277 -10 247 -10 c 0,39,40
 209 -10 209 -10 172.5 1 c 128,-1,41
 136 12 136 12 107 34 c 128,-1,42
 78 56 78 56 60.5 89.5 c 128,-1,43
 43 123 43 123 43 168 c 2,44,-1
 43 350 l 2,7,8
EndSplineSet
EndChar

StartChar: ccedilla
Encoding: 231 231 129
Width: 473
GlyphClass: 2
Flags: W
LayerCount: 2
Fore
SplineSet
450 126 m 1,0,1
 433 68 433 68 391.5 37 c 128,-1,2
 350 6 350 6 301 -4 c 1,3,-1
 279 -53 l 1,4,5
 328 -70 328 -70 342.5 -104.5 c 128,-1,6
 357 -139 357 -139 343 -179 c 0,7,8
 330 -215 330 -215 297.5 -229.5 c 128,-1,9
 265 -244 265 -244 224 -244 c 0,10,11
 202 -244 202 -244 175 -237 c 128,-1,12
 148 -230 148 -230 116 -211 c 1,13,-1
 141 -144 l 1,14,15
 169 -161 169 -161 191 -163.5 c 128,-1,16
 213 -166 213 -166 226.5 -160 c 128,-1,17
 240 -154 240 -154 244 -142.5 c 128,-1,18
 248 -131 248 -131 241.5 -120 c 128,-1,19
 235 -109 235 -109 217 -101 c 128,-1,20
 199 -93 199 -93 167 -94 c 1,21,-1
 205 -7 l 1,22,23
 173 -2 173 -2 143.5 11.5 c 128,-1,24
 114 25 114 25 91.5 47 c 128,-1,25
 69 69 69 69 56 99 c 128,-1,26
 43 129 43 129 43 168 c 2,27,-1
 43 350 l 2,28,29
 43 395 43 395 60.5 428.5 c 128,-1,30
 78 462 78 462 107 484 c 128,-1,31
 136 506 136 506 172.5 517 c 128,-1,32
 209 528 209 528 247 528 c 0,33,34
 277 528 277 528 308.5 520.5 c 128,-1,35
 340 513 340 513 367.5 497 c 128,-1,36
 395 481 395 481 416 455 c 128,-1,37
 437 429 437 429 448 392 c 1,38,-1
 348 354 l 1,39,40
 338 389 338 389 311 405 c 128,-1,41
 284 421 284 421 252 421 c 0,42,43
 234 421 234 421 216.5 416.5 c 128,-1,44
 199 412 199 412 185 403 c 128,-1,45
 171 394 171 394 162 381 c 128,-1,46
 153 368 153 368 153 351 c 2,47,-1
 153 167 l 2,48,49
 153 133 153 133 182 115 c 128,-1,50
 211 97 211 97 247 97 c 0,51,52
 279 97 279 97 308.5 113 c 128,-1,53
 338 129 338 129 348 164 c 1,54,-1
 450 126 l 1,0,1
EndSplineSet
EndChar

StartChar: cdotaccent
Encoding: 267 267 130
Width: 473
GlyphClass: 2
Flags: W
LayerCount: 2
Fore
SplineSet
171 652 m 256,0,1
 171 684 171 684 193 705.5 c 128,-1,2
 215 727 215 727 247 727 c 256,3,4
 279 727 279 727 300.5 705.5 c 128,-1,5
 322 684 322 684 322 652 c 256,6,7
 322 620 322 620 300.5 598 c 128,-1,8
 279 576 279 576 247 576 c 256,9,10
 215 576 215 576 193 598 c 128,-1,11
 171 620 171 620 171 652 c 256,0,1
43 350 m 2,12,13
 43 395 43 395 60.5 428.5 c 128,-1,14
 78 462 78 462 107 484 c 128,-1,15
 136 506 136 506 172.5 517 c 128,-1,16
 209 528 209 528 247 528 c 0,17,18
 277 528 277 528 308.5 520.5 c 128,-1,19
 340 513 340 513 367.5 497 c 128,-1,20
 395 481 395 481 416 455 c 128,-1,21
 437 429 437 429 448 392 c 1,22,-1
 348 354 l 1,23,24
 338 389 338 389 311 405 c 128,-1,25
 284 421 284 421 252 421 c 0,26,27
 234 421 234 421 216.5 416.5 c 128,-1,28
 199 412 199 412 185 403 c 128,-1,29
 171 394 171 394 162 381 c 128,-1,30
 153 368 153 368 153 351 c 2,31,-1
 153 167 l 2,32,33
 153 133 153 133 182 115 c 128,-1,34
 211 97 211 97 247 97 c 0,35,36
 279 97 279 97 308.5 113 c 128,-1,37
 338 129 338 129 348 164 c 1,38,-1
 450 126 l 1,39,40
 439 89 439 89 417.5 63 c 128,-1,41
 396 37 396 37 368.5 21 c 128,-1,42
 341 5 341 5 309 -2.5 c 128,-1,43
 277 -10 277 -10 247 -10 c 0,44,45
 209 -10 209 -10 172.5 1 c 128,-1,46
 136 12 136 12 107 34 c 128,-1,47
 78 56 78 56 60.5 89.5 c 128,-1,48
 43 123 43 123 43 168 c 2,49,-1
 43 350 l 2,12,13
EndSplineSet
EndChar

StartChar: d
Encoding: 100 100 131
Width: 509
GlyphClass: 2
Flags: W
LayerCount: 2
Fore
SplineSet
452 30 m 1,0,1
 407 12 407 12 354.5 0.5 c 128,-1,2
 302 -11 302 -11 251 -10 c 0,3,4
 212 -10 212 -10 176 -0.5 c 128,-1,5
 140 9 140 9 111.5 29 c 128,-1,6
 83 49 83 49 65 82.5 c 128,-1,7
 47 116 47 116 43 164 c 1,8,-1
 43 349 l 2,9,10
 43 392 43 392 60.5 425.5 c 128,-1,11
 78 459 78 459 106.5 481.5 c 128,-1,12
 135 504 135 504 172 516 c 128,-1,13
 209 528 209 528 247 528 c 0,14,15
 298 528 298 528 342 507 c 1,16,-1
 342 709 l 1,17,-1
 452 709 l 1,18,-1
 452 30 l 1,0,1
342 413 m 1,19,20
 309 434 309 434 263 434 c 0,21,22
 223 434 223 434 190 414.5 c 128,-1,23
 157 395 157 395 153 354 c 1,24,-1
 153 164 l 2,25,26
 154 141 154 141 164.5 125.5 c 128,-1,27
 175 110 175 110 190.5 100.5 c 128,-1,28
 206 91 206 91 226 86.5 c 128,-1,29
 246 82 246 82 267 82 c 0,30,31
 311 82 311 82 342 96 c 1,32,-1
 342 413 l 1,19,20
EndSplineSet
EndChar

StartChar: eth
Encoding: 240 240 132
Width: 503
GlyphClass: 2
Flags: W
LayerCount: 2
Fore
SplineSet
78 627 m 1,0,1
 116 660 116 660 166.5 678.5 c 128,-1,2
 217 697 217 697 263 689 c 1,3,-1
 289 768 l 1,4,-1
 365 747 l 1,5,-1
 340 675 l 1,6,7
 390 658 390 658 418 617.5 c 128,-1,8
 446 577 446 577 446 518 c 2,9,-1
 446 31 l 1,10,11
 403 19 403 19 371.5 11.5 c 128,-1,12
 340 4 340 4 316.5 0 c 128,-1,13
 293 -4 293 -4 275 -5 c 128,-1,14
 257 -6 257 -6 241 -6 c 0,15,16
 204 -6 204 -6 168.5 5.5 c 128,-1,17
 133 17 133 17 105 39 c 128,-1,18
 77 61 77 61 60 94 c 128,-1,19
 43 127 43 127 43 171 c 2,20,-1
 43 306 l 2,21,22
 43 366 43 366 74 402.5 c 128,-1,23
 105 439 105 439 150.5 454.5 c 128,-1,24
 196 470 196 470 247 466.5 c 128,-1,25
 298 463 298 463 337 443 c 1,26,-1
 337 518 l 2,27,28
 337 533 337 533 330 547 c 128,-1,29
 323 561 323 561 308 570 c 1,30,-1
 286 509 l 1,31,-1
 209 531 l 1,32,-1
 228 584 l 1,33,34
 208 584 208 584 184.5 575.5 c 128,-1,35
 161 567 161 567 143 552 c 1,36,-1
 78 627 l 1,0,1
241 93 m 0,37,38
 267 93 267 93 292 96.5 c 128,-1,39
 317 100 317 100 337 107 c 1,40,-1
 337 348 l 1,41,42
 315 363 315 363 283.5 370.5 c 128,-1,43
 252 378 252 378 222.5 374 c 128,-1,44
 193 370 193 370 172.5 353.5 c 128,-1,45
 152 337 152 337 152 306 c 2,46,-1
 152 163 l 2,47,48
 152 146 152 146 159.5 133 c 128,-1,49
 167 120 167 120 180 111 c 128,-1,50
 193 102 193 102 208.5 97.5 c 128,-1,51
 224 93 224 93 241 93 c 0,37,38
EndSplineSet
EndChar

StartChar: dcaron
Encoding: 271 271 133
Width: 515
GlyphClass: 2
Flags: W
LayerCount: 2
Fore
SplineSet
452 30 m 1,0,1
 407 12 407 12 354.5 0.5 c 128,-1,2
 302 -11 302 -11 251 -10 c 0,3,4
 212 -10 212 -10 176 -0.5 c 128,-1,5
 140 9 140 9 111.5 29 c 128,-1,6
 83 49 83 49 65 82.5 c 128,-1,7
 47 116 47 116 43 164 c 1,8,-1
 43 349 l 2,9,10
 43 392 43 392 60.5 425.5 c 128,-1,11
 78 459 78 459 106.5 481.5 c 128,-1,12
 135 504 135 504 172 516 c 128,-1,13
 209 528 209 528 247 528 c 0,14,15
 298 528 298 528 342 507 c 1,16,-1
 342 709 l 1,17,-1
 452 709 l 1,18,-1
 452 30 l 1,0,1
576 525 m 1,19,-1
 484 525 l 1,20,-1
 521 708 l 1,21,-1
 626 708 l 1,22,-1
 576 525 l 1,19,-1
342 413 m 1,23,24
 309 434 309 434 263 434 c 0,25,26
 223 434 223 434 190 414.5 c 128,-1,27
 157 395 157 395 153 354 c 1,28,-1
 153 164 l 2,29,30
 154 141 154 141 164.5 125.5 c 128,-1,31
 175 110 175 110 190.5 100.5 c 128,-1,32
 206 91 206 91 226 86.5 c 128,-1,33
 246 82 246 82 267 82 c 0,34,35
 311 82 311 82 342 96 c 1,36,-1
 342 413 l 1,23,24
EndSplineSet
EndChar

StartChar: dcroat
Encoding: 273 273 134
Width: 509
GlyphClass: 2
Flags: W
LayerCount: 2
Fore
SplineSet
452 571 m 1,0,-1
 452 30 l 1,1,2
 407 12 407 12 354.5 0.5 c 128,-1,3
 302 -11 302 -11 251 -10 c 0,4,5
 212 -10 212 -10 176 -0.5 c 128,-1,6
 140 9 140 9 111.5 29 c 128,-1,7
 83 49 83 49 65 82.5 c 128,-1,8
 47 116 47 116 43 164 c 1,9,-1
 43 349 l 2,10,11
 43 392 43 392 60.5 425.5 c 128,-1,12
 78 459 78 459 106.5 481.5 c 128,-1,13
 135 504 135 504 172 516 c 128,-1,14
 209 528 209 528 247 528 c 0,15,16
 298 528 298 528 342 507 c 1,17,-1
 342 571 l 1,18,-1
 238 571 l 1,19,-1
 238 643 l 1,20,-1
 342 643 l 1,21,-1
 342 709 l 1,22,-1
 452 709 l 1,23,-1
 452 643 l 1,24,-1
 511 643 l 1,25,-1
 511 571 l 1,26,-1
 452 571 l 1,0,-1
342 413 m 1,27,28
 309 434 309 434 263 434 c 0,29,30
 223 434 223 434 190 414.5 c 128,-1,31
 157 395 157 395 153 354 c 1,32,-1
 153 164 l 2,33,34
 154 141 154 141 164.5 125.5 c 128,-1,35
 175 110 175 110 190.5 100.5 c 128,-1,36
 206 91 206 91 226 86.5 c 128,-1,37
 246 82 246 82 267 82 c 0,38,39
 311 82 311 82 342 96 c 1,40,-1
 342 413 l 1,27,28
EndSplineSet
EndChar

StartChar: e
Encoding: 101 101 135
Width: 486
GlyphClass: 2
Flags: W
LayerCount: 2
Fore
SplineSet
434 96 m 1,0,1
 419 69 419 69 397.5 49.5 c 128,-1,2
 376 30 376 30 351.5 16.5 c 128,-1,3
 327 3 327 3 300 -3.5 c 128,-1,4
 273 -10 273 -10 248 -10 c 0,5,6
 210 -10 210 -10 173 1 c 128,-1,7
 136 12 136 12 107 34.5 c 128,-1,8
 78 57 78 57 60.5 90 c 128,-1,9
 43 123 43 123 43 168 c 2,10,-1
 43 350 l 2,11,12
 43 395 43 395 60.5 428.5 c 128,-1,13
 78 462 78 462 107 484 c 128,-1,14
 136 506 136 506 173 517 c 128,-1,15
 210 528 210 528 248 528 c 0,16,17
 285 528 285 528 321.5 517 c 128,-1,18
 358 506 358 506 386.5 484 c 128,-1,19
 415 462 415 462 432.5 428.5 c 128,-1,20
 450 395 450 395 450 350 c 2,21,-1
 450 208 l 1,22,-1
 154 208 l 1,23,-1
 154 172 l 2,24,25
 154 154 154 154 162 140.5 c 128,-1,26
 170 127 170 127 182.5 117 c 128,-1,27
 195 107 195 107 211.5 102 c 128,-1,28
 228 97 228 97 246 97 c 0,29,30
 275 97 275 97 301.5 108.5 c 128,-1,31
 328 120 328 120 342 149 c 1,32,-1
 434 96 l 1,0,1
344 348 m 2,33,34
 344 366 344 366 336 379.5 c 128,-1,35
 328 393 328 393 314.5 402.5 c 128,-1,36
 301 412 301 412 284 416.5 c 128,-1,37
 267 421 267 421 249 421 c 256,38,39
 231 421 231 421 213.5 416.5 c 128,-1,40
 196 412 196 412 182.5 402.5 c 128,-1,41
 169 393 169 393 161 379 c 128,-1,42
 153 365 153 365 154 346 c 2,43,-1
 154 299 l 1,44,-1
 344 299 l 1,45,-1
 344 348 l 2,33,34
EndSplineSet
EndChar

StartChar: eacute
Encoding: 233 233 136
Width: 486
GlyphClass: 2
Flags: W
LayerCount: 2
Fore
SplineSet
289 576 m 1,0,-1
 175 576 l 1,1,-1
 266 727 l 1,2,-1
 407 727 l 1,3,-1
 289 576 l 1,0,-1
434 96 m 1,4,5
 419 69 419 69 397.5 49.5 c 128,-1,6
 376 30 376 30 351.5 16.5 c 128,-1,7
 327 3 327 3 300 -3.5 c 128,-1,8
 273 -10 273 -10 248 -10 c 0,9,10
 210 -10 210 -10 173 1 c 128,-1,11
 136 12 136 12 107 34.5 c 128,-1,12
 78 57 78 57 60.5 90 c 128,-1,13
 43 123 43 123 43 168 c 2,14,-1
 43 350 l 2,15,16
 43 395 43 395 60.5 428.5 c 128,-1,17
 78 462 78 462 107 484 c 128,-1,18
 136 506 136 506 173 517 c 128,-1,19
 210 528 210 528 248 528 c 0,20,21
 285 528 285 528 321.5 517 c 128,-1,22
 358 506 358 506 386.5 484 c 128,-1,23
 415 462 415 462 432.5 428.5 c 128,-1,24
 450 395 450 395 450 350 c 2,25,-1
 450 208 l 1,26,-1
 154 208 l 1,27,-1
 154 172 l 2,28,29
 154 154 154 154 162 140.5 c 128,-1,30
 170 127 170 127 182.5 117 c 128,-1,31
 195 107 195 107 211.5 102 c 128,-1,32
 228 97 228 97 246 97 c 0,33,34
 275 97 275 97 301.5 108.5 c 128,-1,35
 328 120 328 120 342 149 c 1,36,-1
 434 96 l 1,4,5
344 348 m 2,37,38
 344 366 344 366 336 379.5 c 128,-1,39
 328 393 328 393 314.5 402.5 c 128,-1,40
 301 412 301 412 284 416.5 c 128,-1,41
 267 421 267 421 249 421 c 256,42,43
 231 421 231 421 213.5 416.5 c 128,-1,44
 196 412 196 412 182.5 402.5 c 128,-1,45
 169 393 169 393 161 379 c 128,-1,46
 153 365 153 365 154 346 c 2,47,-1
 154 299 l 1,48,-1
 344 299 l 1,49,-1
 344 348 l 2,37,38
EndSplineSet
EndChar

StartChar: ecaron
Encoding: 283 283 137
Width: 486
GlyphClass: 2
Flags: W
LayerCount: 2
Fore
SplineSet
196 727 m 1,0,-1
 247 671 l 1,1,-1
 301 727 l 1,2,-1
 426 727 l 1,3,-1
 288 576 l 1,4,-1
 207 576 l 1,5,-1
 69 727 l 1,6,-1
 196 727 l 1,0,-1
434 96 m 1,7,8
 419 69 419 69 397.5 49.5 c 128,-1,9
 376 30 376 30 351.5 16.5 c 128,-1,10
 327 3 327 3 300 -3.5 c 128,-1,11
 273 -10 273 -10 248 -10 c 0,12,13
 210 -10 210 -10 173 1 c 128,-1,14
 136 12 136 12 107 34.5 c 128,-1,15
 78 57 78 57 60.5 90 c 128,-1,16
 43 123 43 123 43 168 c 2,17,-1
 43 350 l 2,18,19
 43 395 43 395 60.5 428.5 c 128,-1,20
 78 462 78 462 107 484 c 128,-1,21
 136 506 136 506 173 517 c 128,-1,22
 210 528 210 528 248 528 c 0,23,24
 285 528 285 528 321.5 517 c 128,-1,25
 358 506 358 506 386.5 484 c 128,-1,26
 415 462 415 462 432.5 428.5 c 128,-1,27
 450 395 450 395 450 350 c 2,28,-1
 450 208 l 1,29,-1
 154 208 l 1,30,-1
 154 172 l 2,31,32
 154 154 154 154 162 140.5 c 128,-1,33
 170 127 170 127 182.5 117 c 128,-1,34
 195 107 195 107 211.5 102 c 128,-1,35
 228 97 228 97 246 97 c 0,36,37
 275 97 275 97 301.5 108.5 c 128,-1,38
 328 120 328 120 342 149 c 1,39,-1
 434 96 l 1,7,8
344 348 m 2,40,41
 344 366 344 366 336 379.5 c 128,-1,42
 328 393 328 393 314.5 402.5 c 128,-1,43
 301 412 301 412 284 416.5 c 128,-1,44
 267 421 267 421 249 421 c 256,45,46
 231 421 231 421 213.5 416.5 c 128,-1,47
 196 412 196 412 182.5 402.5 c 128,-1,48
 169 393 169 393 161 379 c 128,-1,49
 153 365 153 365 154 346 c 2,50,-1
 154 299 l 1,51,-1
 344 299 l 1,52,-1
 344 348 l 2,40,41
EndSplineSet
EndChar

StartChar: ecircumflex
Encoding: 234 234 138
Width: 486
GlyphClass: 2
Flags: W
LayerCount: 2
Fore
SplineSet
425 576 m 1,0,-1
 300 576 l 1,1,-1
 246 636 l 1,2,-1
 195 576 l 1,3,-1
 68 576 l 1,4,-1
 206 727 l 1,5,-1
 287 727 l 1,6,-1
 425 576 l 1,0,-1
434 96 m 1,7,8
 419 69 419 69 397.5 49.5 c 128,-1,9
 376 30 376 30 351.5 16.5 c 128,-1,10
 327 3 327 3 300 -3.5 c 128,-1,11
 273 -10 273 -10 248 -10 c 0,12,13
 210 -10 210 -10 173 1 c 128,-1,14
 136 12 136 12 107 34.5 c 128,-1,15
 78 57 78 57 60.5 90 c 128,-1,16
 43 123 43 123 43 168 c 2,17,-1
 43 350 l 2,18,19
 43 395 43 395 60.5 428.5 c 128,-1,20
 78 462 78 462 107 484 c 128,-1,21
 136 506 136 506 173 517 c 128,-1,22
 210 528 210 528 248 528 c 0,23,24
 285 528 285 528 321.5 517 c 128,-1,25
 358 506 358 506 386.5 484 c 128,-1,26
 415 462 415 462 432.5 428.5 c 128,-1,27
 450 395 450 395 450 350 c 2,28,-1
 450 208 l 1,29,-1
 154 208 l 1,30,-1
 154 172 l 2,31,32
 154 154 154 154 162 140.5 c 128,-1,33
 170 127 170 127 182.5 117 c 128,-1,34
 195 107 195 107 211.5 102 c 128,-1,35
 228 97 228 97 246 97 c 0,36,37
 275 97 275 97 301.5 108.5 c 128,-1,38
 328 120 328 120 342 149 c 1,39,-1
 434 96 l 1,7,8
344 348 m 2,40,41
 344 366 344 366 336 379.5 c 128,-1,42
 328 393 328 393 314.5 402.5 c 128,-1,43
 301 412 301 412 284 416.5 c 128,-1,44
 267 421 267 421 249 421 c 256,45,46
 231 421 231 421 213.5 416.5 c 128,-1,47
 196 412 196 412 182.5 402.5 c 128,-1,48
 169 393 169 393 161 379 c 128,-1,49
 153 365 153 365 154 346 c 2,50,-1
 154 299 l 1,51,-1
 344 299 l 1,52,-1
 344 348 l 2,40,41
EndSplineSet
EndChar

StartChar: edieresis
Encoding: 235 235 139
Width: 486
GlyphClass: 2
Flags: W
LayerCount: 2
Fore
SplineSet
91 641 m 0,0,1
 91 670 91 670 110 689 c 128,-1,2
 129 708 129 708 157 708 c 256,3,4
 185 708 185 708 204 689 c 128,-1,5
 223 670 223 670 223 641 c 0,6,7
 223 613 223 613 204 594 c 128,-1,8
 185 575 185 575 157 575 c 256,9,10
 129 575 129 575 110 594 c 128,-1,11
 91 613 91 613 91 641 c 0,0,1
272 641 m 0,12,13
 272 670 272 670 290.5 689 c 128,-1,14
 309 708 309 708 338 708 c 256,15,16
 367 708 367 708 386 689 c 128,-1,17
 405 670 405 670 405 641 c 0,18,19
 405 613 405 613 386 594 c 128,-1,20
 367 575 367 575 338 575 c 256,21,22
 309 575 309 575 290.5 594 c 128,-1,23
 272 613 272 613 272 641 c 0,12,13
434 96 m 1,24,25
 419 69 419 69 397.5 49.5 c 128,-1,26
 376 30 376 30 351.5 16.5 c 128,-1,27
 327 3 327 3 300 -3.5 c 128,-1,28
 273 -10 273 -10 248 -10 c 0,29,30
 210 -10 210 -10 173 1 c 128,-1,31
 136 12 136 12 107 34.5 c 128,-1,32
 78 57 78 57 60.5 90 c 128,-1,33
 43 123 43 123 43 168 c 2,34,-1
 43 350 l 2,35,36
 43 395 43 395 60.5 428.5 c 128,-1,37
 78 462 78 462 107 484 c 128,-1,38
 136 506 136 506 173 517 c 128,-1,39
 210 528 210 528 248 528 c 0,40,41
 285 528 285 528 321.5 517 c 128,-1,42
 358 506 358 506 386.5 484 c 128,-1,43
 415 462 415 462 432.5 428.5 c 128,-1,44
 450 395 450 395 450 350 c 2,45,-1
 450 208 l 1,46,-1
 154 208 l 1,47,-1
 154 172 l 2,48,49
 154 154 154 154 162 140.5 c 128,-1,50
 170 127 170 127 182.5 117 c 128,-1,51
 195 107 195 107 211.5 102 c 128,-1,52
 228 97 228 97 246 97 c 0,53,54
 275 97 275 97 301.5 108.5 c 128,-1,55
 328 120 328 120 342 149 c 1,56,-1
 434 96 l 1,24,25
344 348 m 2,57,58
 344 366 344 366 336 379.5 c 128,-1,59
 328 393 328 393 314.5 402.5 c 128,-1,60
 301 412 301 412 284 416.5 c 128,-1,61
 267 421 267 421 249 421 c 256,62,63
 231 421 231 421 213.5 416.5 c 128,-1,64
 196 412 196 412 182.5 402.5 c 128,-1,65
 169 393 169 393 161 379 c 128,-1,66
 153 365 153 365 154 346 c 2,67,-1
 154 299 l 1,68,-1
 344 299 l 1,69,-1
 344 348 l 2,57,58
EndSplineSet
EndChar

StartChar: edotaccent
Encoding: 279 279 140
Width: 486
GlyphClass: 2
Flags: W
LayerCount: 2
Fore
SplineSet
172 651 m 256,0,1
 172 683 172 683 194 704.5 c 128,-1,2
 216 726 216 726 248 726 c 256,3,4
 280 726 280 726 301.5 704.5 c 128,-1,5
 323 683 323 683 323 651 c 256,6,7
 323 619 323 619 301.5 597 c 128,-1,8
 280 575 280 575 248 575 c 256,9,10
 216 575 216 575 194 597 c 128,-1,11
 172 619 172 619 172 651 c 256,0,1
434 96 m 1,12,13
 419 69 419 69 397.5 49.5 c 128,-1,14
 376 30 376 30 351.5 16.5 c 128,-1,15
 327 3 327 3 300 -3.5 c 128,-1,16
 273 -10 273 -10 248 -10 c 0,17,18
 210 -10 210 -10 173 1 c 128,-1,19
 136 12 136 12 107 34.5 c 128,-1,20
 78 57 78 57 60.5 90 c 128,-1,21
 43 123 43 123 43 168 c 2,22,-1
 43 350 l 2,23,24
 43 395 43 395 60.5 428.5 c 128,-1,25
 78 462 78 462 107 484 c 128,-1,26
 136 506 136 506 173 517 c 128,-1,27
 210 528 210 528 248 528 c 0,28,29
 285 528 285 528 321.5 517 c 128,-1,30
 358 506 358 506 386.5 484 c 128,-1,31
 415 462 415 462 432.5 428.5 c 128,-1,32
 450 395 450 395 450 350 c 2,33,-1
 450 208 l 1,34,-1
 154 208 l 1,35,-1
 154 172 l 2,36,37
 154 154 154 154 162 140.5 c 128,-1,38
 170 127 170 127 182.5 117 c 128,-1,39
 195 107 195 107 211.5 102 c 128,-1,40
 228 97 228 97 246 97 c 0,41,42
 275 97 275 97 301.5 108.5 c 128,-1,43
 328 120 328 120 342 149 c 1,44,-1
 434 96 l 1,12,13
344 348 m 2,45,46
 344 366 344 366 336 379.5 c 128,-1,47
 328 393 328 393 314.5 402.5 c 128,-1,48
 301 412 301 412 284 416.5 c 128,-1,49
 267 421 267 421 249 421 c 256,50,51
 231 421 231 421 213.5 416.5 c 128,-1,52
 196 412 196 412 182.5 402.5 c 128,-1,53
 169 393 169 393 161 379 c 128,-1,54
 153 365 153 365 154 346 c 2,55,-1
 154 299 l 1,56,-1
 344 299 l 1,57,-1
 344 348 l 2,45,46
EndSplineSet
EndChar

StartChar: egrave
Encoding: 232 232 141
Width: 486
GlyphClass: 2
Flags: W
LayerCount: 2
Fore
SplineSet
217 576 m 1,0,-1
 99 727 l 1,1,-1
 240 727 l 1,2,-1
 331 576 l 1,3,-1
 217 576 l 1,0,-1
434 96 m 1,4,5
 419 69 419 69 397.5 49.5 c 128,-1,6
 376 30 376 30 351.5 16.5 c 128,-1,7
 327 3 327 3 300 -3.5 c 128,-1,8
 273 -10 273 -10 248 -10 c 0,9,10
 210 -10 210 -10 173 1 c 128,-1,11
 136 12 136 12 107 34.5 c 128,-1,12
 78 57 78 57 60.5 90 c 128,-1,13
 43 123 43 123 43 168 c 2,14,-1
 43 350 l 2,15,16
 43 395 43 395 60.5 428.5 c 128,-1,17
 78 462 78 462 107 484 c 128,-1,18
 136 506 136 506 173 517 c 128,-1,19
 210 528 210 528 248 528 c 0,20,21
 285 528 285 528 321.5 517 c 128,-1,22
 358 506 358 506 386.5 484 c 128,-1,23
 415 462 415 462 432.5 428.5 c 128,-1,24
 450 395 450 395 450 350 c 2,25,-1
 450 208 l 1,26,-1
 154 208 l 1,27,-1
 154 172 l 2,28,29
 154 154 154 154 162 140.5 c 128,-1,30
 170 127 170 127 182.5 117 c 128,-1,31
 195 107 195 107 211.5 102 c 128,-1,32
 228 97 228 97 246 97 c 0,33,34
 275 97 275 97 301.5 108.5 c 128,-1,35
 328 120 328 120 342 149 c 1,36,-1
 434 96 l 1,4,5
344 348 m 2,37,38
 344 366 344 366 336 379.5 c 128,-1,39
 328 393 328 393 314.5 402.5 c 128,-1,40
 301 412 301 412 284 416.5 c 128,-1,41
 267 421 267 421 249 421 c 256,42,43
 231 421 231 421 213.5 416.5 c 128,-1,44
 196 412 196 412 182.5 402.5 c 128,-1,45
 169 393 169 393 161 379 c 128,-1,46
 153 365 153 365 154 346 c 2,47,-1
 154 299 l 1,48,-1
 344 299 l 1,49,-1
 344 348 l 2,37,38
EndSplineSet
EndChar

StartChar: emacron
Encoding: 275 275 142
Width: 486
GlyphClass: 2
Flags: W
LayerCount: 2
Fore
SplineSet
101 712 m 1,0,-1
 394 712 l 1,1,-1
 394 611 l 1,2,-1
 101 611 l 1,3,-1
 101 712 l 1,0,-1
434 96 m 1,4,5
 419 69 419 69 397.5 49.5 c 128,-1,6
 376 30 376 30 351.5 16.5 c 128,-1,7
 327 3 327 3 300 -3.5 c 128,-1,8
 273 -10 273 -10 248 -10 c 0,9,10
 210 -10 210 -10 173 1 c 128,-1,11
 136 12 136 12 107 34.5 c 128,-1,12
 78 57 78 57 60.5 90 c 128,-1,13
 43 123 43 123 43 168 c 2,14,-1
 43 350 l 2,15,16
 43 395 43 395 60.5 428.5 c 128,-1,17
 78 462 78 462 107 484 c 128,-1,18
 136 506 136 506 173 517 c 128,-1,19
 210 528 210 528 248 528 c 0,20,21
 285 528 285 528 321.5 517 c 128,-1,22
 358 506 358 506 386.5 484 c 128,-1,23
 415 462 415 462 432.5 428.5 c 128,-1,24
 450 395 450 395 450 350 c 2,25,-1
 450 208 l 1,26,-1
 154 208 l 1,27,-1
 154 172 l 2,28,29
 154 154 154 154 162 140.5 c 128,-1,30
 170 127 170 127 182.5 117 c 128,-1,31
 195 107 195 107 211.5 102 c 128,-1,32
 228 97 228 97 246 97 c 0,33,34
 275 97 275 97 301.5 108.5 c 128,-1,35
 328 120 328 120 342 149 c 1,36,-1
 434 96 l 1,4,5
344 348 m 2,37,38
 344 366 344 366 336 379.5 c 128,-1,39
 328 393 328 393 314.5 402.5 c 128,-1,40
 301 412 301 412 284 416.5 c 128,-1,41
 267 421 267 421 249 421 c 256,42,43
 231 421 231 421 213.5 416.5 c 128,-1,44
 196 412 196 412 182.5 402.5 c 128,-1,45
 169 393 169 393 161 379 c 128,-1,46
 153 365 153 365 154 346 c 2,47,-1
 154 299 l 1,48,-1
 344 299 l 1,49,-1
 344 348 l 2,37,38
EndSplineSet
EndChar

StartChar: eogonek
Encoding: 281 281 143
Width: 487
GlyphClass: 2
Flags: W
LayerCount: 2
Fore
SplineSet
154 172 m 2,0,1
 154 154 154 154 162 140.5 c 128,-1,2
 170 127 170 127 182.5 117 c 128,-1,3
 195 107 195 107 211.5 102 c 128,-1,4
 228 97 228 97 246 97 c 0,5,6
 275 97 275 97 301.5 108.5 c 128,-1,7
 328 120 328 120 342 149 c 1,8,-1
 434 96 l 1,9,10
 416 64 416 64 394.5 42 c 128,-1,11
 373 20 373 20 354 -1 c 128,-1,12
 335 -22 335 -22 322 -45 c 128,-1,13
 309 -68 309 -68 309 -102 c 0,14,15
 309 -126 309 -126 325 -133.5 c 128,-1,16
 341 -141 341 -141 370 -124 c 1,17,-1
 409 -195 l 1,18,19
 383 -218 383 -218 356 -231 c 128,-1,20
 329 -244 329 -244 300 -244 c 0,21,22
 254 -244 254 -244 228 -219.5 c 128,-1,23
 202 -195 202 -195 202 -147 c 0,24,25
 202 -111 202 -111 221 -74.5 c 128,-1,26
 240 -38 240 -38 269 -9 c 1,27,28
 264 -10 264 -10 258.5 -10 c 128,-1,29
 253 -10 253 -10 248 -10 c 0,30,31
 210 -10 210 -10 173 1 c 128,-1,32
 136 12 136 12 107 34.5 c 128,-1,33
 78 57 78 57 60.5 90 c 128,-1,34
 43 123 43 123 43 168 c 2,35,-1
 43 350 l 2,36,37
 43 395 43 395 60.5 428.5 c 128,-1,38
 78 462 78 462 107 484 c 128,-1,39
 136 506 136 506 173 517 c 128,-1,40
 210 528 210 528 248 528 c 0,41,42
 285 528 285 528 321.5 517 c 128,-1,43
 358 506 358 506 386.5 484 c 128,-1,44
 415 462 415 462 432.5 428.5 c 128,-1,45
 450 395 450 395 450 350 c 2,46,-1
 450 208 l 1,47,-1
 154 208 l 1,48,-1
 154 172 l 2,0,1
249 421 m 256,49,50
 231 421 231 421 213.5 416.5 c 128,-1,51
 196 412 196 412 182.5 402.5 c 128,-1,52
 169 393 169 393 161 379 c 128,-1,53
 153 365 153 365 154 346 c 2,54,-1
 154 299 l 1,55,-1
 344 299 l 1,56,-1
 344 348 l 2,57,58
 344 366 344 366 336 379.5 c 128,-1,59
 328 393 328 393 314.5 402.5 c 128,-1,60
 301 412 301 412 284 416.5 c 128,-1,61
 267 421 267 421 249 421 c 256,49,50
EndSplineSet
EndChar

StartChar: f
Encoding: 102 102 144
Width: 287
GlyphClass: 2
Flags: W
LayerCount: 2
Fore
SplineSet
273 603 m 1,0,1
 222 603 222 603 195 584 c 128,-1,2
 168 565 168 565 168 532 c 2,3,-1
 168 500 l 1,4,-1
 268 500 l 1,5,-1
 268 392 l 1,6,-1
 168 392 l 1,7,-1
 168 0 l 1,8,-1
 58 0 l 1,9,-1
 58 533 l 2,10,11
 58 578 58 578 74.5 612.5 c 128,-1,12
 91 647 91 647 120.5 670 c 128,-1,13
 150 693 150 693 189 703.5 c 128,-1,14
 228 714 228 714 273 711 c 1,15,-1
 273 603 l 1,0,1
EndSplineSet
EndChar

StartChar: g
Encoding: 103 103 145
Width: 504
GlyphClass: 2
Flags: W
LayerCount: 2
Fore
SplineSet
114 -45 m 1,0,1
 136 -74 136 -74 171.5 -90 c 128,-1,2
 207 -106 207 -106 244 -106 c 0,3,4
 264 -106 264 -106 281.5 -100 c 128,-1,5
 299 -94 299 -94 312.5 -80.5 c 128,-1,6
 326 -67 326 -67 334 -45 c 128,-1,7
 342 -23 342 -23 342 9 c 1,8,9
 319 -1 319 -1 295 -5.5 c 128,-1,10
 271 -10 271 -10 247 -10 c 0,11,12
 208 -10 208 -10 171 2 c 128,-1,13
 134 14 134 14 105.5 36.5 c 128,-1,14
 77 59 77 59 60 92.5 c 128,-1,15
 43 126 43 126 43 170 c 2,16,-1
 43 346 l 2,17,18
 43 393 43 393 61.5 427.5 c 128,-1,19
 80 462 80 462 110 484 c 128,-1,20
 140 506 140 506 179.5 517 c 128,-1,21
 219 528 219 528 261 528 c 0,22,23
 312 528 312 528 362 512.5 c 128,-1,24
 412 497 412 497 447 471 c 1,25,-1
 447 -10 l 2,26,27
 447 -59 447 -59 430 -95 c 128,-1,28
 413 -131 413 -131 384.5 -154 c 128,-1,29
 356 -177 356 -177 320 -188.5 c 128,-1,30
 284 -200 284 -200 245 -200 c 0,31,32
 216 -200 216 -200 187.5 -194.5 c 128,-1,33
 159 -189 159 -189 133 -177.5 c 128,-1,34
 107 -166 107 -166 85 -148.5 c 128,-1,35
 63 -131 63 -131 48 -108 c 1,36,-1
 114 -45 l 1,0,1
338 406 m 1,37,38
 323 417 323 417 301 422 c 128,-1,39
 279 427 279 427 256 427 c 0,40,41
 236 427 236 427 217.5 422 c 128,-1,42
 199 417 199 417 185 407.5 c 128,-1,43
 171 398 171 398 162 382.5 c 128,-1,44
 153 367 153 367 153 346 c 2,45,-1
 153 169 l 2,46,47
 154 149 154 149 163 134 c 128,-1,48
 172 119 172 119 186 108.5 c 128,-1,49
 200 98 200 98 218 93 c 128,-1,50
 236 88 236 88 255 88 c 0,51,52
 278 88 278 88 300 94 c 128,-1,53
 322 100 322 100 338 111 c 1,54,-1
 338 406 l 1,37,38
EndSplineSet
EndChar

StartChar: gbreve
Encoding: 287 287 146
Width: 504
GlyphClass: 2
Flags: W
LayerCount: 2
Fore
SplineSet
414 727 m 1,0,1
 414 654 414 654 373.5 613.5 c 128,-1,2
 333 573 333 573 261 573 c 256,3,4
 189 573 189 573 149 613.5 c 128,-1,5
 109 654 109 654 109 727 c 1,6,-1
 207 727 l 1,7,8
 207 700 207 700 221 684.5 c 128,-1,9
 235 669 235 669 261 669 c 256,10,11
 287 669 287 669 302 684.5 c 128,-1,12
 317 700 317 700 317 727 c 1,13,-1
 414 727 l 1,0,1
114 -45 m 1,14,15
 136 -74 136 -74 171.5 -90 c 128,-1,16
 207 -106 207 -106 244 -106 c 0,17,18
 264 -106 264 -106 281.5 -100 c 128,-1,19
 299 -94 299 -94 312.5 -80.5 c 128,-1,20
 326 -67 326 -67 334 -45 c 128,-1,21
 342 -23 342 -23 342 9 c 1,22,23
 319 -1 319 -1 295 -5.5 c 128,-1,24
 271 -10 271 -10 247 -10 c 0,25,26
 208 -10 208 -10 171 2 c 128,-1,27
 134 14 134 14 105.5 36.5 c 128,-1,28
 77 59 77 59 60 92.5 c 128,-1,29
 43 126 43 126 43 170 c 2,30,-1
 43 346 l 2,31,32
 43 393 43 393 61.5 427.5 c 128,-1,33
 80 462 80 462 110 484 c 128,-1,34
 140 506 140 506 179.5 517 c 128,-1,35
 219 528 219 528 261 528 c 0,36,37
 312 528 312 528 362 512.5 c 128,-1,38
 412 497 412 497 447 471 c 1,39,-1
 447 -10 l 2,40,41
 447 -59 447 -59 430 -95 c 128,-1,42
 413 -131 413 -131 384.5 -154 c 128,-1,43
 356 -177 356 -177 320 -188.5 c 128,-1,44
 284 -200 284 -200 245 -200 c 0,45,46
 216 -200 216 -200 187.5 -194.5 c 128,-1,47
 159 -189 159 -189 133 -177.5 c 128,-1,48
 107 -166 107 -166 85 -148.5 c 128,-1,49
 63 -131 63 -131 48 -108 c 1,50,-1
 114 -45 l 1,14,15
338 406 m 1,51,52
 323 417 323 417 301 422 c 128,-1,53
 279 427 279 427 256 427 c 0,54,55
 236 427 236 427 217.5 422 c 128,-1,56
 199 417 199 417 185 407.5 c 128,-1,57
 171 398 171 398 162 382.5 c 128,-1,58
 153 367 153 367 153 346 c 2,59,-1
 153 169 l 2,60,61
 154 149 154 149 163 134 c 128,-1,62
 172 119 172 119 186 108.5 c 128,-1,63
 200 98 200 98 218 93 c 128,-1,64
 236 88 236 88 255 88 c 0,65,66
 278 88 278 88 300 94 c 128,-1,67
 322 100 322 100 338 111 c 1,68,-1
 338 406 l 1,51,52
EndSplineSet
EndChar

StartChar: gcommaaccent
Encoding: 291 291 147
Width: 504
GlyphClass: 2
Flags: W
LayerCount: 2
Fore
SplineSet
234 710 m 1,0,-1
 346 710 l 1,1,-1
 327 569 l 1,2,-1
 202 569 l 1,3,-1
 234 710 l 1,0,-1
114 -45 m 1,4,5
 136 -74 136 -74 171.5 -90 c 128,-1,6
 207 -106 207 -106 244 -106 c 0,7,8
 264 -106 264 -106 281.5 -100 c 128,-1,9
 299 -94 299 -94 312.5 -80.5 c 128,-1,10
 326 -67 326 -67 334 -45 c 128,-1,11
 342 -23 342 -23 342 9 c 1,12,13
 319 -1 319 -1 295 -5.5 c 128,-1,14
 271 -10 271 -10 247 -10 c 0,15,16
 208 -10 208 -10 171 2 c 128,-1,17
 134 14 134 14 105.5 36.5 c 128,-1,18
 77 59 77 59 60 92.5 c 128,-1,19
 43 126 43 126 43 170 c 2,20,-1
 43 346 l 2,21,22
 43 393 43 393 61.5 427.5 c 128,-1,23
 80 462 80 462 110 484 c 128,-1,24
 140 506 140 506 179.5 517 c 128,-1,25
 219 528 219 528 261 528 c 0,26,27
 312 528 312 528 362 512.5 c 128,-1,28
 412 497 412 497 447 471 c 1,29,-1
 447 -10 l 2,30,31
 447 -59 447 -59 430 -95 c 128,-1,32
 413 -131 413 -131 384.5 -154 c 128,-1,33
 356 -177 356 -177 320 -188.5 c 128,-1,34
 284 -200 284 -200 245 -200 c 0,35,36
 216 -200 216 -200 187.5 -194.5 c 128,-1,37
 159 -189 159 -189 133 -177.5 c 128,-1,38
 107 -166 107 -166 85 -148.5 c 128,-1,39
 63 -131 63 -131 48 -108 c 1,40,-1
 114 -45 l 1,4,5
338 406 m 1,41,42
 323 417 323 417 301 422 c 128,-1,43
 279 427 279 427 256 427 c 0,44,45
 236 427 236 427 217.5 422 c 128,-1,46
 199 417 199 417 185 407.5 c 128,-1,47
 171 398 171 398 162 382.5 c 128,-1,48
 153 367 153 367 153 346 c 2,49,-1
 153 169 l 2,50,51
 154 149 154 149 163 134 c 128,-1,52
 172 119 172 119 186 108.5 c 128,-1,53
 200 98 200 98 218 93 c 128,-1,54
 236 88 236 88 255 88 c 0,55,56
 278 88 278 88 300 94 c 128,-1,57
 322 100 322 100 338 111 c 1,58,-1
 338 406 l 1,41,42
EndSplineSet
EndChar

StartChar: gdotaccent
Encoding: 289 289 148
Width: 504
GlyphClass: 2
Flags: W
LayerCount: 2
Fore
SplineSet
185 651 m 256,0,1
 185 683 185 683 207 704.5 c 128,-1,2
 229 726 229 726 261 726 c 256,3,4
 293 726 293 726 314.5 704.5 c 128,-1,5
 336 683 336 683 336 651 c 256,6,7
 336 619 336 619 314.5 597 c 128,-1,8
 293 575 293 575 261 575 c 256,9,10
 229 575 229 575 207 597 c 128,-1,11
 185 619 185 619 185 651 c 256,0,1
114 -45 m 1,12,13
 136 -74 136 -74 171.5 -90 c 128,-1,14
 207 -106 207 -106 244 -106 c 0,15,16
 264 -106 264 -106 281.5 -100 c 128,-1,17
 299 -94 299 -94 312.5 -80.5 c 128,-1,18
 326 -67 326 -67 334 -45 c 128,-1,19
 342 -23 342 -23 342 9 c 1,20,21
 319 -1 319 -1 295 -5.5 c 128,-1,22
 271 -10 271 -10 247 -10 c 0,23,24
 208 -10 208 -10 171 2 c 128,-1,25
 134 14 134 14 105.5 36.5 c 128,-1,26
 77 59 77 59 60 92.5 c 128,-1,27
 43 126 43 126 43 170 c 2,28,-1
 43 346 l 2,29,30
 43 393 43 393 61.5 427.5 c 128,-1,31
 80 462 80 462 110 484 c 128,-1,32
 140 506 140 506 179.5 517 c 128,-1,33
 219 528 219 528 261 528 c 0,34,35
 312 528 312 528 362 512.5 c 128,-1,36
 412 497 412 497 447 471 c 1,37,-1
 447 -10 l 2,38,39
 447 -59 447 -59 430 -95 c 128,-1,40
 413 -131 413 -131 384.5 -154 c 128,-1,41
 356 -177 356 -177 320 -188.5 c 128,-1,42
 284 -200 284 -200 245 -200 c 0,43,44
 216 -200 216 -200 187.5 -194.5 c 128,-1,45
 159 -189 159 -189 133 -177.5 c 128,-1,46
 107 -166 107 -166 85 -148.5 c 128,-1,47
 63 -131 63 -131 48 -108 c 1,48,-1
 114 -45 l 1,12,13
338 406 m 1,49,50
 323 417 323 417 301 422 c 128,-1,51
 279 427 279 427 256 427 c 0,52,53
 236 427 236 427 217.5 422 c 128,-1,54
 199 417 199 417 185 407.5 c 128,-1,55
 171 398 171 398 162 382.5 c 128,-1,56
 153 367 153 367 153 346 c 2,57,-1
 153 169 l 2,58,59
 154 149 154 149 163 134 c 128,-1,60
 172 119 172 119 186 108.5 c 128,-1,61
 200 98 200 98 218 93 c 128,-1,62
 236 88 236 88 255 88 c 0,63,64
 278 88 278 88 300 94 c 128,-1,65
 322 100 322 100 338 111 c 1,66,-1
 338 406 l 1,49,50
EndSplineSet
EndChar

StartChar: h
Encoding: 104 104 149
Width: 519
GlyphClass: 2
Flags: W
LayerCount: 2
Fore
SplineSet
168 508 m 1,0,1
 217 530 217 530 271 528 c 0,2,3
 308 528 308 528 342.5 517 c 128,-1,4
 377 506 377 506 404 483.5 c 128,-1,5
 431 461 431 461 447.5 427 c 128,-1,6
 464 393 464 393 464 347 c 2,7,-1
 464 0 l 1,8,-1
 355 0 l 1,9,-1
 355 348 l 2,10,11
 355 382 355 382 334 400.5 c 128,-1,12
 313 419 313 419 283.5 424.5 c 128,-1,13
 254 430 254 430 222 424.5 c 128,-1,14
 190 419 190 419 168 405 c 1,15,-1
 168 0 l 1,16,-1
 58 0 l 1,17,-1
 58 708 l 1,18,-1
 168 708 l 1,19,-1
 168 508 l 1,0,1
EndSplineSet
EndChar

StartChar: hbar
Encoding: 295 295 150
Width: 519
GlyphClass: 2
Flags: W
LayerCount: 2
Fore
SplineSet
271 528 m 0,0,1
 308 528 308 528 342.5 517 c 128,-1,2
 377 506 377 506 404 483.5 c 128,-1,3
 431 461 431 461 447.5 427 c 128,-1,4
 464 393 464 393 464 347 c 2,5,-1
 464 0 l 1,6,-1
 355 0 l 1,7,-1
 355 348 l 2,8,9
 355 382 355 382 334 400.5 c 128,-1,10
 313 419 313 419 283.5 424.5 c 128,-1,11
 254 430 254 430 222 424.5 c 128,-1,12
 190 419 190 419 168 405 c 1,13,-1
 168 0 l 1,14,-1
 58 0 l 1,15,-1
 58 575 l 1,16,-1
 -8 575 l 1,17,-1
 -8 647 l 1,18,-1
 58 647 l 1,19,-1
 58 708 l 1,20,-1
 168 708 l 1,21,-1
 168 647 l 1,22,-1
 275 647 l 1,23,-1
 275 575 l 1,24,-1
 168 575 l 1,25,-1
 168 508 l 1,26,27
 217 530 217 530 271 528 c 0,0,1
EndSplineSet
EndChar

StartChar: i
Encoding: 105 105 151
Width: 226
GlyphClass: 2
Flags: W
LayerCount: 2
Fore
SplineSet
42 648 m 0,0,1
 42 678 42 678 62 698 c 128,-1,2
 82 718 82 718 111 718 c 0,3,4
 142 718 142 718 161.5 698 c 128,-1,5
 181 678 181 678 181 648 c 0,6,7
 181 619 181 619 161.5 598.5 c 128,-1,8
 142 578 142 578 111 578 c 0,9,10
 82 578 82 578 62 598.5 c 128,-1,11
 42 619 42 619 42 648 c 0,0,1
168 518 m 1,12,-1
 168 0 l 1,13,-1
 58 0 l 1,14,-1
 58 518 l 1,15,-1
 168 518 l 1,12,-1
EndSplineSet
Substitution2: "'locl' Localized Forms in Latin lookup 9 subtable" i.loclTRK
Substitution2: "'locl' Localized Forms in Latin lookup 8 subtable" i.loclTRK
Substitution2: "'locl' Localized Forms in Latin lookup 7 subtable" i.loclTRK
Substitution2: "'locl' Localized Forms in Latin lookup 3 subtable" i.loclTRK
Substitution2: "'locl' Localized Forms in Latin lookup 2 subtable" i.loclTRK
Substitution2: "'aalt' Access All Alternates lookup 0 subtable" i.loclTRK
EndChar

StartChar: dotlessi
Encoding: 305 305 152
Width: 229
GlyphClass: 2
Flags: W
LayerCount: 2
Fore
SplineSet
171 0 m 1,0,-1
 58 0 l 1,1,-1
 58 517 l 1,2,-1
 171 517 l 1,3,-1
 171 0 l 1,0,-1
EndSplineSet
EndChar

StartChar: iacute
Encoding: 237 237 153
Width: 229
GlyphClass: 2
Flags: W
LayerCount: 2
Fore
SplineSet
155 565 m 1,0,-1
 43 565 l 1,1,-1
 133 713 l 1,2,-1
 271 713 l 1,3,-1
 155 565 l 1,0,-1
171 0 m 1,4,-1
 58 0 l 1,5,-1
 58 517 l 1,6,-1
 171 517 l 1,7,-1
 171 0 l 1,4,-1
EndSplineSet
EndChar

StartChar: icircumflex
Encoding: 238 238 154
Width: 229
GlyphClass: 2
Flags: W
LayerCount: 2
Fore
SplineSet
272 566 m 1,0,-1
 150 566 l 1,1,-1
 113 615 l 1,2,-1
 80 566 l 1,3,-1
 -45 566 l 1,4,-1
 73 717 l 1,5,-1
 154 717 l 1,6,-1
 272 566 l 1,0,-1
171 0 m 1,7,-1
 58 0 l 1,8,-1
 58 517 l 1,9,-1
 171 517 l 1,10,-1
 171 0 l 1,7,-1
EndSplineSet
EndChar

StartChar: idieresis
Encoding: 239 239 155
Width: 229
GlyphClass: 2
Flags: W
LayerCount: 2
Fore
SplineSet
-42 641 m 0,0,1
 -42 670 -42 670 -23 689 c 128,-1,2
 -4 708 -4 708 24 708 c 256,3,4
 52 708 52 708 71 689 c 128,-1,5
 90 670 90 670 90 641 c 0,6,7
 90 613 90 613 71 594 c 128,-1,8
 52 575 52 575 24 575 c 256,9,10
 -4 575 -4 575 -23 594 c 128,-1,11
 -42 613 -42 613 -42 641 c 0,0,1
139 641 m 0,12,13
 139 670 139 670 157.5 689 c 128,-1,14
 176 708 176 708 205 708 c 256,15,16
 234 708 234 708 253 689 c 128,-1,17
 272 670 272 670 272 641 c 0,18,19
 272 613 272 613 253 594 c 128,-1,20
 234 575 234 575 205 575 c 256,21,22
 176 575 176 575 157.5 594 c 128,-1,23
 139 613 139 613 139 641 c 0,12,13
171 0 m 1,24,-1
 58 0 l 1,25,-1
 58 517 l 1,26,-1
 171 517 l 1,27,-1
 171 0 l 1,24,-1
EndSplineSet
EndChar

StartChar: i.loclTRK
Encoding: 65537 -1 156
Width: 229
GlyphClass: 2
Flags: W
LayerCount: 2
Fore
SplineSet
39 641 m 256,0,1
 39 673 39 673 61 694.5 c 128,-1,2
 83 716 83 716 115 716 c 256,3,4
 147 716 147 716 168.5 694.5 c 128,-1,5
 190 673 190 673 190 641 c 256,6,7
 190 609 190 609 168.5 587 c 128,-1,8
 147 565 147 565 115 565 c 256,9,10
 83 565 83 565 61 587 c 128,-1,11
 39 609 39 609 39 641 c 256,0,1
171 0 m 1,12,-1
 58 0 l 1,13,-1
 58 517 l 1,14,-1
 171 517 l 1,15,-1
 171 0 l 1,12,-1
EndSplineSet
EndChar

StartChar: igrave
Encoding: 236 236 157
Width: 229
GlyphClass: 2
Flags: W
LayerCount: 2
Fore
SplineSet
85 565 m 1,0,-1
 -31 713 l 1,1,-1
 107 713 l 1,2,-1
 197 565 l 1,3,-1
 85 565 l 1,0,-1
171 0 m 1,4,-1
 58 0 l 1,5,-1
 58 517 l 1,6,-1
 171 517 l 1,7,-1
 171 0 l 1,4,-1
EndSplineSet
EndChar

StartChar: ij
Encoding: 307 307 158
Width: 452
GlyphClass: 2
Flags: W
LayerCount: 2
Fore
SplineSet
42 648 m 0,0,1
 42 678 42 678 62 698 c 128,-1,2
 82 718 82 718 111 718 c 0,3,4
 142 718 142 718 161.5 698 c 128,-1,5
 181 678 181 678 181 648 c 0,6,7
 181 619 181 619 161.5 598.5 c 128,-1,8
 142 578 142 578 111 578 c 0,9,10
 82 578 82 578 62 598.5 c 128,-1,11
 42 619 42 619 42 648 c 0,0,1
168 518 m 1,12,-1
 168 0 l 1,13,-1
 58 0 l 1,14,-1
 58 518 l 1,15,-1
 168 518 l 1,12,-1
268 648 m 0,16,17
 268 678 268 678 288.5 698 c 128,-1,18
 309 718 309 718 338 718 c 0,19,20
 368 718 368 718 388 698 c 128,-1,21
 408 678 408 678 408 648 c 0,22,23
 408 619 408 619 388 598.5 c 128,-1,24
 368 578 368 578 338 578 c 0,25,26
 309 578 309 578 288.5 598.5 c 128,-1,27
 268 619 268 619 268 648 c 0,16,17
213 -74 m 1,28,29
 237 -74 237 -74 251 -68.5 c 128,-1,30
 265 -63 265 -63 272.5 -53.5 c 128,-1,31
 280 -44 280 -44 282 -30.5 c 128,-1,32
 284 -17 284 -17 284 -1 c 2,33,-1
 284 518 l 1,34,-1
 394 518 l 1,35,-1
 394 -1 l 2,36,37
 394 -84 394 -84 351.5 -130.5 c 128,-1,38
 309 -177 309 -177 213 -177 c 1,39,-1
 213 -74 l 1,28,29
EndSplineSet
EndChar

